<svg width="214" height="64" viewBox="0 0 214 64" fill="none" xmlns="http://www.w3.org/2000/svg">
  <path
    d="M62.0473 42.5193L61.2313 42.896C61.3149 43.5657 61.5243 44.2249 61.859 44.874C62.194 45.5021 62.6754 46.0146 63.3035 46.4123C63.9312 46.81 64.7371 47.0088 65.7208 47.0088C66.5793 47.0088 67.3537 46.831 68.0444 46.4753C68.7562 46.1192 69.3317 45.6379 69.7711 45.0308C70.2108 44.4031 70.4618 43.6914 70.5249 42.896C70.6085 42.1214 70.4828 41.483 70.1478 40.9807C69.8131 40.4783 69.3629 40.0597 68.7978 39.7247C68.2538 39.3898 67.6572 39.0968 67.0081 38.8456C66.4011 38.6363 65.8465 38.4061 65.3442 38.1549C64.8628 37.8827 64.4861 37.5478 64.2137 37.1501C63.9627 36.7315 63.8685 36.1873 63.9312 35.5175C64.0569 34.6802 64.4441 34.0313 65.0932 33.5708C65.7419 33.0894 66.5058 32.8487 67.3848 32.8487C68.3686 32.8696 69.1119 33.1417 69.6143 33.665C70.1377 34.1674 70.5354 34.7744 70.8074 35.4861L71.5608 35.0465C71.2888 34.2092 70.8284 33.4976 70.1793 32.9115C69.5306 32.3254 68.62 32.0219 67.4479 32.0009C66.7361 32.0009 66.0559 32.1475 65.4068 32.4405C64.7581 32.7126 64.2137 33.1208 63.7743 33.665C63.3556 34.1883 63.1046 34.8372 63.0206 35.6117C62.9369 36.428 63.0416 37.0874 63.3346 37.5897C63.6486 38.0921 64.0779 38.5002 64.6219 38.8142C65.1873 39.1282 65.794 39.4003 66.4431 39.6305C67.0292 39.8399 67.5732 40.0911 68.0756 40.3841C68.578 40.6562 68.9757 41.0016 69.2687 41.4202C69.5617 41.8179 69.6664 42.3307 69.5827 42.9586C69.4781 43.9007 69.0698 44.6751 68.3585 45.2822C67.6467 45.8683 66.7988 46.1613 65.815 46.1613C64.978 46.1403 64.2977 45.9624 63.7743 45.6274C63.2509 45.2717 62.8532 44.8214 62.5812 44.2774C62.3298 43.7124 62.152 43.1263 62.0473 42.5193ZM78.9588 22.2363H78.017L73.8096 46.7263H74.7517L78.9588 22.2363ZM84.4846 37.056L82.7895 46.7263H83.7313L85.4583 36.9617C85.563 36.0617 85.521 35.2349 85.3326 34.4814C85.1653 33.7278 84.8092 33.1208 84.2652 32.6603C83.7208 32.1998 82.9464 31.9695 81.9416 31.9695C80.8952 31.9695 79.953 32.2521 79.116 32.8173C78.2785 33.3825 77.5878 34.1151 77.0438 35.0151C76.4994 35.9152 76.1122 36.878 75.8818 37.9037H76.2589C76.4678 37.0664 76.8134 36.2605 77.2948 35.4861C77.7972 34.7116 78.4253 34.0837 79.1786 33.6022C79.932 33.0999 80.7695 32.8592 81.6906 32.8801C82.5487 32.8801 83.1872 33.0789 83.6056 33.4766C84.0453 33.8743 84.3278 34.3871 84.4535 35.0151C84.5792 35.6221 84.5893 36.3024 84.4846 37.056ZM88.931 39.505C88.7636 40.8237 88.8994 42.0586 89.3392 43.21C89.7789 44.3401 90.4798 45.2612 91.4429 45.9729C92.4057 46.6637 93.5778 47.0088 94.9592 47.0088C96.3617 47.0088 97.649 46.6742 98.8211 46.0041C100.014 45.3343 100.998 44.4237 101.772 43.2726C102.568 42.1214 103.06 40.8655 103.248 39.505C103.437 38.1863 103.301 36.9617 102.84 35.8315C102.4 34.6802 101.699 33.7488 100.737 33.0371C99.7738 32.3254 98.6013 31.9695 97.2198 31.9695C95.8177 31.9695 94.5199 32.3149 93.3268 33.0057C92.1337 33.6755 91.1499 34.586 90.3755 35.7373C89.6007 36.8676 89.1193 38.1235 88.931 39.505ZM89.8731 39.505C90.0615 38.2909 90.5008 37.1815 91.1915 36.1768C91.8823 35.1721 92.7407 34.3767 93.7661 33.7906C94.7919 33.1836 95.9119 32.8801 97.1256 32.8801C98.3398 32.8801 99.355 33.1941 100.171 33.822C101.009 34.45 101.605 35.2663 101.961 36.271C102.338 37.2548 102.453 38.3328 102.306 39.505C102.118 40.6981 101.678 41.797 100.987 42.8018C100.318 43.8066 99.4597 44.6125 98.4129 45.2192C97.3875 45.8052 96.257 46.0982 95.0223 46.0982C93.8292 46.0982 92.8139 45.7846 91.9764 45.1565C91.1604 44.5284 90.5638 43.7225 90.1867 42.7387C89.8101 41.7342 89.7054 40.6562 89.8731 39.505ZM105.198 53.6025L108.872 32.2835H107.93L104.225 53.6025H105.198ZM119.798 39.505C119.987 38.1653 119.903 36.9304 119.547 35.8001C119.191 34.6488 118.574 33.7278 117.694 33.0371C116.836 32.3254 115.737 31.9695 114.398 31.9695C113.414 31.9695 112.514 32.1893 111.698 32.6289C110.881 33.0476 110.159 33.6232 109.531 34.3558C108.924 35.0675 108.411 35.8733 107.993 36.7734C107.595 37.6525 107.323 38.563 107.176 39.505C107.051 40.3841 107.04 41.2632 107.145 42.1423C107.27 43.0217 107.522 43.8272 107.898 44.5599C108.275 45.2927 108.799 45.8893 109.468 46.3496C110.138 46.7894 110.954 47.0088 111.918 47.0088C113.257 47.0299 114.482 46.7053 115.591 46.0356C116.721 45.3659 117.653 44.4553 118.385 43.3042C119.139 42.1528 119.61 40.8864 119.798 39.505ZM118.856 39.505C118.668 40.719 118.239 41.8388 117.569 42.8644C116.92 43.8692 116.093 44.6646 115.089 45.2507C114.105 45.8367 113.027 46.1192 111.855 46.0982C111.038 46.0776 110.337 45.8788 109.751 45.5021C109.186 45.1044 108.715 44.581 108.338 43.9319C107.982 43.2832 107.742 42.5819 107.616 41.8284C107.511 41.0539 107.511 40.2794 107.616 39.505C107.763 38.6677 108.024 37.8618 108.401 37.0874C108.799 36.2919 109.29 35.5803 109.877 34.9523C110.463 34.3244 111.122 33.822 111.855 33.4452C112.587 33.0685 113.362 32.8801 114.178 32.8801C115.35 32.8592 116.313 33.1627 117.067 33.7906C117.82 34.4186 118.344 35.2349 118.637 36.2396C118.951 37.2443 119.024 38.3328 118.856 39.505Z"
    fill="white" />
  <path
    d="M142.895 37.6211C143.02 36.6164 142.989 35.6849 142.801 34.8267C142.633 33.9685 142.256 33.2778 141.67 32.7545C141.105 32.2312 140.299 31.9695 139.253 31.9695C138.227 31.9695 137.316 32.2207 136.521 32.7231C135.726 33.2255 135.045 33.9057 134.48 34.7639C134.355 34.1988 134.135 33.7069 133.821 33.2882C133.528 32.8696 133.13 32.5452 132.628 32.3149C132.146 32.0847 131.56 31.9695 130.869 31.9695C130.283 31.9695 129.739 32.0638 129.237 32.2521C128.734 32.4405 128.274 32.7126 127.855 33.0685C127.458 33.4034 127.091 33.8115 126.756 34.293L127.07 32.2835H124.59L122.078 46.7263H124.59L126.16 37.7781C126.265 37.1083 126.484 36.5222 126.819 36.0199C127.175 35.4965 127.625 35.0884 128.169 34.7953C128.734 34.5023 129.363 34.3558 130.053 34.3558C130.723 34.3558 131.204 34.5232 131.497 34.8581C131.811 35.1721 132 35.6012 132.062 36.1454C132.126 36.6896 132.115 37.2862 132.031 37.9351L130.524 46.7263H132.942L134.48 37.8723C134.585 37.2025 134.805 36.6059 135.139 36.0826C135.496 35.5593 135.945 35.1407 136.49 34.8267C137.055 34.5128 137.693 34.3558 138.405 34.3558C139.075 34.3558 139.556 34.5232 139.849 34.8581C140.163 35.1721 140.352 35.6012 140.414 36.1454C140.498 36.6896 140.498 37.2862 140.414 37.9351L138.845 46.7263H141.356L142.895 37.6211ZM158.997 32.2835L156.579 46.7263H158.871L161.382 32.2835H158.997ZM145.872 39.505C145.684 40.8655 145.799 42.1214 146.218 43.2726C146.636 44.4031 147.306 45.3133 148.227 46.0041C149.169 46.6742 150.32 47.0088 151.681 47.0088C152.644 47.0088 153.523 46.8205 154.318 46.4438C155.135 46.0461 155.846 45.5021 156.453 44.8109C157.06 44.1202 157.563 43.3248 157.96 42.4249C158.358 41.5039 158.63 40.5306 158.777 39.505C158.902 38.5212 158.902 37.5897 158.777 36.7106C158.672 35.8105 158.431 35.0046 158.055 34.293C157.678 33.5813 157.154 33.0161 156.485 32.5975C155.836 32.1789 155.03 31.9695 154.067 31.9695C152.706 31.9486 151.44 32.2731 150.268 32.9429C149.117 33.6127 148.143 34.5232 147.348 35.6744C146.574 36.8048 146.082 38.0816 145.872 39.505ZM148.384 39.505C148.552 38.5212 148.907 37.6316 149.452 36.8362C150.017 36.0407 150.707 35.4233 151.524 34.9837C152.34 34.5232 153.209 34.3034 154.13 34.3244C154.758 34.3453 155.302 34.5023 155.762 34.7953C156.244 35.0675 156.642 35.4442 156.956 35.9256C157.27 36.4071 157.489 36.9513 157.615 37.5583C157.74 38.1653 157.751 38.8142 157.646 39.505C157.521 40.2166 157.28 40.8864 156.924 41.5144C156.589 42.1423 156.171 42.6971 155.668 43.1785C155.166 43.6388 154.611 44.0054 154.004 44.2774C153.418 44.5284 152.811 44.6541 152.183 44.6541C151.262 44.6541 150.488 44.4237 149.86 43.9634C149.253 43.482 148.824 42.8539 148.573 42.0796C148.321 41.2841 148.259 40.426 148.384 39.505ZM167.246 22.2363L163.101 46.7263H165.55L169.789 22.2363H167.246ZM173.117 32.2835L166.084 38.1549L171.359 46.7263H174.342L169.036 38.4374L176.32 32.2835H173.117ZM182.226 47.0404C183.775 47.0404 185.135 46.6948 186.308 46.0041C187.48 45.3133 188.442 44.4342 189.196 43.3668L187.218 42.0796C186.695 42.8329 186.025 43.461 185.209 43.9634C184.413 44.4447 183.524 44.6856 182.54 44.6856C181.661 44.6856 180.938 44.5078 180.373 44.1517C179.808 43.775 179.389 43.2516 179.117 42.5819C178.845 41.9121 178.709 41.1481 178.709 40.2899C178.709 39.4736 178.835 38.6991 179.086 37.9665C179.358 37.2129 179.735 36.5536 180.216 35.9884C180.698 35.4233 181.263 34.9837 181.912 34.6697C182.581 34.3348 183.314 34.1674 184.11 34.1674C184.884 34.1674 185.523 34.3139 186.025 34.6069C186.527 34.9 186.904 35.3186 187.155 35.8628C187.427 36.3862 187.563 37.0246 187.563 37.7781C187.563 38.0711 187.521 38.3642 187.438 38.6572C187.354 38.9293 187.26 39.191 187.155 39.4422L188.128 37.9979H177.767V40.1329H189.792C189.876 39.9654 189.95 39.6934 190.012 39.3166C190.096 38.9398 190.138 38.5944 190.138 38.2804C190.138 36.899 189.897 35.7477 189.416 34.8267C188.934 33.8848 188.254 33.1731 187.375 32.6917C186.517 32.2103 185.481 31.9695 184.266 31.9695C183.115 31.9695 182.048 32.1998 181.064 32.6603C180.101 33.1208 179.253 33.7488 178.521 34.5442C177.809 35.3186 177.244 36.2187 176.825 37.2443C176.427 38.249 176.229 39.3166 176.229 40.4469C176.229 41.8284 176.48 43.0111 176.982 43.9949C177.485 44.9787 178.186 45.732 179.086 46.2555C179.986 46.7789 181.033 47.0404 182.226 47.0404ZM196.825 32.2835H194.345L191.833 46.7263H194.345L196.825 32.2835ZM200.625 35.0151L202.289 33.0057C201.912 32.6498 201.514 32.3882 201.095 32.2207C200.698 32.0533 200.248 31.9695 199.746 31.9695C198.908 31.9695 198.134 32.2626 197.422 32.8487C196.731 33.4348 196.145 34.1779 195.664 35.0779C195.203 35.978 194.879 36.9199 194.691 37.9037H195.852C195.978 37.2967 196.145 36.7211 196.355 36.1768C196.585 35.6326 196.899 35.1826 197.297 34.8267C197.715 34.4709 198.238 34.3034 198.866 34.3244C199.222 34.3244 199.536 34.3871 199.808 34.5128C200.081 34.6383 200.353 34.8058 200.625 35.0151ZM203.921 42.3621L201.881 43.5236C202.153 44.0891 202.551 44.6436 203.074 45.188C203.597 45.732 204.236 46.1823 204.989 46.538C205.764 46.873 206.632 47.0404 207.595 47.0404C208.579 47.0404 209.448 46.8415 210.201 46.4438C210.955 46.0251 211.541 45.4705 211.959 44.7798C212.399 44.0891 212.619 43.3248 212.619 42.4877C212.619 41.6295 212.431 40.9388 212.053 40.4155C211.698 39.8713 211.216 39.4212 210.609 39.0654C210.002 38.7096 209.343 38.3747 208.631 38.0607C208.171 37.8514 207.742 37.642 207.344 37.4327C206.967 37.2234 206.664 36.9827 206.433 36.7106C206.203 36.4175 206.088 36.0826 206.088 35.7058C206.088 35.2244 206.277 34.8372 206.653 34.5442C207.051 34.2511 207.574 34.1046 208.223 34.1046C208.893 34.1046 209.5 34.293 210.044 34.6697C210.609 35.0256 211.091 35.4756 211.488 36.0199L213.341 34.7639C212.901 33.9685 212.252 33.3092 211.394 32.7859C210.536 32.2417 209.531 31.9695 208.38 31.9695C207.605 31.9695 206.852 32.1161 206.119 32.4091C205.408 32.7021 204.822 33.1522 204.361 33.7592C203.901 34.3453 203.67 35.0989 203.67 36.0199C203.67 36.8152 203.859 37.4746 204.236 37.9979C204.612 38.5002 205.083 38.9189 205.649 39.2538C206.214 39.5677 206.768 39.8294 207.312 40.0387C207.752 40.2271 208.192 40.4469 208.631 40.6981C209.071 40.9283 209.437 41.2109 209.73 41.5458C210.023 41.8807 210.17 42.2889 210.17 42.7703C210.17 43.3353 209.95 43.8171 209.51 44.2148C209.071 44.5915 208.495 44.7798 207.783 44.7798C207.197 44.7798 206.664 44.6751 206.182 44.4658C205.701 44.2354 205.272 43.9424 204.895 43.5867C204.539 43.21 204.214 42.8018 203.921 42.3621Z"
    fill="white" />
  <path d="M44.2652 16.35L40.9413 22.4438L35.4012 19.6739L4.37794 12.472L13.102 9.70215L44.2652 16.35Z"
    fill="#E5E5E5" />
  <path d="M33.6573 62.885L35.2627 19.674L40.9409 22.4438L44.3404 16.3501L47.0346 48.4814L33.6573 62.885Z"
    fill="white" />
  <path
    d="M16.2033 26.0744L16.2031 26.0742C15.4247 25.5307 14.7748 24.8111 14.2519 23.9239C14.0868 23.6441 13.9366 23.1414 13.8001 22.6104C13.6569 22.0534 13.5098 21.3833 13.3674 20.7146C13.3243 20.512 13.2817 20.3098 13.2396 20.1104C13.1419 19.6471 13.0474 19.1992 12.9579 18.7986C12.8571 18.348 12.7676 17.9813 12.6925 17.7315L11.142 17.0116C11.1889 17.2799 11.2377 17.5796 11.288 17.8972C11.3522 18.3022 11.4204 18.7483 11.4917 19.2145L11.5079 19.3201C11.5851 19.8251 11.6659 20.3521 11.7495 20.8779C11.9168 21.9312 12.0939 22.9717 12.2731 23.8119C12.3628 24.2323 12.4514 24.5948 12.5375 24.8799C12.6283 25.1805 12.7021 25.3453 12.7455 25.4086L12.7457 25.4089C13.4308 26.4119 14.2871 27.2363 15.3169 27.8864C16.3273 28.5237 17.4968 28.8938 18.8392 28.9873L18.8392 28.9873C20.3216 29.0908 21.7092 28.8402 23.0101 28.2385L23.0102 28.2385C24.317 27.6343 25.3879 26.7757 26.231 25.6592L26.2312 25.659C27.0654 24.5555 27.5318 23.3016 27.6316 21.8844L16.2033 26.0744ZM16.2033 26.0744C17.0044 26.6331 17.9744 26.9413 19.0893 27.0187C20.2776 27.1016 21.3477 26.9248 22.2817 26.4638C23.1918 26.0147 23.9236 25.3958 24.4631 24.606L24.4633 24.6058M16.2033 26.0744L24.4633 24.6058M24.4633 24.6058C24.9953 23.8258 25.3001 22.9887 25.3622 22.0997C25.4368 21.0362 25.2607 20.1102 24.7796 19.3668L24.7795 19.3667M24.4633 24.6058L24.7795 19.3667M24.7795 19.3667C24.332 18.6752 23.7243 18.0847 22.97 17.5912L22.9695 17.5909M24.7795 19.3667L22.9695 17.5909M22.9695 17.5909C22.2509 17.1218 21.4523 16.6547 20.5754 16.1896L20.5754 16.1896M22.9695 17.5909L20.5754 16.1896M20.5754 16.1896L20.5713 16.1875M20.5754 16.1896L20.5713 16.1875M20.5713 16.1875C20.0359 15.9098 19.4579 15.566 18.8387 15.1562L18.8382 15.1559M20.5713 16.1875L18.8382 15.1559M18.8382 15.1559C18.2354 14.7581 17.666 14.2902 17.1299 13.7514C16.6172 13.2361 16.205 12.6227 15.8953 11.9069C15.6 11.2227 15.4762 10.4243 15.5403 9.49732C15.6246 8.29924 16.0056 7.22707 16.685 6.27151L16.6852 6.2713M18.8382 15.1559L16.6852 6.2713M16.6852 6.2713C17.3632 5.31662 18.2772 4.57541 19.4402 4.04763M16.6852 6.2713L19.4402 4.04763M28.3303 9.58541C28.1174 9.0611 27.8568 8.54289 27.5487 8.03098L27.5486 8.03071C27.1167 7.31407 26.5343 6.71414 25.8098 6.23071L25.8095 6.23047C25.0478 5.72311 24.0759 5.44574 22.9272 5.36578L28.3303 9.58541ZM28.3303 9.58541L30.2515 8.72681C29.9676 7.93922 29.5731 7.18431 29.0673 6.4616L28.3303 9.58541ZM20.2895 5.74357L20.2897 5.74351C21.0403 5.41167 21.926 5.29555 22.9269 5.36576L20.2895 5.74357ZM20.2895 5.74357C19.5567 6.06781 18.97 6.53816 18.5499 7.15904L18.5498 7.15919M20.2895 5.74357L18.5498 7.15919M18.5498 7.15919C18.1351 7.7727 17.9039 8.47331 17.8493 9.2479L17.8493 9.24826M18.5498 7.15919L17.8493 9.24826M17.8493 9.24826C17.8068 9.85872 17.8844 10.4457 18.0884 11.0011M17.8493 9.24826L18.0884 11.0011M19.4402 4.04763C20.5893 3.52641 21.9171 3.30934 23.4382 3.41489C24.7924 3.51007 25.9097 3.83825 26.8103 4.38014L19.4402 4.04763ZM18.0884 11.0011C18.2913 11.5564 18.6157 12.0675 19.0495 12.5357C19.4754 12.9965 19.9963 13.4283 20.6062 13.8348C20.6063 13.8349 20.6065 13.8349 20.6066 13.835L20.8839 13.419M18.0884 11.0011L25.169 16.5122L25.4676 16.1112M20.8839 13.419C21.4679 13.809 22.1583 14.1938 22.9557 14.5725M20.8839 13.419C20.2999 13.0297 19.8108 12.6227 19.4167 12.1963L20.8839 13.419ZM22.9557 14.5725L22.7381 15.0226C22.7386 15.0229 22.7391 15.0231 22.7396 15.0234C22.7401 15.0236 22.7407 15.0239 22.7412 15.0241L22.9557 14.5725ZM22.9557 14.5725C23.8 14.9807 24.6375 15.4932 25.4676 16.1112M25.4676 16.1112C26.2974 16.7292 26.9732 17.5052 27.4946 18.438L25.1691 16.5122M25.4676 16.1112L25.1691 16.5122M25.1691 16.5122C25.9403 17.0866 26.5697 17.8083 27.0579 18.6816M25.1691 16.5122L27.0579 18.6816M27.0579 18.6816C27.5188 19.5078 27.7234 20.5647 27.6316 21.8841L27.0579 18.6816ZM26.8108 4.38041C27.7351 4.93806 28.4853 5.63176 29.067 6.46126L26.8108 4.38041Z"
    fill="#023047" stroke="white" />
  <path
    d="M14.6826 23.67C15.1729 24.5018 15.7755 25.1659 16.4893 25.6642C17.2027 26.1618 18.0814 26.4475 19.1241 26.5199C20.2417 26.5979 21.2202 26.4302 22.0605 26.0155C22.8999 25.6012 23.5632 25.037 24.0502 24.324C24.5368 23.6106 24.808 22.8577 24.8634 22.0647C24.9329 21.0736 24.7652 20.2649 24.3598 19.6384C23.9548 19.0127 23.3999 18.4699 22.6962 18.0096C21.9921 17.55 21.2068 17.0905 20.3411 16.6313C19.787 16.344 19.1936 15.9907 18.5627 15.5732C17.9302 15.1557 17.3344 14.6658 16.7755 14.104C16.2161 13.5418 15.7695 12.8753 15.4364 12.1054C15.1038 11.335 14.9728 10.4543 15.0416 9.4625C15.1321 8.1748 15.5435 7.01401 16.2775 5.98176C17.0107 4.9495 17.9965 4.15369 19.2337 3.59229C20.4704 3.03129 21.8834 2.80576 23.473 2.9161C24.8881 3.01553 26.086 3.3607 27.0686 3.952C28.0495 4.54372 28.8526 5.28457 29.4767 6.17454C30.0999 7.06494 30.5647 8.00626 30.869 8.99851L28.0491 10.2587C27.8203 9.59507 27.5112 8.93829 27.1203 8.28878C26.7287 7.63886 26.1992 7.09161 25.5323 6.64662C24.8642 6.20162 23.9843 5.94054 22.8922 5.86455C21.9477 5.79827 21.1482 5.91063 20.4919 6.20081C19.8351 6.49141 19.3258 6.90448 18.9641 7.4392C18.6023 7.97433 18.397 8.58908 18.3481 9.28305C18.3101 9.82787 18.3796 10.344 18.5579 10.829C18.7353 11.3148 19.0219 11.7703 19.4167 12.1963C19.8108 12.6227 20.2999 13.0297 20.8839 13.419C21.4679 13.809 22.1583 14.1938 22.9557 14.5725C23.8 14.9807 24.6375 15.4932 25.4676 16.1112C26.2974 16.7292 26.9732 17.5052 27.4946 18.438C28.0152 19.3712 28.2269 20.5316 28.1303 21.9192C28.024 23.4308 27.5241 24.7779 26.63 25.9605C25.736 27.1443 24.5995 28.0545 23.22 28.6923C21.8402 29.3305 20.3682 29.5952 18.8044 29.4861C17.3882 29.3875 16.1373 28.995 15.05 28.3092C13.9628 27.6229 13.0567 26.7507 12.3328 25.6909C11.6085 24.632 10.8135 17.3087 10.4465 16.1374L13.0991 17.369C13.498 18.4425 14.192 22.8391 14.6826 23.67Z"
    fill="white" stroke="white" stroke-width="2.741" stroke-miterlimit="10" />
  <path d="M33.6763 62.8849L0.5 53.0428L4.24549 12.4719L35.2816 19.602L33.6763 62.8849Z" fill="#BFBFBF" />
</svg>
