<svg width="527" height="463" viewBox="0 0 527 463" fill="none" xmlns="http://www.w3.org/2000/svg">
  <path
    d="M21.593 404.08H178.958C190.679 404.08 200.19 394.569 200.19 382.848V21.4889C200.19 9.76747 190.679 0.256714 178.958 0.256714H21.593C9.87155 0.256714 0.360733 9.76747 0.360733 21.4889V382.848C0.360733 394.569 9.87155 404.08 21.593 404.08Z"
    fill="white" />
  <path
    d="M178.958 404.337H21.593C9.71734 404.337 0.103699 394.672 0.103699 382.848V21.4887C0.103699 9.61309 9.76875 -0.000488281 21.593 -0.000488281H178.958C190.834 -0.000488281 200.447 9.6645 200.447 21.4887V382.848C200.499 394.672 190.834 404.337 178.958 404.337ZM21.593 0.513609C10.0258 0.513609 0.617796 9.92155 0.617796 21.4887V382.848C0.617796 394.415 10.0258 403.823 21.593 403.823H178.958C190.525 403.823 199.933 394.415 199.933 382.848V21.4887C199.933 9.92155 190.525 0.513609 178.958 0.513609H21.593Z"
    fill="#023047" />
  <path
    d="M24.9346 397.808H175.668C185.95 397.808 194.33 389.479 194.33 379.146V25.1389C194.33 14.8569 186.001 6.47717 175.668 6.47717H24.9346C14.6527 6.47717 6.27287 14.8055 6.27287 25.1389V379.146C6.27287 389.428 14.6013 397.808 24.9346 397.808Z"
    fill="#023047" />
  <path
    d="M171.504 13.7773H149.089C148.729 20.8719 142.868 26.4756 135.722 26.4756H63.9545C56.8086 26.4756 50.9479 20.8719 50.588 13.7773H28.122C19.7422 13.7773 13.0076 20.5634 13.0076 28.8918V376.267C13.0076 384.647 19.7936 391.382 28.122 391.382H171.504C179.883 391.382 186.618 384.595 186.618 376.267V28.8918C186.669 20.5634 179.883 13.7773 171.504 13.7773Z"
    fill="white" />
  <path d="M108.475 15.2682H81.7423V18.8669H108.475V15.2682Z" fill="white" />
  <path
    d="M115.416 19.8949C116.977 19.8949 118.243 18.629 118.243 17.0674C118.243 15.5058 116.977 14.2399 115.416 14.2399C113.854 14.2399 112.588 15.5058 112.588 17.0674C112.588 18.629 113.854 19.8949 115.416 19.8949Z"
    fill="white" />
  <path
    d="M51.4619 123.486L56.7572 141.068L158.291 145.952L147.65 200.137H74.3907V204.662H136.442V205.947H74.4935C64.1601 209.288 65.394 219.159 65.8053 221.524H145.85V222.809H64.7771L64.6743 222.295C64.6229 222.141 61.6411 209.443 73.1055 205.021V199.572L50.5367 124.771H29.253V123.486H51.4619ZM151.762 172.53L140.144 172.428L138.807 184.149H149.5L151.762 172.53ZM96.1884 184.149H109.349V172.119L95.5201 172.016L96.1884 184.149ZM94.2349 172.016L81.074 171.914L82.3077 184.2H94.9031L94.2349 172.016ZM110.686 172.171V184.2H123.795L124.412 172.325L110.686 172.171ZM124.464 170.988L125.132 157.57L110.635 157.416V170.834L124.464 170.988ZM109.349 170.834V157.416L94.749 157.262L95.4687 170.68L109.349 170.834ZM109.349 156.131V144.872L94.0806 144.152L94.6975 155.977L109.349 156.131ZM110.686 156.131L125.235 156.285L125.8 145.695L110.686 144.975V156.131ZM126.52 156.285L140.658 156.388L141.789 146.414L127.086 145.695L126.52 156.285ZM126.469 157.57L125.8 170.988L139.013 171.091L140.555 157.673L126.469 157.57ZM140.298 171.091L152.019 171.194L154.641 157.827L141.789 157.724L140.298 171.091ZM138.858 172.428L125.698 172.325L125.081 184.2H137.522L138.858 172.428ZM125.029 185.434L124.361 198.801H135.877L137.419 185.434H125.029ZM123.744 185.434H110.686V198.801H123.076L123.744 185.434ZM109.349 185.434H96.2398L96.9595 198.801H109.349V185.434ZM94.9546 185.434H82.4107L83.7472 198.801H95.6743L94.9546 185.434ZM81.1254 185.434H70.1751L74.2364 198.801H82.462L81.1254 185.434ZM80.9712 184.149L79.7373 171.862L66.0109 171.759L69.7638 184.149H80.9712ZM65.6511 170.474L79.6345 170.577L78.2979 157.159L61.5897 157.005L65.6511 170.474ZM80.9197 170.577L94.1834 170.68L93.4637 157.262L79.5831 157.159L80.9197 170.577ZM93.4123 155.977L92.7954 144.101L78.2464 143.381L79.4802 155.874L93.4123 155.977ZM143.074 146.517L141.943 156.439L154.898 156.542L156.749 147.185L143.074 146.517ZM149.243 185.434H138.653L137.111 198.801H146.57L149.243 185.434ZM61.1784 155.668L78.1436 155.822L76.9097 143.278L57.1685 142.353L61.1784 155.668Z"
    fill="#023047" />
  <path
    d="M133.82 223.015C137.47 223.015 140.504 225.997 140.504 229.698C140.504 233.4 137.522 236.381 133.82 236.381C130.17 236.381 127.137 233.4 127.137 229.698C127.137 225.997 130.17 223.015 133.82 223.015ZM133.82 234.068C136.237 234.068 138.19 232.114 138.19 229.698C138.19 227.282 136.237 225.328 133.82 225.328C131.404 225.328 129.451 227.282 129.451 229.698C129.451 232.114 131.404 234.068 133.82 234.068Z"
    fill="#023047" />
  <path
    d="M74.545 223.22C78.1951 223.22 81.2283 226.202 81.2283 229.904C81.2283 233.554 78.2465 236.587 74.545 236.587C70.8949 236.587 67.8617 233.605 67.8617 229.904C67.9131 226.202 70.8949 223.22 74.545 223.22ZM74.545 234.222C76.9612 234.222 78.9148 232.269 78.9148 229.852C78.9148 227.436 76.9612 225.482 74.545 225.482C72.1287 225.482 70.1752 227.436 70.1752 229.852C70.1752 232.269 72.1287 234.222 74.545 234.222Z"
    fill="#023047" />
  <path
    d="M99.2216 114.54C118.046 114.54 133.306 99.28 133.306 80.4556C133.306 61.6312 118.046 46.371 99.2216 46.371C80.3972 46.371 65.1369 61.6312 65.1369 80.4556C65.1369 99.28 80.3972 114.54 99.2216 114.54Z"
    fill="#219EBC" />
  <path
    d="M99.2216 114.746C80.3028 114.746 64.8799 99.3744 64.8799 80.4043C64.8799 61.4341 80.2514 46.0626 99.2216 46.0626C118.192 46.0626 133.563 61.4341 133.563 80.4043C133.563 99.3744 118.14 114.746 99.2216 114.746ZM99.2216 46.6281C80.5599 46.6281 65.394 61.794 65.394 80.4557C65.394 99.1174 80.5599 114.283 99.2216 114.283C117.883 114.283 133.049 99.1174 133.049 80.4557C133.049 61.794 117.832 46.6281 99.2216 46.6281Z"
    fill="#023047" />
  <path
    d="M93.3609 96.9583L76.3957 80.5072C75.2133 79.3247 75.1619 77.4226 76.3443 76.2401C77.5268 75.0577 79.429 75.0063 80.6114 76.1887L93.4123 88.5785L117.883 65.0329C119.066 63.9018 120.968 63.9018 122.15 65.1357C123.281 66.3181 123.281 68.2203 122.048 69.4027L93.3609 96.9583Z"
    fill="white" />
  <path d="M361.771 1.64465H244.968V47.9134H361.771V1.64465Z" fill="white" />
  <path d="M362.028 48.1704H244.711V1.38757H362.028V48.1704ZM245.225 47.6563H361.514V1.90167H245.225V47.6563Z"
    fill="#023047" />
  <path
    d="M260.751 24.779C265.294 24.779 268.976 21.0963 268.976 16.5534C268.976 12.0106 265.294 8.32788 260.751 8.32788C256.208 8.32788 252.525 12.0106 252.525 16.5534C252.525 21.0963 256.208 24.779 260.751 24.779Z"
    fill="#FFB703" />
  <path
    d="M260.751 25.0359C256.073 25.0359 252.268 21.2316 252.268 16.5533C252.268 11.875 256.073 8.07068 260.751 8.07068C265.429 8.07068 269.234 11.875 269.234 16.5533C269.234 21.2316 265.429 25.0359 260.751 25.0359ZM260.751 8.53338C256.33 8.53338 252.782 12.1321 252.782 16.5019C252.782 20.8717 256.381 24.4704 260.751 24.4704C265.121 24.4704 268.719 20.8717 268.719 16.5019C268.719 12.1321 265.172 8.53338 260.751 8.53338Z"
    fill="#023047" />
  <path
    d="M279.515 12.1322L280.955 15.0111L284.194 15.4738L281.88 17.7359L282.394 20.9232L279.515 19.4324L276.688 20.9232L277.202 17.7359L274.889 15.4738L278.127 15.0111L279.515 12.1322Z"
    fill="#FFB703" />
  <path
    d="M282.754 21.386L279.567 19.6895L276.379 21.386L276.996 17.8387L274.426 15.3196L278.025 14.8055L279.618 11.5668L281.212 14.8055L284.811 15.3196L282.24 17.8387L282.754 21.386ZM275.454 15.6795L277.511 17.6845L277.048 20.512L279.567 19.1754L282.086 20.512L281.623 17.6845L283.68 15.6795L280.852 15.2682L279.567 12.6978L278.282 15.2682L275.454 15.6795Z"
    fill="#023047" />
  <path
    d="M293.756 12.1322L295.195 15.0111L298.383 15.4738L296.069 17.7359L296.584 20.9232L293.756 19.4324L290.877 20.9232L291.443 17.7359L289.129 15.4738L292.316 15.0111L293.756 12.1322Z"
    fill="#FFB703" />
  <path
    d="M290.517 21.386L291.134 17.8387L288.564 15.3196L292.162 14.8055L293.756 11.5668L295.35 14.8055L298.948 15.3196L296.378 17.8387L296.995 21.386L293.807 19.6895L290.517 21.386ZM293.756 19.124L296.275 20.4606L295.812 17.6331L297.869 15.6281L295.041 15.2168L293.756 12.6464L292.471 15.2168L289.643 15.6281L291.7 17.6331L291.237 20.4606L293.756 19.124Z"
    fill="#023047" />
  <path
    d="M307.945 12.1322L309.385 15.0111L312.572 15.4738L310.258 17.7359L310.824 20.9232L307.945 19.4324L305.066 20.9232L305.631 17.7359L303.318 15.4738L306.506 15.0111L307.945 12.1322Z"
    fill="#FFB703" />
  <path
    d="M304.758 21.386L305.374 17.8387L302.804 15.3196L306.403 14.8055L307.996 11.5668L309.59 14.8055L313.189 15.3196L310.618 17.8387L311.235 21.386L308.048 19.6895L304.758 21.386ZM307.945 19.124L310.464 20.4606L310.001 17.6331L312.058 15.6281L309.23 15.2168L307.945 12.6464L306.66 15.2168L303.832 15.6281L305.889 17.6331L305.426 20.4606L307.945 19.124Z"
    fill="#023047" />
  <path
    d="M321.671 12.1322L323.111 15.0111L326.298 15.4738L323.985 17.7359L324.55 20.9232L321.671 19.4324L318.844 20.9232L319.358 17.7359L317.045 15.4738L320.232 15.0111L321.671 12.1322Z"
    fill="#FFB703" />
  <path
    d="M318.484 21.386L319.101 17.8387L316.53 15.3196L320.129 14.8055L321.723 11.5668L323.317 14.8055L326.915 15.3196L324.345 17.8387L324.962 21.386L321.774 19.6895L318.484 21.386ZM321.671 19.124L324.19 20.4606L323.728 17.6331L325.784 15.6281L322.957 15.2168L321.671 12.6464L320.386 15.2168L317.559 15.6281L319.615 17.6331L319.152 20.4606L321.671 19.124Z"
    fill="#023047" />
  <path
    d="M335.449 12.1322L336.837 15.0111L340.076 15.4738L337.763 17.7359L338.277 20.9232L335.449 19.4324L332.57 20.9232L333.136 17.7359L330.822 15.4738L334.01 15.0111L335.449 12.1322Z"
    fill="#FFB703" />
  <path
    d="M338.637 21.386L335.449 19.6895L332.262 21.386L332.879 17.8387L330.308 15.3196L333.907 14.8055L335.501 11.5668L337.094 14.8055L340.693 15.3196L338.122 17.8387L338.637 21.386ZM331.336 15.6795L333.393 17.6845L332.93 20.512L335.449 19.1754L337.968 20.512L337.505 17.6845L339.562 15.6795L336.734 15.2682L335.449 12.6978L334.164 15.2682L331.336 15.6795Z"
    fill="#023047" />
  <path d="M353.957 38.2998H252.268V41.9499H353.957V38.2998Z" fill="#8ECAE6" />
  <path d="M354.265 42.2069H252.063V38.0427H354.265V42.2069ZM252.525 41.6928H353.7V38.5568H252.525V41.6928Z"
    fill="#023047" />
  <path d="M302.907 29.8171H252.525V33.4672H302.907V29.8171Z" fill="#8ECAE6" />
  <path d="M303.164 33.7244H252.268V29.5602H303.164V33.7244ZM252.782 33.2103H302.65V30.0743H252.782V33.2103Z"
    fill="#023047" />
  <path
    d="M474.806 244.409L524.622 279.573C526.627 281.013 527.141 283.789 525.702 285.794L472.75 360.801C471.31 362.806 468.534 363.32 466.529 361.88L416.713 326.716C414.708 325.276 414.194 322.5 415.633 320.495L468.585 245.489C469.974 243.484 472.801 242.969 474.806 244.409Z"
    fill="white" />
  <path
    d="M469.048 362.96C468.071 362.96 467.146 362.651 466.324 362.086L416.508 326.921C415.479 326.202 414.811 325.122 414.554 323.888C414.348 322.654 414.605 321.369 415.325 320.341L468.277 245.334C468.997 244.306 470.076 243.638 471.31 243.381C472.544 243.175 473.829 243.432 474.858 244.152L524.674 279.316C525.702 280.036 526.37 281.115 526.627 282.349C526.833 283.583 526.576 284.868 525.856 285.897L472.904 360.903C472.184 361.931 471.105 362.6 469.871 362.857C469.614 362.908 469.305 362.96 469.048 362.96ZM472.236 243.843C471.979 243.843 471.773 243.843 471.516 243.895C470.385 244.1 469.459 244.717 468.791 245.591L415.839 320.598C415.171 321.523 414.914 322.654 415.119 323.734C415.325 324.865 415.942 325.79 416.816 326.459L466.632 361.623C468.534 362.96 471.156 362.497 472.493 360.595L525.445 285.588C526.113 284.663 526.37 283.532 526.164 282.452C525.959 281.321 525.342 280.396 524.468 279.727L474.652 244.563C473.932 244.1 473.11 243.843 472.236 243.843Z"
    fill="#023047" />
  <path d="M480.938 248.806L422.838 331.129L432.456 337.917L490.556 255.594L480.938 248.806Z" fill="#FFB703" />
  <path
    d="M432.599 338.283L422.574 331.188L422.728 330.983L480.924 248.419L490.949 255.513L490.795 255.719L432.599 338.283ZM423.242 331.034L432.445 337.512L490.229 255.616L481.027 249.139L423.242 331.034Z"
    fill="#023047" />
  <path d="M488.69 254.256L430.59 336.579L441.636 344.375L499.736 262.052L488.69 254.256Z" fill="#023047" />
  <path
    d="M439.282 335.867C440.207 336.535 441.441 336.278 442.109 335.404L453.831 318.799C454.499 317.873 454.242 316.64 453.317 315.971C452.391 315.303 451.157 315.56 450.489 316.485L438.768 333.091C438.151 333.965 438.357 335.198 439.282 335.867Z"
    fill="white" />
  <path
    d="M440.413 336.484C439.95 336.484 439.488 336.329 439.076 336.072C438.048 335.353 437.791 333.913 438.511 332.885L450.232 316.28C450.592 315.765 451.106 315.457 451.723 315.354C452.34 315.251 452.957 315.406 453.42 315.765C454.448 316.485 454.705 317.925 453.985 318.953L442.264 335.558C441.904 336.072 441.39 336.381 440.773 336.484C440.67 336.484 440.567 336.484 440.413 336.484ZM452.134 315.817C452.032 315.817 451.929 315.817 451.826 315.868C451.363 315.971 450.952 316.228 450.695 316.588L438.974 333.193C438.408 334.016 438.614 335.095 439.385 335.661C440.207 336.226 441.287 336.021 441.852 335.25L453.574 318.644C454.139 317.822 453.934 316.742 453.163 316.177C452.854 315.971 452.494 315.817 452.134 315.817Z"
    fill="#023047" />
  <path
    d="M458.149 309.082C459.075 309.751 460.309 309.494 460.977 308.62L472.698 292.014C473.367 291.089 473.11 289.855 472.236 289.187C471.31 288.519 470.076 288.776 469.408 289.65L457.687 306.255C457.018 307.18 457.224 308.465 458.149 309.082Z"
    fill="white" />
  <path
    d="M459.332 309.699C458.869 309.699 458.406 309.545 457.995 309.288C456.967 308.568 456.71 307.129 457.43 306.101L469.151 289.495C469.511 288.981 470.025 288.673 470.642 288.57C471.259 288.467 471.876 288.621 472.338 288.981C473.367 289.701 473.624 291.14 472.904 292.169L461.183 308.774C460.771 309.391 460.052 309.699 459.332 309.699ZM458.304 308.877C459.126 309.442 460.206 309.237 460.771 308.465L472.493 291.86C473.058 291.038 472.852 289.958 472.081 289.392C471.259 288.827 470.179 289.033 469.614 289.804L457.892 306.409C457.327 307.18 457.532 308.311 458.304 308.877Z"
    fill="#023047" />
  <path
    d="M480.509 282.357C481.164 281.43 480.942 280.147 480.014 279.492C479.087 278.837 477.803 279.058 477.149 279.986C476.494 280.914 476.715 282.197 477.643 282.852C478.571 283.507 479.854 283.285 480.509 282.357Z"
    fill="white" />
  <path
    d="M478.867 283.429C478.405 283.429 477.942 283.275 477.531 283.018C476.503 282.298 476.245 280.858 476.965 279.83C477.325 279.316 477.839 279.008 478.456 278.905C479.073 278.802 479.69 278.956 480.153 279.316C481.181 280.036 481.438 281.475 480.718 282.504C480.307 283.069 479.587 283.429 478.867 283.429ZM478.919 279.368C478.353 279.368 477.788 279.625 477.479 280.139C476.914 280.961 477.12 282.041 477.891 282.606C478.713 283.172 479.793 282.966 480.358 282.195C480.615 281.784 480.718 281.321 480.667 280.858C480.564 280.396 480.307 279.985 479.947 279.727C479.587 279.47 479.227 279.368 478.919 279.368Z"
    fill="#023047" />
  <path
    d="M484.273 277.052C484.928 276.124 484.707 274.841 483.779 274.186C482.851 273.531 481.568 273.752 480.913 274.68C480.258 275.608 480.479 276.891 481.407 277.546C482.335 278.201 483.618 277.98 484.273 277.052Z"
    fill="white" />
  <path
    d="M482.62 278.082C482.157 278.082 481.695 277.928 481.284 277.671C480.77 277.311 480.461 276.797 480.358 276.18C480.255 275.563 480.41 274.946 480.77 274.483C481.129 273.969 481.644 273.661 482.26 273.558C482.877 273.455 483.494 273.61 483.957 273.969C484.985 274.689 485.242 276.129 484.522 277.157C484.06 277.774 483.34 278.082 482.62 278.082ZM482.62 274.021C482.517 274.021 482.415 274.021 482.312 274.072C481.849 274.175 481.438 274.432 481.181 274.792C480.615 275.615 480.821 276.694 481.592 277.26C482.415 277.825 483.494 277.62 484.06 276.848C484.625 276.026 484.42 274.946 483.648 274.381C483.34 274.124 483.031 274.021 482.62 274.021Z"
    fill="#023047" />
  <path
    d="M487.995 271.717C488.65 270.789 488.429 269.506 487.501 268.851C486.573 268.196 485.29 268.417 484.635 269.345C483.98 270.273 484.202 271.556 485.13 272.211C486.057 272.866 487.34 272.645 487.995 271.717Z"
    fill="white" />
  <path
    d="M486.373 272.787C485.911 272.787 485.448 272.633 485.037 272.376C484.008 271.656 483.751 270.217 484.471 269.189C485.191 268.16 486.63 267.903 487.659 268.623C488.173 268.983 488.481 269.497 488.584 270.114C488.687 270.731 488.533 271.348 488.173 271.81C487.813 272.325 487.299 272.633 486.682 272.736C486.63 272.787 486.528 272.787 486.373 272.787ZM486.373 268.726C485.808 268.726 485.242 268.983 484.934 269.497C484.368 270.32 484.574 271.399 485.345 271.965C485.756 272.222 486.219 272.325 486.682 272.273C487.145 272.17 487.556 271.913 487.813 271.553C488.07 271.142 488.173 270.679 488.121 270.217C488.018 269.754 487.761 269.343 487.402 269.086C487.093 268.829 486.733 268.726 486.373 268.726Z"
    fill="#023047" />
  <path
    d="M491.76 266.411C492.414 265.483 492.193 264.2 491.265 263.546C490.337 262.891 489.054 263.112 488.399 264.04C487.745 264.968 487.966 266.251 488.894 266.906C489.822 267.561 491.105 267.339 491.76 266.411Z"
    fill="white" />
  <path
    d="M490.126 267.492C489.664 267.492 489.201 267.338 488.79 267.081C487.761 266.361 487.505 264.921 488.224 263.893C488.944 262.865 490.383 262.608 491.411 263.328C492.44 264.047 492.697 265.487 491.977 266.515C491.566 267.132 490.846 267.492 490.126 267.492ZM490.126 263.431C489.561 263.431 488.995 263.688 488.687 264.202C488.121 265.024 488.327 266.104 489.098 266.669C489.921 267.235 491 267.029 491.566 266.258C492.131 265.436 491.926 264.356 491.154 263.79C490.846 263.533 490.486 263.431 490.126 263.431Z"
    fill="#023047" />
  <path
    d="M502.558 300.881C505.276 297.03 504.357 291.705 500.507 288.988C496.656 286.27 491.331 287.188 488.614 291.039C485.896 294.89 486.814 300.215 490.665 302.932C494.516 305.65 499.841 304.731 502.558 300.881Z"
    fill="#FFB703" />
  <path
    d="M495.627 304.713C493.879 304.713 492.131 304.199 490.589 303.119C486.63 300.343 485.705 294.842 488.481 290.883C491.257 286.925 496.758 285.999 500.717 288.776C504.675 291.552 505.601 297.053 502.825 301.011C501.128 303.427 498.403 304.713 495.627 304.713ZM495.627 287.645C493.005 287.645 490.486 288.878 488.841 291.14C486.219 294.893 487.093 300.034 490.846 302.656C494.599 305.278 499.74 304.404 502.362 300.651C504.984 296.898 504.11 291.757 500.357 289.135C498.969 288.159 497.272 287.645 495.627 287.645Z"
    fill="#023047" />
  <path
    d="M508.198 292.886C510.916 289.036 509.998 283.711 506.147 280.993C502.296 278.276 496.972 279.194 494.254 283.045C491.536 286.896 492.455 292.22 496.305 294.938C500.156 297.656 505.481 296.737 508.198 292.886Z"
    fill="#8ECAE6" />
  <path
    d="M501.231 296.744C499.431 296.744 497.684 296.179 496.193 295.15C492.234 292.374 491.309 286.873 494.085 282.915C496.861 278.956 502.362 278.031 506.32 280.807C510.279 283.583 511.204 289.084 508.428 293.043C507.091 294.945 505.035 296.23 502.722 296.641C502.259 296.693 501.745 296.744 501.231 296.744ZM501.282 279.676C498.66 279.676 496.141 280.91 494.496 283.172C491.874 286.925 492.748 292.066 496.501 294.688C498.3 295.973 500.511 296.436 502.67 296.076C504.829 295.716 506.732 294.482 508.017 292.683C510.639 288.93 509.765 283.789 506.012 281.167C504.572 280.19 502.927 279.676 501.282 279.676Z"
    fill="#023047" />
  <path
    d="M458.047 337.872C458.972 338.54 460.206 338.283 460.874 337.409L479.639 310.83C480.307 309.905 480.05 308.671 479.176 308.003C478.251 307.334 477.017 307.592 476.348 308.465L457.584 335.044C456.916 335.97 457.173 337.203 458.047 337.872Z"
    fill="white" />
  <path
    d="M459.229 338.489C458.766 338.489 458.304 338.334 457.892 338.077C457.378 337.718 457.07 337.203 456.967 336.587C456.864 335.97 457.018 335.353 457.378 334.89L476.143 308.311C476.862 307.283 478.302 307.026 479.33 307.746C480.358 308.465 480.615 309.905 479.896 310.933L461.131 337.512C460.668 338.18 459.948 338.489 459.229 338.489ZM458.201 337.666C459.023 338.232 460.103 338.026 460.668 337.255L479.433 310.676C479.998 309.853 479.793 308.774 479.021 308.208C478.61 307.951 478.148 307.849 477.685 307.9C477.222 308.003 476.811 308.26 476.554 308.62L457.789 335.199C457.224 335.97 457.429 337.101 458.201 337.666Z"
    fill="#023047" />
  <path
    d="M463.393 341.625C464.318 342.293 465.552 342.036 466.221 341.162L484.985 314.583C485.653 313.658 485.396 312.424 484.471 311.755C483.546 311.087 482.312 311.344 481.643 312.218L462.879 338.797C462.262 339.722 462.468 340.956 463.393 341.625Z"
    fill="white" />
  <path
    d="M464.524 342.242C464.062 342.242 463.599 342.087 463.188 341.83C462.159 341.11 461.902 339.671 462.622 338.643L481.386 312.064C482.106 311.036 483.546 310.779 484.574 311.499C485.602 312.218 485.859 313.658 485.14 314.686L466.375 341.265C466.015 341.779 465.501 342.087 464.884 342.19C464.833 342.241 464.678 342.242 464.524 342.242ZM483.289 311.601C483.186 311.601 483.083 311.601 482.98 311.653C482.518 311.756 482.106 312.013 481.849 312.373L463.085 338.951C462.519 339.774 462.725 340.853 463.496 341.419C463.907 341.676 464.37 341.779 464.833 341.727C465.295 341.676 465.707 341.368 465.964 341.008L484.728 314.429C485.294 313.606 485.088 312.527 484.317 311.961C484.008 311.756 483.649 311.601 483.289 311.601Z"
    fill="#023047" />
  <path
    d="M468.688 345.378C469.614 346.046 470.848 345.789 471.516 344.915L490.281 318.336C490.949 317.411 490.692 316.177 489.818 315.508C488.892 314.84 487.658 315.097 486.99 316.023L468.226 342.601C467.557 343.475 467.763 344.709 468.688 345.378Z"
    fill="white" />
  <path
    d="M469.871 345.995C469.408 345.995 468.945 345.84 468.534 345.583C468.02 345.223 467.712 344.709 467.609 344.092C467.506 343.476 467.66 342.859 468.02 342.396L486.784 315.817C487.144 315.303 487.658 314.995 488.275 314.892C488.892 314.789 489.509 314.943 489.972 315.303C490.486 315.663 490.794 316.177 490.897 316.794C491 317.411 490.846 318.028 490.486 318.49L471.721 345.069C471.362 345.583 470.848 345.892 470.231 345.995C470.128 345.995 469.973 345.995 469.871 345.995ZM488.635 315.354C488.532 315.354 488.43 315.354 488.327 315.406C487.864 315.509 487.453 315.766 487.196 316.126L468.431 342.704C468.174 343.116 468.071 343.578 468.123 344.041C468.226 344.504 468.483 344.915 468.842 345.172C469.254 345.429 469.717 345.532 470.179 345.481C470.642 345.378 471.053 345.121 471.31 344.761L490.075 318.182C490.332 317.771 490.435 317.308 490.383 316.845C490.28 316.383 490.023 315.971 489.663 315.714C489.304 315.509 488.995 315.354 488.635 315.354Z"
    fill="#023047" />
  <path d="M431.828 284.046L435.58 338.643H398.103V284.046H431.828Z" fill="#FB8500" />
  <path d="M435.889 338.9H397.846V283.789H432.085L435.889 338.9ZM398.36 338.386H435.323L431.622 284.303H398.36V338.386Z"
    fill="#023047" />
  <path d="M399.594 283.994L402.318 338.643H387.358L390.289 283.994H399.594Z" fill="#023047" />
  <path
    d="M402.576 338.9H387.101L390.083 283.737H399.851V283.994L402.576 338.9ZM387.615 338.386H402.01L399.337 284.251H390.546L387.615 338.386Z"
    fill="#023047" />
  <path
    d="M420.62 299.623C420.466 299.623 420.363 299.623 420.26 299.623C412.755 299.211 411.469 292.888 411.264 291.603C411.161 290.986 411.11 290.42 411.007 289.906C410.184 284.045 409.876 282.4 407.974 282.555C406.38 282.709 405.763 284.148 405.763 284.148L405.3 283.943C405.352 283.891 406.02 282.195 407.922 282.041C410.39 281.784 410.75 284.148 411.521 289.803C411.572 290.369 411.675 290.934 411.778 291.5C411.932 292.682 413.166 298.697 420.26 299.057C421.134 299.109 422.779 299.006 424.065 297.875C425.144 296.898 425.71 295.407 425.813 293.402C425.967 290.832 425.196 284.251 423.191 283.12C422.625 282.812 422.111 282.76 421.7 282.914C421.031 283.223 420.775 284.046 420.775 284.097L420.26 283.943C420.26 283.891 420.569 282.812 421.494 282.452C422.06 282.195 422.677 282.298 423.396 282.709C425.761 283.994 426.43 290.934 426.275 293.453C426.173 295.613 425.504 297.206 424.373 298.286C423.191 299.417 421.649 299.623 420.62 299.623Z"
    fill="#023047" />
  <path d="M439.231 306.614H411.007L413.166 338.643H447.405L439.231 306.614Z" fill="#8ECAE6" />
  <path
    d="M447.765 338.9H412.909L410.75 306.357H439.436L447.765 338.9ZM413.372 338.386H447.045L439.025 306.872H411.264L413.372 338.386Z"
    fill="#023047" />
  <path d="M407.974 306.563H412.035L419.9 338.643H408.796L407.974 306.563Z" fill="#023047" />
  <path
    d="M420.26 338.9H408.59L407.716 306.306H412.24L420.26 338.9ZM409.053 338.386H419.592L411.829 306.82H408.231L409.053 338.386Z"
    fill="#023047" />
  <path
    d="M429.874 317.565H429.823C427.304 317.565 425.453 316.125 424.168 313.195L421.443 306.717C421.443 306.717 420.62 305.021 419.284 305.329C418.101 305.586 417.844 306.666 417.844 306.666L417.33 306.563C417.33 306.511 417.638 305.123 419.129 304.815C420.826 304.455 421.803 306.409 421.854 306.511L424.579 312.989C426.172 316.588 428.28 316.999 429.771 317.05H429.823C434.295 317.05 434.398 313.606 434.501 311.601C434.501 311.447 434.501 311.293 434.501 311.138C434.758 306.511 433.318 305.792 432.856 305.689C431.159 305.278 430.645 306.769 430.594 306.82L430.131 306.666C430.131 306.666 430.851 304.609 433.01 305.175C433.73 305.329 435.272 306.306 435.015 311.19C435.015 311.344 435.015 311.498 435.015 311.652C434.964 313.657 434.809 317.565 429.874 317.565Z"
    fill="#023047" />
  <path d="M387.358 339.003L386.998 338.694L394.556 329.543V284.046H395.07V329.749L387.358 339.003Z" fill="white" />
  <path d="M394.792 329.484L394.402 329.819L401.93 338.6L402.32 338.266L394.792 329.484Z" fill="white" />
  <path
    d="M409.104 338.591L408.693 338.283L412.806 331.702L409.927 306.563L410.39 306.512L413.372 331.805L409.104 338.591Z"
    fill="white" />
  <path d="M413.264 331.681L412.9 332.044L419.589 338.733L419.953 338.369L413.264 331.681Z" fill="white" />
  <path d="M463.856 338.489H373.478V408.817H463.856V338.489Z" fill="#023047" />
  <path d="M479.382 338.489H396.766V408.817H479.382V338.489Z" fill="#FFB703" />
  <path d="M479.639 409.074H396.509V338.232H479.639V409.074ZM397.023 408.56H479.125V338.746H397.023V408.56Z"
    fill="#023047" />
  <path d="M451.106 338.489V356.019L445.965 353.14L441.955 355.814L437.174 353.14L432.804 356.019V338.489H451.106Z"
    fill="#023047" />
  <path d="M432.804 373.036H413.731V374.064H432.804V373.036Z" fill="#023047" />
  <path d="M432.804 380.49H413.731V381.518H432.804V380.49Z" fill="#023047" />
  <path d="M432.804 387.893H413.731V388.922H432.804V387.893Z" fill="#023047" />
  <path d="M469.203 371.442H438.305V390.721H469.203V371.442Z" fill="white" />
  <path d="M469.46 390.978H438.048V371.185H469.46V390.978ZM438.562 390.464H468.946V371.699H438.562V390.464Z"
    fill="#023047" />
  <path
    d="M339.804 297.155L347.567 322.911L496.347 330.057L480.77 409.485H373.375V416.169H464.267V418.071H373.529C358.415 422.955 360.162 437.452 360.831 440.897H478.096V442.799H359.34L359.134 442.079C359.083 441.874 354.662 423.263 371.473 416.786V408.714L338.416 299.109H307.262V297.207H339.804V297.155ZM486.785 369.026L469.768 368.872L467.814 386.094H483.443L486.785 369.026ZM405.352 386.094H424.63V368.512L404.375 368.306L405.352 386.094ZM402.473 368.255L383.143 368.101L384.942 386.094H403.398L402.473 368.255ZM426.532 368.461V386.043H445.76L446.685 368.615L426.532 368.461ZM446.736 366.764L447.765 347.125L426.532 346.92V366.558L446.736 366.764ZM424.63 366.558V346.92L403.244 346.714L404.272 366.404L424.63 366.558ZM424.63 345.018V328.567L402.216 327.487L403.141 344.863L424.63 345.018ZM426.532 345.018L447.868 345.223L448.69 329.698L426.532 328.618V345.018ZM449.77 345.223L470.488 345.429L472.133 330.829L450.541 329.8L449.77 345.223ZM449.667 347.125L448.639 366.764L468.02 366.918L470.231 347.28L449.667 347.125ZM469.922 366.97L487.093 367.124L490.949 347.485L472.133 347.331L469.922 366.97ZM467.814 368.872L448.536 368.718L447.662 386.094H465.861L467.814 368.872ZM447.559 387.996L446.531 407.583H463.393L465.604 387.996H447.559ZM445.657 387.996H426.532V407.583H444.68L445.657 387.996ZM424.63 387.996H405.455L406.483 407.583H424.63V387.996ZM403.501 387.996H385.096L387.05 407.583H404.529L403.501 387.996ZM383.194 387.996H367.154L373.066 407.583H385.096L383.194 387.996ZM383.04 386.094L381.241 368.101L361.139 367.946L366.64 386.145H383.04V386.094ZM360.574 365.993L381.086 366.199L379.133 346.509L354.662 346.303L360.574 365.993ZM382.988 366.199L402.37 366.353L401.342 346.663L381.035 346.457L382.988 366.199ZM401.239 344.812L400.314 327.384L379.03 326.356L380.829 344.606L401.239 344.812ZM474.035 330.88L472.39 345.429L491.36 345.583L494.033 331.857L474.035 330.88ZM483.032 387.996H467.557L465.347 407.583H479.227L483.032 387.996ZM354.045 344.349L378.927 344.555L377.128 326.202L348.184 324.814L354.045 344.349Z"
    fill="#023047" />
  <path
    d="M460.463 443.056C465.861 443.056 470.231 447.426 470.231 452.824C470.231 458.222 465.861 462.592 460.463 462.592C455.065 462.592 450.695 458.222 450.695 452.824C450.695 447.426 455.065 443.056 460.463 443.056ZM460.463 459.25C464.01 459.25 466.889 456.371 466.889 452.824C466.889 449.276 464.01 446.398 460.463 446.398C456.916 446.398 454.037 449.276 454.037 452.824C454.037 456.371 456.916 459.25 460.463 459.25Z"
    fill="#023047" />
  <path
    d="M373.58 443.262C378.979 443.262 383.348 447.631 383.348 453.029C383.348 458.427 378.979 462.797 373.58 462.797C368.182 462.797 363.813 458.427 363.813 453.029C363.813 447.631 368.234 443.262 373.58 443.262ZM373.58 459.456C377.128 459.456 380.007 456.577 380.007 453.029C380.007 449.482 377.128 446.603 373.58 446.603C370.033 446.603 367.154 449.482 367.154 453.029C367.154 456.577 370.085 459.456 373.58 459.456Z"
    fill="#023047" />
  <path d="M316.464 294.688H289.217V301.371H316.464V294.688Z" fill="#023047" />
  <path
    d="M299.705 273.867L306.388 277.979L314.922 279.522C316.31 279.522 317.544 280.293 318.109 281.578L322.582 291.295C322.993 292.169 322.582 293.248 321.708 293.608L315.128 296.487H305.36C305.36 296.487 304.846 293.916 307.93 291.86L301.761 290.626L287.109 286.154L299.705 273.867Z"
    fill="#FFB703" />
  <path
    d="M315.179 296.744H305.154L305.103 296.538C305.103 296.436 304.64 294.071 307.313 292.014L301.71 290.883L286.595 286.256L299.653 273.558L306.491 277.774L314.973 279.316C316.362 279.316 317.698 280.19 318.315 281.475L322.788 291.192C322.993 291.706 323.045 292.22 322.839 292.734C322.633 293.248 322.273 293.659 321.759 293.865L315.179 296.744ZM305.565 296.23H315.025L321.554 293.351C321.914 293.197 322.222 292.888 322.325 292.528C322.479 292.169 322.428 291.757 322.273 291.397L317.801 281.681C317.287 280.55 316.104 279.779 314.871 279.779L306.182 278.185L299.653 274.175L287.52 285.999L301.761 290.369L308.496 291.757L307.982 292.117C305.668 293.659 305.565 295.613 305.565 296.23Z"
    fill="#023047" />
  <path
    d="M241.612 213.203L264.232 240.964L306.388 273.867L300.219 285.177L247.781 253.303L231.33 226.57L241.612 213.203Z"
    fill="#023047" />
  <path
    d="M240.995 218.653L256.366 204.464C256.366 204.464 270.195 212.895 275.285 189.658C275.285 189.658 279.244 177.628 267.162 173.669C260.068 170.996 252.099 173.823 248.346 180.404L223.001 208.114L240.995 218.653Z"
    fill="#FFB703" />
  <path
    d="M241.046 218.961L222.642 208.114L222.847 207.857L248.192 180.147C252.048 173.463 260.068 170.584 267.317 173.361C279.449 177.319 275.594 189.555 275.594 189.657C273.743 198.14 270.504 203.384 265.98 205.337C261.559 207.24 257.343 205.183 256.469 204.721L241.046 218.961ZM223.413 208.011L240.943 218.344L256.315 204.155L256.469 204.258C256.52 204.309 261.045 206.983 265.723 204.978C270.093 203.127 273.177 197.934 275.028 189.657C275.182 189.143 278.781 177.782 267.111 173.978C260.119 171.304 252.305 174.08 248.603 180.558L248.552 180.609L223.413 208.011Z"
    fill="#023047" />
  <path
    d="M249.066 150.38C252.768 152.334 256.366 157.732 254.875 165.289C254.875 165.289 254.567 165.958 254.104 167.037C256.006 166.369 257.857 166.266 259.451 166.472C278.73 168.939 276.93 185.339 276.93 185.339L259.039 182.46C257.908 180.095 255.544 179.684 254.516 180.404C250.711 183.128 252.151 188.886 252.151 188.886L241.2 188.372C241.303 178.604 246.547 173.258 247.472 172.024C243.874 172.538 236.933 172.692 232.821 166.729C231.535 164.827 231.073 161.125 232.306 157.629C234.209 152.385 240.326 145.754 249.066 150.38Z"
    fill="#023047" />
  <path
    d="M281.094 448.968L243.771 462.129L237.705 446.192L233.952 436.27L251.688 429.535L254.464 436.835L256.469 442.079C256.469 442.13 276.056 443.005 281.094 448.968Z"
    fill="#FB8500" />
  <path
    d="M243.617 462.489L233.643 436.116L251.894 429.227L256.675 441.874C258.731 441.976 276.468 443.056 281.3 448.814L281.557 449.122L243.617 462.489ZM234.26 436.424L243.874 461.821L280.632 448.865C275.388 443.313 256.623 442.388 256.418 442.388H256.263L251.534 429.895L234.26 436.424Z"
    fill="#023047" />
  <path d="M254.464 436.835L237.705 446.192L233.952 436.27L251.688 429.535L254.464 436.835Z" fill="#023047" />
  <path
    d="M67.3328 352.523L57.2052 356.276L49.3394 359.207L51.3958 341.727L61.4207 337.769L65.482 336.175L67.3328 352.523Z"
    fill="#FFB703" />
  <path
    d="M49.0309 359.618L51.1388 341.573L65.6878 335.815L67.5899 352.729L49.0309 359.618ZM51.6529 341.933L49.648 358.847L67.0758 352.369L65.3279 336.535L51.6529 341.933Z"
    fill="#023047" />
  <path
    d="M67.3328 352.523L57.2052 356.276C58.3876 348.873 60.2383 341.83 61.3693 337.769L65.482 336.124L67.3328 352.523Z"
    fill="#023047" />
  <path
    d="M328.391 302.348L321.811 305.227H312.043C312.043 305.227 311.529 302.656 314.613 300.6L308.444 299.366L305 298.286L293.793 294.842L305.36 284.149L311.066 287.645L312.043 288.261H321.605C322.993 288.261 324.227 289.033 324.793 290.318L329.265 300.034C329.728 300.908 329.317 301.936 328.391 302.348Z"
    fill="#FFB703" />
  <path
    d="M321.862 305.484H311.837L311.786 305.278C311.786 305.175 311.323 302.81 313.996 300.754L308.393 299.623L293.278 294.996L305.308 283.84L312.094 288.004H321.605C323.045 288.004 324.381 288.878 324.998 290.215L329.471 299.931C329.676 300.446 329.728 300.96 329.522 301.474C329.317 301.988 328.957 302.399 328.443 302.605L321.862 305.484ZM312.249 304.97H321.708L328.237 302.091C328.597 301.936 328.905 301.628 329.008 301.268C329.111 300.908 329.162 300.497 328.957 300.137L324.484 290.421C323.97 289.29 322.788 288.518 321.554 288.518H311.889L305.308 284.457L294.204 294.739L308.444 299.109L315.179 300.497L314.665 300.857C312.352 302.399 312.249 304.353 312.249 304.97Z"
    fill="#023047" />
  <path
    d="M254.875 433.339L229.17 443.261L192.361 352.163L153.136 299.263L142.134 284.405L158.225 270.679L173.545 257.518L186.552 246.414L199.97 278.339L225.675 339.311L254.875 433.339Z"
    fill="#8ECAE6" />
  <path
    d="M229.016 443.57L228.913 443.313L192.155 352.215L141.774 284.303L186.603 245.951L225.88 339.157L255.184 433.442L254.978 433.545L229.016 443.57ZM142.494 284.457L192.618 352.061L229.325 442.953L254.567 433.185L225.418 339.362L186.449 246.825L142.494 284.457Z"
    fill="#023047" />
  <path d="M311.066 287.645L305 298.286L293.793 294.842L305.36 284.149L311.066 287.645Z" fill="#023047" />
  <path
    d="M186.552 265.127L174.882 277.054L153.136 299.263L106.507 346.92L60.341 365.581C60.084 354.066 63.2715 336.381 63.2715 336.381L91.2898 320.598L136.016 255.153L145.578 241.17L173.494 257.518L186.552 265.127Z"
    fill="#8ECAE6" />
  <path
    d="M60.1355 365.941V365.581C59.8785 354.168 63.0144 336.484 63.0659 336.329V336.227L63.1686 336.175L91.1356 320.444L145.527 240.862L186.912 265.076L106.61 347.125L60.1355 365.941ZM63.5286 336.535C63.2716 338.077 60.4954 354.323 60.6496 365.17L106.404 346.663L186.141 265.178L145.733 241.53L136.273 255.359L91.4954 320.855L91.444 320.906L63.5286 336.535Z"
    fill="#023047" />
  <path
    d="M199.97 278.339C191.076 279.727 182.593 279.008 174.882 277.003C168.867 275.46 163.263 273.198 158.225 270.628C148.612 265.692 140.952 259.575 136.068 255.153L145.63 241.17L173.545 257.518L186.5 246.414L199.97 278.339Z"
    fill="#023047" />
  <path
    d="M260.993 250.218L246.342 223.125C245.725 216.288 245.21 216.391 245.21 216.391C230.867 208.576 231.792 195.929 231.792 195.929L217.449 193.462C205.676 193.616 201.666 198.037 195.497 202.201L138.895 245.797C138.895 245.797 157.3 262.556 168.61 268.212C187.529 277.671 199.507 274.843 199.507 274.843L222.847 248.984L235.648 268.88L297.134 303.633L310.501 285.125L260.993 250.218Z"
    fill="#219EBC" />
  <path
    d="M297.186 304.044L296.98 303.941L235.443 269.137L235.391 269.086L222.744 249.447L199.61 275.101H199.507C199.404 275.152 187.22 277.825 168.404 268.417C157.197 262.814 138.792 246.157 138.587 245.951L138.381 245.746L138.638 245.54L195.24 201.944C196.217 201.276 197.091 200.659 197.965 199.991C202.746 196.547 207.27 193.308 217.295 193.153L231.947 195.673V195.93C231.947 196.032 231.227 208.422 245.159 216.082L245.262 216.185C245.673 216.493 246.084 218.807 246.444 223.022L261.044 250.064L310.706 285.125L297.186 304.044ZM235.854 268.726L297.083 303.324L310.141 285.228L260.787 250.424L260.736 250.372L246.033 223.228V223.177C245.57 217.727 245.108 216.802 245.005 216.648C231.741 209.399 231.381 197.986 231.433 196.187L217.295 193.77C207.476 193.925 203.003 197.112 198.325 200.505C197.451 201.122 196.525 201.79 195.6 202.459L139.255 245.848C141.414 247.802 158.225 262.762 168.713 268.006C186.552 276.951 198.325 274.843 199.353 274.638L222.847 248.625L235.854 268.726Z"
    fill="#023047" />
  <path
    d="M44.3527 362.497C36.23 344.401 51.036 334.838 51.1902 334.736L51.4472 335.147C51.293 335.25 36.8982 344.606 44.8153 362.291L44.3527 362.497Z"
    fill="#023047" />
  <path
    d="M57.0509 370.62C50.8303 370.62 47.7971 367.689 47.6429 367.535L48.0027 367.175C48.0541 367.227 52.6811 371.699 62.3461 369.437L62.4489 369.951C60.4439 370.414 58.6446 370.62 57.0509 370.62Z"
    fill="#023047" />
  <path
    d="M31.8087 362.137C30.3692 350.416 32.3743 341.213 37.6695 334.839C44.1985 326.973 53.555 326.253 53.6578 326.253L53.7093 326.767C53.6064 326.767 44.4556 327.487 38.0808 335.199C32.8884 341.471 30.9348 350.519 32.3742 362.086L31.8087 362.137Z"
    fill="#023047" />
  <path
    d="M53.5037 384.603C39.7773 384.603 34.7905 372.83 34.7391 372.676L35.2018 372.47C35.2532 372.573 40.5998 385.117 55.4058 383.986L55.4571 384.5C54.7888 384.603 54.1206 384.603 53.5037 384.603Z"
    fill="#023047" />
  <path d="M209.49 226.882L209.054 227.156L222.943 249.273L223.378 249L209.49 226.882Z" fill="#023047" />
</svg>
