<svg width="215" height="64" viewBox="0 0 215 64" fill="none" xmlns="http://www.w3.org/2000/svg">
<path d="M62.5473 42.4237L61.7313 42.8004C61.8149 43.4701 62.0243 44.1293 62.359 44.7784C62.694 45.4065 63.1754 45.919 63.8035 46.3167C64.4312 46.7144 65.2371 46.9133 66.2208 46.9133C67.0793 46.9133 67.8537 46.7354 68.5444 46.3797C69.2562 46.0237 69.8317 45.5423 70.2711 44.9352C70.7108 44.3075 70.9618 43.5958 71.0249 42.8004C71.1085 42.0259 70.9828 41.3874 70.6478 40.8851C70.3131 40.3827 69.8629 39.9641 69.2978 39.6291C68.7538 39.2942 68.1572 39.0012 67.5081 38.75C66.9011 38.5407 66.3465 38.3105 65.8442 38.0593C65.3628 37.7872 64.9861 37.4523 64.7137 37.0545C64.4627 36.6359 64.3685 36.0917 64.4312 35.4219C64.5569 34.5846 64.9441 33.9357 65.5932 33.4753C66.2419 32.9938 67.0058 32.7531 67.8848 32.7531C68.8686 32.7741 69.6119 33.0461 70.1143 33.5694C70.6377 34.0718 71.0354 34.6788 71.3074 35.3905L72.0608 34.9509C71.7888 34.1137 71.3284 33.402 70.6793 32.8159C70.0306 32.2298 69.12 31.9263 67.9479 31.9054C67.2361 31.9054 66.5559 32.0519 65.9068 32.3449C65.2581 32.617 64.7137 33.0252 64.2743 33.5694C63.8556 34.0927 63.6046 34.7416 63.5206 35.5161C63.4369 36.3324 63.5416 36.9918 63.8346 37.4941C64.1486 37.9965 64.5779 38.4047 65.1219 38.7186C65.6873 39.0326 66.294 39.3047 66.9431 39.535C67.5292 39.7443 68.0732 39.9955 68.5756 40.2885C69.078 40.5606 69.4757 40.906 69.7687 41.3246C70.0617 41.7223 70.1664 42.2351 70.0827 42.863C69.9781 43.8052 69.5698 44.5795 68.8585 45.1866C68.1467 45.7727 67.2988 46.0657 66.315 46.0657C65.478 46.0447 64.7977 45.8668 64.2743 45.5318C63.7509 45.1761 63.3532 44.7259 63.0812 44.1818C62.8298 43.6168 62.652 43.0308 62.5473 42.4237ZM79.4588 22.1407H78.517L74.3096 46.6307H75.2517L79.4588 22.1407ZM84.9846 36.9604L83.2895 46.6307H84.2313L85.9583 36.8662C86.063 35.9661 86.021 35.1393 85.8326 34.3858C85.6653 33.6322 85.3092 33.0252 84.7652 32.5647C84.2208 32.1042 83.4464 31.874 82.4416 31.874C81.3952 31.874 80.453 32.1566 79.616 32.7217C78.7785 33.2869 78.0878 34.0195 77.5438 34.9195C76.9994 35.8196 76.6122 36.7825 76.3818 37.8081H76.7589C76.9678 36.9708 77.3134 36.165 77.7948 35.3905C78.2972 34.616 78.9253 33.9881 79.6786 33.5067C80.432 33.0043 81.2695 32.7636 82.1906 32.7845C83.0487 32.7845 83.6872 32.9833 84.1056 33.381C84.5453 33.7788 84.8278 34.2916 84.9535 34.9195C85.0792 35.5266 85.0893 36.2068 84.9846 36.9604ZM89.431 39.4094C89.2636 40.7281 89.3994 41.963 89.8392 43.1144C90.2789 44.2445 90.9798 45.1656 91.9429 45.8774C92.9057 46.5681 94.0778 46.9133 95.4592 46.9133C96.8617 46.9133 98.149 46.5786 99.3211 45.9085C100.514 45.2388 101.498 44.3282 102.272 43.1771C103.068 42.0259 103.56 40.7699 103.748 39.4094C103.937 38.0907 103.801 36.8662 103.34 35.7359C102.9 34.5846 102.199 33.6532 101.237 32.9415C100.274 32.2298 99.1013 31.874 97.7198 31.874C96.3177 31.874 95.0199 32.2194 93.8268 32.9101C92.6337 33.5799 91.6499 34.4904 90.8755 35.6417C90.1007 36.772 89.6193 38.0279 89.431 39.4094ZM90.3731 39.4094C90.5615 38.1953 91.0008 37.086 91.6915 36.0813C92.3823 35.0765 93.2407 34.2811 94.2661 33.695C95.2919 33.088 96.4119 32.7845 97.6256 32.7845C98.8398 32.7845 99.855 33.0985 100.671 33.7264C101.509 34.3544 102.105 35.1707 102.461 36.1754C102.838 37.1592 102.953 38.2372 102.806 39.4094C102.618 40.6025 102.178 41.7014 101.487 42.7062C100.818 43.711 99.9597 44.5169 98.9129 45.1236C97.8875 45.7096 96.757 46.0026 95.5223 46.0026C94.3292 46.0026 93.3139 45.689 92.4764 45.0609C91.6604 44.4328 91.0638 43.6269 90.6867 42.6431C90.3101 41.6386 90.2054 40.5606 90.3731 39.4094ZM105.698 53.507L109.372 32.188H108.43L104.725 53.507H105.698ZM120.298 39.4094C120.487 38.0698 120.403 36.8348 120.047 35.7045C119.691 34.5532 119.074 33.6322 118.194 32.9415C117.336 32.2298 116.237 31.874 114.898 31.874C113.914 31.874 113.014 32.0937 112.198 32.5333C111.381 32.952 110.659 33.5276 110.031 34.2602C109.424 34.9719 108.911 35.7777 108.493 36.6778C108.095 37.5569 107.823 38.4675 107.676 39.4094C107.551 40.2885 107.54 41.1676 107.645 42.0467C107.77 42.9261 108.022 43.7316 108.398 44.4644C108.775 45.1971 109.299 45.7937 109.968 46.254C110.638 46.6938 111.454 46.9133 112.418 46.9133C113.757 46.9343 114.982 46.6097 116.091 45.94C117.221 45.2703 118.153 44.3597 118.885 43.2086C119.639 42.0572 120.11 40.7909 120.298 39.4094ZM119.356 39.4094C119.168 40.6234 118.739 41.7433 118.069 42.7688C117.42 43.7736 116.593 44.569 115.589 45.1551C114.605 45.7411 113.527 46.0237 112.355 46.0026C111.538 45.982 110.837 45.7832 110.251 45.4065C109.686 45.0088 109.215 44.4854 108.838 43.8363C108.482 43.1876 108.242 42.4863 108.116 41.7328C108.011 40.9583 108.011 40.1838 108.116 39.4094C108.263 38.5721 108.524 37.7663 108.901 36.9918C109.299 36.1964 109.79 35.4847 110.377 34.8567C110.963 34.2288 111.622 33.7264 112.355 33.3496C113.087 32.9729 113.862 32.7845 114.678 32.7845C115.85 32.7636 116.813 33.0671 117.567 33.695C118.32 34.323 118.844 35.1393 119.137 36.144C119.451 37.1488 119.524 38.2372 119.356 39.4094Z" fill="#023047"/>
<path d="M143.395 37.5255C143.52 36.5208 143.489 35.5893 143.301 34.7311C143.133 33.873 142.756 33.1822 142.17 32.6589C141.605 32.1356 140.799 31.874 139.753 31.874C138.727 31.874 137.816 32.1252 137.021 32.6275C136.226 33.1299 135.545 33.8102 134.98 34.6683C134.855 34.1032 134.635 33.6113 134.321 33.1927C134.028 32.7741 133.63 32.4496 133.128 32.2194C132.646 31.9891 132.06 31.874 131.369 31.874C130.783 31.874 130.239 31.9682 129.737 32.1566C129.234 32.3449 128.774 32.617 128.355 32.9729C127.958 33.3078 127.591 33.7159 127.256 34.1974L127.57 32.188H125.09L122.578 46.6307H125.09L126.66 37.6825C126.765 37.0127 126.984 36.4266 127.319 35.9243C127.675 35.4009 128.125 34.9928 128.669 34.6997C129.234 34.4067 129.863 34.2602 130.553 34.2602C131.223 34.2602 131.704 34.4277 131.997 34.7626C132.311 35.0765 132.5 35.5056 132.562 36.0498C132.626 36.5941 132.615 37.1906 132.531 37.8395L131.024 46.6307H133.442L134.98 37.7767C135.085 37.1069 135.305 36.5103 135.639 35.987C135.996 35.4638 136.445 35.0451 136.99 34.7311C137.555 34.4172 138.193 34.2602 138.905 34.2602C139.575 34.2602 140.056 34.4277 140.349 34.7626C140.663 35.0765 140.852 35.5056 140.914 36.0498C140.998 36.5941 140.998 37.1906 140.914 37.8395L139.345 46.6307H141.856L143.395 37.5255ZM159.497 32.188L157.079 46.6307H159.371L161.882 32.188H159.497ZM146.372 39.4094C146.184 40.7699 146.299 42.0259 146.718 43.1771C147.136 44.3075 147.806 45.2177 148.727 45.9085C149.669 46.5786 150.82 46.9133 152.181 46.9133C153.144 46.9133 154.023 46.7249 154.818 46.3482C155.635 45.9505 156.346 45.4065 156.953 44.7154C157.56 44.0246 158.063 43.2292 158.46 42.3293C158.858 41.4084 159.13 40.435 159.277 39.4094C159.402 38.4256 159.402 37.4941 159.277 36.615C159.172 35.7149 158.931 34.9091 158.555 34.1974C158.178 33.4857 157.654 32.9206 156.985 32.5019C156.336 32.0833 155.53 31.874 154.567 31.874C153.206 31.8531 151.94 32.1775 150.768 32.8473C149.617 33.5171 148.643 34.4277 147.848 35.5789C147.074 36.7092 146.582 37.986 146.372 39.4094ZM148.884 39.4094C149.052 38.4256 149.407 37.536 149.952 36.7406C150.517 35.9452 151.207 35.3277 152.024 34.8881C152.84 34.4277 153.709 34.2079 154.63 34.2288C155.258 34.2497 155.802 34.4067 156.262 34.6997C156.744 34.9719 157.142 35.3486 157.456 35.8301C157.77 36.3115 157.989 36.8557 158.115 37.4627C158.24 38.0698 158.251 38.7186 158.146 39.4094C158.021 40.1211 157.78 40.7909 157.424 41.4188C157.089 42.0467 156.671 42.6015 156.168 43.0829C155.666 43.5432 155.111 43.9098 154.504 44.1818C153.918 44.4328 153.311 44.5585 152.683 44.5585C151.762 44.5585 150.988 44.3282 150.36 43.8678C149.753 43.3864 149.324 42.7583 149.073 41.984C148.821 41.1886 148.759 40.3304 148.884 39.4094ZM167.746 22.1407L163.601 46.6307H166.05L170.289 22.1407H167.746ZM173.617 32.188L166.584 38.0593L171.859 46.6307H174.842L169.536 38.3418L176.82 32.188H173.617ZM182.726 46.9448C184.275 46.9448 185.635 46.5992 186.808 45.9085C187.98 45.2177 188.942 44.3387 189.696 43.2712L187.718 41.984C187.195 42.7373 186.525 43.3654 185.709 43.8678C184.913 44.3492 184.024 44.5901 183.04 44.5901C182.161 44.5901 181.438 44.4122 180.873 44.0561C180.308 43.6795 179.889 43.156 179.617 42.4863C179.345 41.8165 179.209 41.0525 179.209 40.1943C179.209 39.378 179.335 38.6035 179.586 37.8709C179.858 37.1174 180.235 36.458 180.716 35.8929C181.198 35.3277 181.763 34.8881 182.412 34.5742C183.081 34.2393 183.814 34.0718 184.61 34.0718C185.384 34.0718 186.023 34.2183 186.525 34.5114C187.027 34.8044 187.404 35.223 187.655 35.7673C187.927 36.2906 188.063 36.929 188.063 37.6825C188.063 37.9755 188.021 38.2686 187.938 38.5616C187.854 38.8338 187.76 39.0954 187.655 39.3466L188.628 37.9023H178.267V40.0373H190.292C190.376 39.8699 190.45 39.5978 190.512 39.221C190.596 38.8442 190.638 38.4989 190.638 38.1849C190.638 36.8034 190.397 35.6521 189.916 34.7311C189.434 33.7892 188.754 33.0775 187.875 32.5961C187.017 32.1147 185.981 31.874 184.766 31.874C183.615 31.874 182.548 32.1042 181.564 32.5647C180.601 33.0252 179.753 33.6532 179.021 34.4486C178.309 35.223 177.744 36.1231 177.325 37.1488C176.927 38.1535 176.729 39.221 176.729 40.3513C176.729 41.7328 176.98 42.9156 177.482 43.8993C177.985 44.8831 178.686 45.6365 179.586 46.1599C180.486 46.6833 181.533 46.9448 182.726 46.9448ZM197.325 32.188H194.845L192.333 46.6307H194.845L197.325 32.188ZM201.125 34.9195L202.789 32.9101C202.412 32.5543 202.014 32.2926 201.595 32.1252C201.198 31.9577 200.748 31.874 200.246 31.874C199.408 31.874 198.634 32.167 197.922 32.7531C197.231 33.3392 196.645 34.0823 196.164 34.9823C195.703 35.8824 195.379 36.8243 195.191 37.8081H196.352C196.478 37.2011 196.645 36.6255 196.855 36.0813C197.085 35.537 197.399 35.087 197.797 34.7311C198.215 34.3753 198.738 34.2079 199.366 34.2288C199.722 34.2288 200.036 34.2916 200.308 34.4172C200.581 34.5428 200.853 34.7102 201.125 34.9195ZM204.421 42.2665L202.381 43.4281C202.653 43.9935 203.051 44.548 203.574 45.0924C204.097 45.6365 204.736 46.0867 205.489 46.4424C206.264 46.7775 207.132 46.9448 208.095 46.9448C209.079 46.9448 209.948 46.7459 210.701 46.3482C211.455 45.9295 212.041 45.375 212.459 44.6842C212.899 43.9935 213.119 43.2292 213.119 42.3922C213.119 41.5339 212.931 40.8432 212.553 40.3199C212.198 39.7757 211.716 39.3256 211.109 38.9698C210.502 38.614 209.843 38.2791 209.131 37.9651C208.671 37.7558 208.242 37.5465 207.844 37.3371C207.467 37.1278 207.164 36.8871 206.933 36.615C206.703 36.3219 206.588 35.987 206.588 35.6103C206.588 35.1289 206.777 34.7416 207.153 34.4486C207.551 34.1555 208.074 34.009 208.723 34.009C209.393 34.009 210 34.1974 210.544 34.5742C211.109 34.93 211.591 35.38 211.988 35.9243L213.841 34.6683C213.401 33.873 212.752 33.2136 211.894 32.6903C211.036 32.1461 210.031 31.874 208.88 31.874C208.105 31.874 207.352 32.0205 206.619 32.3135C205.908 32.6066 205.322 33.0566 204.861 33.6636C204.401 34.2497 204.17 35.0033 204.17 35.9243C204.17 36.7196 204.359 37.379 204.736 37.9023C205.112 38.4047 205.583 38.8233 206.149 39.1582C206.714 39.4722 207.268 39.7338 207.812 39.9431C208.252 40.1315 208.692 40.3513 209.131 40.6025C209.571 40.8327 209.937 41.1153 210.23 41.4502C210.523 41.7851 210.67 42.1933 210.67 42.6747C210.67 43.2397 210.45 43.7215 210.01 44.1192C209.571 44.4959 208.995 44.6842 208.283 44.6842C207.697 44.6842 207.164 44.5795 206.682 44.3702C206.201 44.1398 205.772 43.8468 205.395 43.4911C205.039 43.1144 204.714 42.7062 204.421 42.2665Z" fill="#023047"/>
<path d="M44.7652 16.2543L41.4413 22.3481L35.9012 19.5783L4.87794 12.3763L13.602 9.60648L44.7652 16.2543Z" fill="#8ECAE6"/>
<path d="M34.1573 62.7892L35.7627 19.5783L41.4409 22.3481L44.8404 16.2543L47.5346 48.3856L34.1573 62.7892Z" fill="#023047"/>
<path d="M15.1826 23.5743C15.6729 24.4061 16.2755 25.0701 16.9893 25.5685C17.7027 26.066 18.5814 26.3518 19.6241 26.4241C20.7417 26.5021 21.7202 26.3344 22.5605 25.9197C23.3999 25.5054 24.0632 24.9412 24.5502 24.2282C25.0368 23.5149 25.308 22.7619 25.3634 21.9689C25.4329 20.9779 25.2652 20.1691 24.8598 19.5426C24.4548 18.917 23.8999 18.3742 23.1962 17.9138C22.4921 17.4543 21.7068 16.9947 20.8411 16.5356C20.287 16.2482 19.6936 15.895 19.0627 15.4775C18.4302 15.0599 17.8344 14.5701 17.2755 14.0083C16.7161 13.4461 16.2695 12.7796 15.9364 12.0096C15.6038 11.2393 15.4728 10.3586 15.5416 9.36674C15.6321 8.07904 16.0435 6.91825 16.7775 5.886C17.5107 4.85374 18.4965 4.05792 19.7337 3.49652C20.9704 2.93553 22.3834 2.71 23.973 2.82034C25.3881 2.91977 26.586 3.26493 27.5686 3.85624C28.5495 4.44795 29.3526 5.1888 29.9767 6.07878C30.5999 6.96917 31.0647 7.91049 31.369 8.90274L28.5491 10.163C28.3203 9.49931 28.0112 8.84252 27.6203 8.19301C27.2287 7.5431 26.6992 6.99585 26.0323 6.55085C25.3642 6.10586 24.4843 5.84477 23.3922 5.76879C22.4477 5.70251 21.6482 5.81487 20.9919 6.10505C20.3351 6.39565 19.8258 6.80871 19.4641 7.34344C19.1023 7.87856 18.897 8.49331 18.8481 9.18728C18.8101 9.73211 18.8796 10.2482 19.0579 10.7333C19.2353 11.2191 19.5219 11.6746 19.9167 12.1006C20.3108 12.527 20.7999 12.934 21.3839 13.3232C21.9679 13.7132 22.6583 14.098 23.4557 14.4767C24.3 14.8849 25.1375 15.3974 25.9676 16.0154C26.7974 16.6334 27.4732 17.4094 27.9946 18.3422C28.5152 19.2755 28.7269 20.4359 28.6303 21.8234C28.524 23.335 28.0241 24.6821 27.13 25.8647C26.236 27.0486 25.0995 27.9588 23.72 28.5966C22.3402 29.2347 20.8682 29.4995 19.3044 29.3904C17.8882 29.2917 16.6373 28.8993 15.55 28.2134C14.4628 27.5271 13.5567 26.6549 12.8328 25.5952C12.1085 24.5362 11.3135 17.213 10.9465 16.0417L13.5991 17.2732C13.998 18.3467 14.692 22.7433 15.1826 23.5743Z" fill="#023047"/>
<path d="M15.1826 23.5743C15.6729 24.4061 16.2755 25.0701 16.9893 25.5685C17.7027 26.066 18.5814 26.3518 19.6241 26.4241C20.7417 26.5021 21.7202 26.3344 22.5605 25.9197C23.3999 25.5054 24.0632 24.9412 24.5502 24.2282C25.0368 23.5149 25.308 22.7619 25.3634 21.9689C25.4329 20.9779 25.2652 20.1691 24.8598 19.5426C24.4548 18.917 23.8999 18.3742 23.1962 17.9138C22.4921 17.4543 21.7068 16.9947 20.8411 16.5356C20.287 16.2482 19.6936 15.895 19.0627 15.4775C18.4302 15.0599 17.8344 14.5701 17.2755 14.0083C16.7161 13.4461 16.2695 12.7796 15.9364 12.0096C15.6038 11.2393 15.4728 10.3586 15.5416 9.36674C15.6321 8.07904 16.0435 6.91825 16.7775 5.886C17.5107 4.85374 18.4965 4.05792 19.7337 3.49652C20.9704 2.93553 22.3834 2.71 23.973 2.82034C25.3881 2.91977 26.586 3.26493 27.5686 3.85624C28.5495 4.44795 29.3526 5.1888 29.9767 6.07878C30.5999 6.96917 31.0647 7.91049 31.369 8.90274L28.5491 10.163C28.3203 9.49931 28.0112 8.84252 27.6203 8.19301C27.2287 7.5431 26.6992 6.99585 26.0323 6.55085C25.3642 6.10586 24.4843 5.84477 23.3922 5.76879C22.4477 5.70251 21.6482 5.81487 20.9919 6.10505C20.3351 6.39565 19.8258 6.80871 19.4641 7.34344C19.1023 7.87857 18.897 8.49331 18.8481 9.18728C18.8101 9.73211 18.8796 10.2482 19.0579 10.7333C19.2353 11.2191 19.5219 11.6746 19.9167 12.1006C20.3108 12.527 20.7999 12.934 21.3839 13.3232C21.9679 13.7132 22.6583 14.098 23.4557 14.4767C24.3 14.8849 25.1375 15.3974 25.9676 16.0154C26.7974 16.6334 27.4732 17.4094 27.9946 18.3422C28.5152 19.2755 28.7269 20.4359 28.6303 21.8234C28.524 23.335 28.0241 24.6821 27.13 25.8647C26.236 27.0486 25.0995 27.9588 23.72 28.5966C22.3402 29.2347 20.8682 29.4995 19.3044 29.3904C17.8882 29.2917 16.6373 28.8993 15.55 28.2134C14.4628 27.5271 13.5567 26.6549 12.8328 25.5952C12.1085 24.5362 11.3135 17.213 10.9465 16.0417L13.5991 17.2732C13.998 18.3467 14.692 22.7433 15.1826 23.5743Z" stroke="#023047" stroke-width="2.741" stroke-miterlimit="10"/>
<path d="M34.1763 62.7892L1 52.9472L4.74549 12.3763L35.7816 19.5063L34.1763 62.7892Z" fill="#FB8500"/>
</svg>
