<svg width="116" height="151" viewBox="0 0 116 151" fill="none" xmlns="http://www.w3.org/2000/svg">
<path d="M108.283 35.3054L100.059 50.3824L86.3517 43.5294L9.59473 25.7104L31.1797 18.8574L108.283 35.3054Z" fill="#8ECAE6"/>
<path d="M82.0371 150.441L86.0091 43.5294L100.058 50.3824L108.469 35.3054L115.135 114.804L82.0371 150.441Z" fill="#023047"/>
<path d="M35.0904 53.4163C36.3034 55.4743 37.7944 57.1173 39.5604 58.3503C41.3254 59.5813 43.4994 60.2883 46.0794 60.4673C48.8444 60.6603 51.2654 60.2453 53.3444 59.2193C55.4214 58.1943 57.0624 56.7983 58.2674 55.0343C59.4714 53.2693 60.1424 51.4063 60.2794 49.4443C60.4514 46.9923 60.0364 44.9913 59.0334 43.4413C58.0314 41.8933 56.6584 40.5503 54.9174 39.4113C53.1754 38.2743 51.2324 37.1373 49.0904 36.0013C47.7194 35.2903 46.2514 34.4163 44.6904 33.3833C43.1254 32.3503 41.6514 31.1383 40.2684 29.7483C38.8844 28.3573 37.7794 26.7083 36.9554 24.8033C36.1324 22.8973 35.8084 20.7183 35.9784 18.2643C36.2024 15.0783 37.2204 12.2063 39.0364 9.65227C40.8504 7.09827 43.2894 5.12927 46.3504 3.74027C49.4104 2.35227 52.9064 1.79427 56.8394 2.06727C60.3404 2.31327 63.3044 3.16727 65.7354 4.63027C68.1624 6.09427 70.1494 7.92727 71.6934 10.1293C73.2354 12.3323 74.3854 14.6613 75.1384 17.1163L68.1614 20.2343C67.5954 18.5923 66.8304 16.9673 65.8634 15.3603C64.8944 13.7523 63.5844 12.3983 61.9344 11.2973C60.2814 10.1963 58.1044 9.55027 55.4024 9.36227C53.0654 9.19827 51.0874 9.47627 49.4634 10.1943C47.8384 10.9133 46.5784 11.9353 45.6834 13.2583C44.7884 14.5823 44.2804 16.1033 44.1594 17.8203C44.0654 19.1683 44.2374 20.4453 44.6784 21.6453C45.1174 22.8473 45.8264 23.9743 46.8034 25.0283C47.7784 26.0833 48.9884 27.0903 50.4334 28.0533C51.8784 29.0183 53.5864 29.9703 55.5594 30.9073C57.6484 31.9173 59.7204 33.1853 61.7744 34.7143C63.8274 36.2433 65.4994 38.1633 66.7894 40.4713C68.0774 42.7803 68.6014 45.6513 68.3624 49.0843C68.0994 52.8243 66.8624 56.1573 64.6504 59.0833C62.4384 62.0123 59.6264 64.2643 56.2134 65.8423C52.7994 67.4213 49.1574 68.0763 45.2884 67.8063C41.7844 67.5623 38.6894 66.5913 35.9994 64.8943C33.3094 63.1963 31.0674 61.0383 29.2764 58.4163C27.4844 55.7963 25.5174 37.6773 24.6094 34.7793L31.1724 37.8263C32.1594 40.4823 33.8764 51.3603 35.0904 53.4163Z" fill="#023047"/>
<path d="M35.0904 53.4163C36.3034 55.4743 37.7944 57.1173 39.5604 58.3503C41.3254 59.5813 43.4994 60.2883 46.0794 60.4673C48.8444 60.6603 51.2654 60.2453 53.3444 59.2193C55.4214 58.1943 57.0624 56.7983 58.2674 55.0343C59.4714 53.2693 60.1424 51.4063 60.2794 49.4443C60.4514 46.9923 60.0364 44.9913 59.0334 43.4413C58.0314 41.8933 56.6584 40.5503 54.9174 39.4113C53.1754 38.2743 51.2324 37.1373 49.0904 36.0013C47.7194 35.2903 46.2514 34.4163 44.6904 33.3833C43.1254 32.3503 41.6514 31.1383 40.2684 29.7483C38.8844 28.3573 37.7794 26.7083 36.9554 24.8033C36.1324 22.8973 35.8084 20.7183 35.9784 18.2643C36.2024 15.0783 37.2204 12.2063 39.0364 9.65227C40.8504 7.09827 43.2894 5.12927 46.3504 3.74027C49.4104 2.35227 52.9064 1.79427 56.8394 2.06727C60.3404 2.31327 63.3044 3.16727 65.7354 4.63027C68.1624 6.09427 70.1494 7.92727 71.6934 10.1293C73.2354 12.3323 74.3854 14.6613 75.1384 17.1163L68.1614 20.2343C67.5954 18.5923 66.8304 16.9673 65.8634 15.3603C64.8944 13.7523 63.5844 12.3983 61.9344 11.2973C60.2814 10.1963 58.1044 9.55027 55.4024 9.36227C53.0654 9.19827 51.0874 9.47627 49.4634 10.1943C47.8384 10.9133 46.5784 11.9353 45.6834 13.2583C44.7884 14.5823 44.2804 16.1033 44.1594 17.8203C44.0654 19.1683 44.2374 20.4453 44.6784 21.6453C45.1174 22.8473 45.8264 23.9743 46.8034 25.0283C47.7784 26.0833 48.9884 27.0903 50.4334 28.0533C51.8784 29.0183 53.5864 29.9703 55.5594 30.9073C57.6484 31.9173 59.7204 33.1853 61.7744 34.7143C63.8274 36.2433 65.4994 38.1633 66.7894 40.4713C68.0774 42.7803 68.6014 45.6513 68.3624 49.0843C68.0994 52.8243 66.8624 56.1573 64.6504 59.0833C62.4384 62.0123 59.6264 64.2643 56.2134 65.8423C52.7994 67.4213 49.1574 68.0763 45.2884 67.8063C41.7844 67.5623 38.6894 66.5913 35.9994 64.8943C33.3094 63.1963 31.0674 61.0383 29.2764 58.4163C27.4844 55.7963 25.5174 37.6773 24.6094 34.7793L31.1724 37.8263C32.1594 40.4823 33.8764 51.3603 35.0904 53.4163Z" stroke="#023047" stroke-width="2.741" stroke-miterlimit="10"/>
<path d="M82.084 150.441L0 126.09L9.267 25.7104L86.056 43.3514L82.084 150.441Z" fill="#FB8500"/>
</svg>
