<svg width="584" height="328" viewBox="0 0 584 328" fill="none" xmlns="http://www.w3.org/2000/svg">
<path d="M499.121 10.8338V253.159C499.121 258.895 494.443 263.595 488.645 263.595H113.572C107.815 263.595 103.097 258.935 103.097 253.159V10.8338C103.097 5.09825 107.775 0.3983 113.572 0.3983H488.645C494.443 0.43813 499.121 5.09825 499.121 10.8338Z" fill="white"/>
<path d="M488.685 263.794H113.572C107.695 263.794 102.897 259.014 102.897 253.159V10.8337C102.897 4.97872 107.695 0.19912 113.572 0.19912H488.645C494.523 0.19912 499.321 4.97872 499.321 10.8337V253.159C499.321 259.014 494.563 263.794 488.685 263.794ZM113.572 0.637252C107.935 0.637252 103.297 5.2177 103.297 10.8736V253.199C103.297 258.815 107.895 263.436 113.572 263.436H488.645C494.283 263.436 498.921 258.855 498.921 253.199V10.8337C498.921 5.2177 494.323 0.59742 488.645 0.59742H113.572V0.637252Z" fill="#023047"/>
<path d="M499.121 10.4355V23.1014H103.137V10.4355C103.137 4.69995 107.815 0 113.612 0H488.685C494.443 0.03983 499.121 4.69995 499.121 10.4355Z" fill="#023047"/>
<path d="M126.327 16.3303C129.087 16.3303 131.324 14.1012 131.324 11.3515C131.324 8.60183 129.087 6.37277 126.327 6.37277C123.566 6.37277 121.329 8.60183 121.329 11.3515C121.329 14.1012 123.566 16.3303 126.327 16.3303Z" fill="#FB8500"/>
<path d="M142.239 16.3303C145 16.3303 147.237 14.1012 147.237 11.3515C147.237 8.60183 145 6.37277 142.239 6.37277C139.479 6.37277 137.242 8.60183 137.242 11.3515C137.242 14.1012 139.479 16.3303 142.239 16.3303Z" fill="#FFB703"/>
<path d="M158.592 16.3303C161.352 16.3303 163.59 14.1012 163.59 11.3515C163.59 8.60183 161.352 6.37277 158.592 6.37277C155.832 6.37277 153.594 8.60183 153.594 11.3515C153.594 14.1012 155.832 16.3303 158.592 16.3303Z" fill="#8ECAE6"/>
<path d="M169.507 41.463H123.808V57.7535H169.507V41.463Z" fill="#219EBC"/>
<path d="M169.707 57.9925H123.608V41.3037H169.707V57.9925ZM124.008 57.5942H169.307V41.702H124.008V57.5942Z" fill="#023047"/>
<path d="M386.851 41.463H182.022V57.7535H386.851V41.463Z" fill="white"/>
<path d="M387.051 57.9925H181.822V41.3037H387.051V57.9925ZM182.222 57.5942H386.651V41.702H182.222V57.5942Z" fill="#023047"/>
<path d="M433.19 41.463H400.245V57.7535H433.19V41.463Z" fill="white"/>
<path d="M433.43 57.9925H400.045V41.3037H433.39V57.9925H433.43ZM400.445 57.5942H432.99V41.702H400.445V57.5942Z" fill="#023047"/>
<path d="M476.371 41.463H443.426V57.7535H476.371V41.463Z" fill="#8ECAE6"/>
<path d="M476.611 57.9925H443.226V41.3037H476.571V57.9925H476.611ZM443.625 57.5942H476.171V41.702H443.625V57.5942Z" fill="#023047"/>
<path d="M182.342 225.916V238.741C182.342 239.816 183.221 240.693 184.301 240.693H274.181C275.26 240.693 276.14 239.816 276.14 238.741V225.916C276.14 224.84 275.26 223.964 274.181 223.964H184.301C183.221 223.964 182.342 224.84 182.342 225.916Z" fill="white"/>
<path d="M274.141 240.852H184.301C183.101 240.852 182.142 239.896 182.142 238.701V225.876C182.142 224.681 183.101 223.725 184.301 223.725H274.181C275.38 223.725 276.34 224.681 276.34 225.876V238.701C276.3 239.896 275.34 240.852 274.141 240.852ZM184.301 224.163C183.341 224.163 182.542 224.96 182.542 225.916V238.741C182.542 239.697 183.341 240.494 184.301 240.494H274.181C275.14 240.494 275.94 239.697 275.94 238.741V225.916C275.94 224.96 275.14 224.163 274.181 224.163H184.301Z" fill="#023047"/>
<path d="M192.177 236.55C194.452 236.55 196.295 234.714 196.295 232.448C196.295 230.182 194.452 228.345 192.177 228.345C189.903 228.345 188.059 230.182 188.059 232.448C188.059 234.714 189.903 236.55 192.177 236.55Z" fill="#FFB703"/>
<path d="M192.177 236.75C189.778 236.75 187.859 234.798 187.859 232.448C187.859 230.098 189.818 228.146 192.177 228.146C194.536 228.146 196.495 230.098 196.495 232.448C196.495 234.798 194.576 236.75 192.177 236.75ZM192.177 228.505C190.018 228.505 188.259 230.257 188.259 232.408C188.259 234.559 190.018 236.311 192.177 236.311C194.336 236.311 196.096 234.559 196.096 232.408C196.096 230.257 194.336 228.505 192.177 228.505Z" fill="#023047"/>
<path d="M270.383 230.257H199.454V234.36H270.383V230.257Z" fill="#FB8500"/>
<path d="M270.582 234.559H199.254V230.058H270.582V234.559ZM199.654 234.161H270.183V230.456H199.654V234.161Z" fill="#023047"/>
<path d="M292.693 225.916V238.741C292.693 239.816 293.572 240.693 294.652 240.693H384.532C385.611 240.693 386.491 239.816 386.491 238.741V225.916C386.491 224.84 385.611 223.964 384.532 223.964H294.652C293.572 223.964 292.693 224.84 292.693 225.916Z" fill="white"/>
<path d="M384.492 240.852H294.652C293.452 240.852 292.493 239.896 292.493 238.701V225.876C292.493 224.681 293.452 223.725 294.652 223.725H384.532C385.731 223.725 386.691 224.681 386.691 225.876V238.701C386.651 239.896 385.691 240.852 384.492 240.852ZM294.652 224.163C293.692 224.163 292.892 224.96 292.892 225.916V238.741C292.892 239.697 293.692 240.494 294.652 240.494H384.532C385.491 240.494 386.291 239.697 386.291 238.741V225.916C386.291 224.96 385.491 224.163 384.532 224.163H294.652Z" fill="#023047"/>
<path d="M302.528 236.55C304.803 236.55 306.646 234.714 306.646 232.448C306.646 230.182 304.803 228.345 302.528 228.345C300.254 228.345 298.41 230.182 298.41 232.448C298.41 234.714 300.254 236.55 302.528 236.55Z" fill="#FFB703"/>
<path d="M302.528 236.75C300.129 236.75 298.21 234.798 298.21 232.448C298.21 230.098 300.169 228.146 302.528 228.146C304.887 228.146 306.846 230.098 306.846 232.448C306.846 234.798 304.927 236.75 302.528 236.75ZM302.528 228.505C300.369 228.505 298.61 230.257 298.61 232.408C298.61 234.559 300.369 236.311 302.528 236.311C304.687 236.311 306.446 234.559 306.446 232.408C306.446 230.257 304.687 228.505 302.528 228.505Z" fill="#023047"/>
<path d="M380.733 230.257H309.805V234.36H380.733V230.257Z" fill="#FB8500"/>
<path d="M380.933 234.559H309.605V230.058H380.933V234.559ZM310.005 234.161H380.533V230.456H310.005V234.161Z" fill="#023047"/>
<path d="M386.847 83.0771V201.173C386.847 203.364 385.088 205.116 382.889 205.116H297.367C295.168 205.116 293.408 203.364 293.408 201.173V83.0771C293.408 80.8865 295.168 79.1339 297.367 79.1339H382.889C385.088 79.1339 386.847 80.8865 386.847 83.0771Z" fill="white"/>
<path d="M382.889 205.276H297.367C295.088 205.276 293.208 203.404 293.208 201.133V83.0771C293.208 80.8068 295.088 78.9348 297.367 78.9348H382.889C385.168 78.9348 387.047 80.8068 387.047 83.0771V201.173C387.047 203.443 385.208 205.276 382.889 205.276ZM297.367 79.3331C295.288 79.3331 293.608 81.0059 293.608 83.0771V201.173C293.608 203.244 295.288 204.917 297.367 204.917H382.889C384.968 204.917 386.647 203.244 386.647 201.173V83.0771C386.647 81.0059 384.968 79.3331 382.889 79.3331H297.367Z" fill="#023047"/>
<path d="M386.847 83.0771V155.767H293.408V83.0771C293.408 80.8865 295.168 79.1339 297.367 79.1339H382.889C385.088 79.1339 386.847 80.8865 386.847 83.0771Z" fill="white"/>
<path d="M387.047 155.966H293.208V83.0771C293.208 80.8068 295.088 78.9348 297.367 78.9348H382.889C385.168 78.9348 387.047 80.8068 387.047 83.0771V155.966ZM293.608 155.568H386.647V83.0771C386.647 81.0059 384.968 79.3331 382.889 79.3331H297.367C295.288 79.3331 293.608 81.0059 293.608 83.0771V155.568Z" fill="#023047"/>
<path d="M378.575 163.199H302.408V167.859H378.575V163.199Z" fill="white"/>
<path d="M378.774 168.058H302.208V163H378.774V168.058ZM302.608 167.66H378.375V163.398H302.608V167.66Z" fill="#023047"/>
<path d="M378.575 173.276H302.409V177.936H378.575V173.276Z" fill="white"/>
<path d="M378.774 178.175H302.208V173.117H378.774V178.175ZM302.608 177.777H378.375V173.515H302.608V177.777Z" fill="#023047"/>
<path d="M343.11 183.393H302.408V188.053H343.11V183.393Z" fill="#219EBC"/>
<path d="M343.31 188.252H302.208V183.194H343.31V188.252ZM302.608 187.854H342.91V183.592H302.608V187.854Z" fill="#023047"/>
<path d="M353.186 192.554L354.265 194.784L356.704 195.143L354.945 196.856L355.345 199.285L353.186 198.13L350.987 199.285L351.387 196.856L349.627 195.143L352.066 194.784L353.186 192.554Z" fill="#FFB703"/>
<path d="M355.625 199.644L353.186 198.369L350.747 199.644L351.227 196.935L349.228 195.023L351.986 194.625L353.226 192.156L354.465 194.625L357.224 195.023L355.225 196.935L355.625 199.644ZM353.186 197.891L355.105 198.887L354.745 196.736L356.304 195.222L354.145 194.904L353.186 192.952L352.226 194.904L350.067 195.222L351.627 196.736L351.267 198.887L353.186 197.891Z" fill="#023047"/>
<path d="M341.551 192.554L342.63 194.784L345.069 195.143L343.31 196.856L343.75 199.285L341.551 198.13L339.352 199.285L339.752 196.856L337.992 195.143L340.431 194.784L341.551 192.554Z" fill="#FFB703"/>
<path d="M343.99 199.644L341.551 198.369L339.112 199.644L339.592 196.935L337.593 195.023L340.351 194.625L341.591 192.156L342.83 194.625L345.589 195.023L343.59 196.935L343.99 199.644ZM338.432 195.262L339.992 196.776L339.632 198.927L341.551 197.931L343.47 198.927L343.11 196.776L344.67 195.262L342.511 194.944L341.551 192.992L340.591 194.944L338.432 195.262Z" fill="#023047"/>
<path d="M329.756 192.554L330.836 194.784L333.275 195.143L331.515 196.856L331.955 199.285L329.756 198.13L327.557 199.285L327.997 196.856L326.198 195.143L328.637 194.784L329.756 192.554Z" fill="#FFB703"/>
<path d="M332.195 199.644L329.756 198.369L327.317 199.644L327.797 196.935L325.798 195.023L328.557 194.625L329.796 192.156L331.036 194.625L333.794 195.023L331.795 196.935L332.195 199.644ZM329.756 197.891L331.675 198.887L331.315 196.736L332.875 195.222L330.716 194.904L329.756 192.952L328.797 194.904L326.638 195.222L328.197 196.736L327.837 198.887L329.756 197.891Z" fill="#023047"/>
<path d="M317.961 192.554L319.041 194.784L321.52 195.143L319.721 196.856L320.16 199.285L317.961 198.13L315.762 199.285L316.202 196.856L314.403 195.143L316.882 194.784L317.961 192.554Z" fill="#FFB703"/>
<path d="M320.4 199.644L317.961 198.369L315.523 199.644L316.002 196.935L314.003 195.023L316.762 194.625L318.001 192.156L319.241 194.625L322 195.023L320.001 196.935L320.4 199.644ZM317.961 197.891L319.881 198.887L319.521 196.736L321.08 195.222L318.921 194.904L317.961 192.952L317.002 194.904L314.843 195.222L316.402 196.736L316.042 198.887L317.961 197.891Z" fill="#023047"/>
<path d="M306.607 192.554L307.726 194.784L310.165 195.143L308.406 196.856L308.806 199.285L306.607 198.13L304.447 199.285L304.847 196.856L303.088 195.143L305.527 194.784L306.607 192.554Z" fill="#FFB703"/>
<path d="M309.085 199.644L306.647 198.369L304.208 199.644L304.687 196.935L302.688 195.023L305.447 194.625L306.687 192.156L307.926 194.625L310.685 195.023L308.686 196.935L309.085 199.644ZM306.607 197.891L308.526 198.887L308.166 196.736L309.725 195.222L307.566 194.904L306.607 192.952L305.647 194.904L303.488 195.222L305.047 196.736L304.687 198.887L306.607 197.891Z" fill="#023047"/>
<path d="M330.196 93.0573C331.915 93.8539 338.992 96.5225 348.748 93.0175C348.948 92.9378 349.147 93.0971 349.147 93.2963V107.436C349.147 107.595 349.027 107.715 348.868 107.715H330.156C329.996 107.715 329.876 107.595 329.876 107.436L329.796 93.3759C329.796 93.0971 329.996 92.9776 330.196 93.0573Z" fill="#023047"/>
<path d="M348.868 107.874H330.156C329.876 107.874 329.676 107.675 329.676 107.396L329.596 93.3361C329.596 93.1768 329.676 93.0175 329.836 92.9378C329.956 92.8582 330.156 92.8183 330.316 92.898C332.195 93.7742 339.112 96.2835 348.748 92.8183C348.908 92.7785 349.068 92.7785 349.188 92.8582C349.307 92.9378 349.387 93.0971 349.387 93.2565V107.396C349.347 107.675 349.148 107.874 348.868 107.874ZM330.076 93.2166H330.036C330.036 93.2166 329.996 93.2565 329.996 93.2963L330.076 107.356C330.076 107.396 330.116 107.436 330.156 107.436H348.868C348.908 107.436 348.948 107.396 348.948 107.356V93.2166C348.948 93.1768 348.908 93.1768 348.908 93.137C348.908 93.137 348.868 93.0971 348.828 93.137C339.072 96.6818 332.035 94.0929 330.076 93.2166C330.116 93.2166 330.076 93.2166 330.076 93.2166Z" fill="#023047"/>
<path d="M351.427 127.829C351.427 127.829 355.145 131.971 358.303 142.924H320.64C323.799 131.971 327.517 127.829 327.517 127.829V127.789L327.277 125.957L325.438 112.056L321.68 119.664L310.405 114.526L316.962 101.501C321.92 90.7472 330.196 92.9777 330.196 92.9777C331.475 101.023 334.834 103.413 337.393 104.05C337.873 104.17 338.392 104.21 338.872 104.21H340.152C340.671 104.21 341.151 104.17 341.631 104.05C344.19 103.413 347.548 101.023 348.828 92.9777C348.828 92.9777 357.104 90.7472 362.062 101.501L368.619 114.526L357.264 119.624L353.506 112.016L351.666 125.917L351.427 127.709V127.829Z" fill="#FB8500"/>
<path d="M358.543 143.124H320.36L320.44 142.885C323.359 132.768 326.798 128.387 327.317 127.789L325.318 112.733L321.76 119.903L310.085 114.605L316.722 101.382C321.68 90.5879 330.076 92.7387 330.196 92.7387L330.316 92.7785L330.356 92.898C331.595 100.824 334.874 103.214 337.393 103.811C337.833 103.931 338.312 103.971 338.832 103.971H340.112C340.631 103.971 341.111 103.931 341.551 103.811C344.07 103.214 347.308 100.824 348.588 92.898L348.628 92.7785L348.748 92.7387C348.828 92.6988 357.224 90.5879 362.222 101.382L368.859 114.605L357.184 119.903L353.626 112.733L351.626 127.789C352.106 128.387 355.585 132.768 358.503 142.924L358.543 143.124ZM320.92 142.725H358.024C354.945 132.131 351.307 127.988 351.267 127.948L351.227 127.869V127.67L353.386 111.339L357.344 119.345L368.259 114.366L361.822 101.541C357.304 91.7828 349.987 92.8582 348.948 93.0971C347.628 101.103 344.27 103.572 341.631 104.21C341.151 104.329 340.631 104.369 340.112 104.369H338.832C338.272 104.369 337.753 104.329 337.313 104.21C334.714 103.572 331.316 101.143 329.996 93.0971C328.957 92.898 321.64 91.7828 317.122 101.541L310.685 114.406L321.6 119.385L325.558 111.379L327.717 127.909L327.637 127.988C327.637 127.988 323.999 132.131 320.92 142.725Z" fill="#023047"/>
<path d="M351.666 125.957L351.426 127.749H335.274C335.114 128.904 334.914 130.856 334.834 131.772C334.834 131.931 334.754 132.051 334.634 132.131C334.514 132.21 334.394 132.29 334.234 132.29C333.914 132.29 333.674 132.051 333.634 131.732C333.594 130.219 333.714 127.988 333.714 127.988C332.755 129.502 332.235 133.684 332.075 135.158C332.075 135.317 331.995 135.436 331.875 135.556C331.755 135.636 331.635 135.715 331.475 135.715C331.155 135.715 330.916 135.476 330.876 135.158C330.516 130.099 331.995 127.829 331.995 127.829H327.477L327.237 125.997H351.666V125.957Z" fill="white"/>
<path d="M331.515 135.875C331.116 135.875 330.756 135.556 330.716 135.158C330.436 131.095 331.315 128.785 331.715 127.988H327.357L327.077 125.758H351.906L351.626 127.948H335.474C335.314 129.223 335.114 131.175 335.074 131.772C335.034 131.971 334.954 132.131 334.834 132.29C334.674 132.409 334.514 132.489 334.314 132.489C333.874 132.489 333.554 132.17 333.514 131.732C333.474 130.856 333.514 129.781 333.554 128.984C332.875 130.856 332.475 134.122 332.355 135.197C332.315 135.397 332.235 135.556 332.115 135.715C331.875 135.795 331.715 135.875 331.515 135.875ZM327.717 127.55H332.435L332.235 127.869C332.235 127.909 330.796 130.179 331.116 135.078C331.116 135.277 331.315 135.436 331.515 135.436C331.595 135.436 331.715 135.397 331.795 135.317C331.875 135.237 331.915 135.158 331.915 135.078C332.075 133.405 332.595 129.382 333.594 127.829L333.994 127.192L333.954 127.948C333.954 127.988 333.834 130.139 333.874 131.653C333.874 131.852 334.034 132.011 334.274 132.011C334.354 132.011 334.474 131.971 334.514 131.931C334.594 131.852 334.634 131.772 334.634 131.692C334.714 131.055 334.914 128.944 335.074 127.67L335.114 127.51H351.267L351.466 126.116H327.557L327.717 127.55Z" fill="#023047"/>
<path d="M387.124 88.5964C392.49 88.5964 396.84 84.2631 396.84 78.9177C396.84 73.5723 392.49 69.239 387.124 69.239C381.758 69.239 377.408 73.5723 377.408 78.9177C377.408 84.2631 381.758 88.5964 387.124 88.5964Z" fill="white"/>
<path d="M387.124 88.7557C381.686 88.7557 377.208 84.3346 377.208 78.8778C377.208 73.4211 381.647 69 387.124 69C392.602 69 397.04 73.4211 397.04 78.8778C397.04 84.3346 392.562 88.7557 387.124 88.7557ZM387.124 69.4381C381.886 69.4381 377.608 73.6999 377.608 78.9177C377.608 84.1354 381.886 88.3972 387.124 88.3972C392.362 88.3972 396.64 84.1354 396.64 78.9177C396.64 73.6999 392.322 69.4381 387.124 69.4381Z" fill="#023047"/>
<path d="M389.883 74.0584C388.563 74.0584 387.444 74.9347 387.084 76.1296C386.724 74.9347 385.605 74.0584 384.285 74.0584C382.686 74.0584 381.367 75.3728 381.367 76.966C381.367 77.4838 381.527 77.9618 381.766 78.3999C381.886 78.599 382.006 78.7583 382.166 78.9177L386.964 85.41L391.922 79.0372C392.122 78.838 392.282 78.6389 392.402 78.3999C392.642 77.9618 392.801 77.4838 392.801 76.966C392.801 75.3728 391.482 74.0584 389.883 74.0584Z" fill="#FB8500"/>
<path d="M386.964 85.7286L382.006 79.0372C381.846 78.8778 381.726 78.6787 381.606 78.4795C381.327 78.0016 381.207 77.4838 381.207 76.9262C381.207 75.2135 382.606 73.8194 384.325 73.8194C385.525 73.8194 386.604 74.4965 387.124 75.5321C387.644 74.4965 388.723 73.8194 389.923 73.8194C391.642 73.8194 393.041 75.2135 393.041 76.9262C393.041 77.4439 392.881 78.0016 392.642 78.4795C392.482 78.7185 392.322 78.9575 392.122 79.1566L386.964 85.7286ZM384.325 74.2576C382.846 74.2576 381.606 75.4524 381.606 76.966C381.606 77.4439 381.726 77.8821 381.966 78.3202C382.086 78.4795 382.206 78.6389 382.326 78.7982L386.964 85.0913L391.762 78.9177C391.962 78.7185 392.122 78.5194 392.242 78.3202C392.482 77.9219 392.602 77.4439 392.602 76.966C392.602 75.4923 391.402 74.2576 389.883 74.2576C388.683 74.2576 387.644 75.0143 387.284 76.1694L387.084 76.8067L386.884 76.1694C386.564 75.0541 385.525 74.2576 384.325 74.2576Z" fill="#023047"/>
<path d="M275.9 82.9659V201.062C275.9 203.252 274.141 205.005 271.942 205.005H186.42C184.221 205.005 182.462 203.252 182.462 201.062V82.9659C182.462 80.7752 184.221 79.0227 186.42 79.0227H271.942C274.141 79.0227 275.9 80.7752 275.9 82.9659Z" fill="white"/>
<path d="M271.942 205.164H186.42C184.141 205.164 182.262 203.292 182.262 201.022V82.9659C182.262 80.6956 184.141 78.8236 186.42 78.8236H271.942C274.221 78.8236 276.1 80.6956 276.1 82.9659V201.062C276.1 203.332 274.261 205.164 271.942 205.164ZM186.42 79.2219C184.341 79.2219 182.662 80.8947 182.662 82.9659V201.062C182.662 203.133 184.341 204.806 186.42 204.806H271.942C274.021 204.806 275.7 203.133 275.7 201.062V82.9659C275.7 80.8947 274.021 79.2219 271.942 79.2219H186.42Z" fill="#023047"/>
<path d="M275.9 82.9659V155.656H182.462V82.9659C182.462 80.7752 184.221 79.0227 186.42 79.0227H271.942C274.141 79.0227 275.9 80.7752 275.9 82.9659Z" fill="white"/>
<path d="M276.1 155.855H182.262V82.9659C182.262 80.6956 184.141 78.8236 186.42 78.8236H271.942C274.221 78.8236 276.1 80.6956 276.1 82.9659V155.855ZM182.662 155.456H275.7V82.9659C275.7 80.8947 274.021 79.2219 271.942 79.2219H186.42C184.341 79.2219 182.662 80.8947 182.662 82.9659V155.456Z" fill="#023047"/>
<path d="M267.184 163.303H191.018V167.963H267.184V163.303Z" fill="white"/>
<path d="M267.384 168.162H190.818V163.104H267.384V168.162ZM191.218 167.764H266.984V163.502H191.218V167.764Z" fill="#023047"/>
<path d="M267.184 173.38H191.018V178.04H267.184V173.38Z" fill="white"/>
<path d="M267.384 178.279H190.818V173.221H267.384V178.279ZM191.218 177.881H266.984V173.619H191.218V177.881Z" fill="#023047"/>
<path d="M231.72 183.497H191.018V188.157H231.72V183.497Z" fill="#219EBC"/>
<path d="M231.92 188.356H190.818V183.298H231.92V188.356ZM191.218 187.958H231.52V183.696H191.218V187.958Z" fill="#023047"/>
<path d="M241.795 192.658L242.875 194.888L245.314 195.247L243.554 196.959L243.954 199.389L241.795 198.234L239.596 199.389L239.996 196.959L238.237 195.247L240.676 194.888L241.795 192.658Z" fill="#FFB703"/>
<path d="M244.234 199.747L241.795 198.473L239.356 199.747L239.836 197.039L237.837 195.127L240.596 194.729L241.835 192.259L243.075 194.729L245.833 195.127L243.834 197.039L244.234 199.747ZM241.795 197.995L243.714 198.991L243.355 196.84L244.914 195.326L242.755 195.008L241.795 193.056L240.836 195.008L238.677 195.326L240.236 196.84L239.876 198.991L241.795 197.995Z" fill="#023047"/>
<path d="M230.16 192.658L231.24 194.888L233.679 195.247L231.919 196.959L232.359 199.389L230.16 198.234L227.961 199.389L228.361 196.959L226.602 195.247L229.041 194.888L230.16 192.658Z" fill="#FFB703"/>
<path d="M232.599 199.747L230.16 198.473L227.721 199.747L228.201 197.039L226.202 195.127L228.961 194.729L230.2 192.259L231.44 194.729L234.199 195.127L232.199 197.039L232.599 199.747ZM227.042 195.366L228.601 196.88L228.241 199.03L230.16 198.035L232.079 199.03L231.72 196.88L233.279 195.366L231.12 195.047L230.16 193.096L229.201 195.047L227.042 195.366Z" fill="#023047"/>
<path d="M218.366 192.658L219.445 194.888L221.884 195.247L220.125 196.959L220.565 199.389L218.366 198.234L216.167 199.389L216.606 196.959L214.807 195.247L217.246 194.888L218.366 192.658Z" fill="#FFB703"/>
<path d="M220.804 199.747L218.366 198.473L215.927 199.747L216.406 197.039L214.407 195.127L217.166 194.729L218.406 192.259L219.645 194.729L222.404 195.127L220.405 197.039L220.804 199.747ZM218.366 197.995L220.285 198.991L219.925 196.84L221.484 195.326L219.325 195.008L218.366 193.056L217.406 195.008L215.247 195.326L216.806 196.84L216.446 198.991L218.366 197.995Z" fill="#023047"/>
<path d="M206.571 192.658L207.65 194.888L210.129 195.247L208.33 196.959L208.77 199.389L206.571 198.234L204.372 199.389L204.812 196.959L203.012 195.247L205.491 194.888L206.571 192.658Z" fill="#FFB703"/>
<path d="M209.01 199.747L206.571 198.473L204.132 199.747L204.612 197.039L202.613 195.127L205.371 194.729L206.611 192.259L207.85 194.729L210.609 195.127L208.61 197.039L209.01 199.747ZM206.571 197.995L208.49 198.991L208.13 196.84L209.689 195.326L207.53 195.008L206.571 193.056L205.611 195.008L203.452 195.326L205.012 196.84L204.652 198.991L206.571 197.995Z" fill="#023047"/>
<path d="M195.216 192.658L196.335 194.888L198.774 195.247L197.015 196.959L197.415 199.389L195.216 198.234L193.057 199.389L193.457 196.959L191.697 195.247L194.136 194.888L195.216 192.658Z" fill="#FFB703"/>
<path d="M197.695 199.747L195.256 198.473L192.817 199.747L193.297 197.039L191.298 195.127L194.056 194.729L195.296 192.259L196.535 194.729L199.294 195.127L197.295 197.039L197.695 199.747ZM195.216 197.995L197.135 198.991L196.775 196.84L198.335 195.326L196.175 195.008L195.216 193.056L194.256 195.008L192.097 195.326L193.657 196.84L193.297 198.991L195.216 197.995Z" fill="#023047"/>
<path d="M247.952 93.2819H244.274V93.2022H210.249L194.136 101.049L198.774 114.033L210.169 109.413L224.843 109.254L247.992 109.493L259.387 114.113L264.025 101.128L247.952 93.2819Z" fill="#023047"/>
<path d="M259.507 114.352L247.952 109.652L224.803 109.413L210.169 109.572L198.614 114.272L193.857 100.929L210.169 93.003H244.434V93.0827H247.952L264.265 101.009L259.507 114.352ZM224.843 109.055L248.072 109.294L259.307 113.834L263.825 101.208L247.913 93.481H244.074V93.4013H210.289L194.376 101.128L198.894 113.754L210.129 109.214L224.843 109.055Z" fill="#023047"/>
<path d="M247.952 93.2022V143.388H210.169V93.2022H218.086C218.565 98.8182 223.283 103.239 229.081 103.239C234.838 103.239 239.556 98.8182 240.076 93.2022H247.952Z" fill="#219EBC"/>
<path d="M248.152 143.587H209.969V93.003H218.286V93.2022C218.765 98.7386 223.483 103.04 229.081 103.04C234.638 103.04 239.396 98.6987 239.876 93.2022V93.003H248.192V143.587H248.152ZM210.369 143.189H247.752V93.4013H240.236C239.636 99.0174 234.798 103.439 229.081 103.439C223.363 103.439 218.486 99.0572 217.926 93.4013H210.369V143.189Z" fill="#023047"/>
<path d="M242.515 93.2022C242.195 100.332 236.278 106.027 229.041 106.027C221.804 106.027 215.887 100.332 215.567 93.2022H218.046C218.526 98.8182 223.243 103.239 229.041 103.239C234.798 103.239 239.516 98.8182 240.036 93.2022H242.515Z" fill="white"/>
<path d="M229.081 106.187C221.764 106.187 215.767 100.491 215.407 93.2022V93.003H218.286V93.2022C218.765 98.7386 223.483 103.04 229.081 103.04C234.638 103.04 239.396 98.6987 239.876 93.2022V93.003H242.755V93.2022C242.395 100.491 236.398 106.187 229.081 106.187ZM215.807 93.4013C216.247 100.372 222.004 105.828 229.041 105.828C236.078 105.828 241.875 100.411 242.275 93.4013H240.196C239.596 99.0174 234.758 103.439 229.041 103.439C223.323 103.439 218.446 99.0572 217.886 93.4013H215.807Z" fill="#023047"/>
<path d="M247.952 125.345H210.169V129.169H247.952V125.345Z" fill="white"/>
<path d="M248.152 129.368H209.969V125.146H248.152V129.368ZM210.369 128.97H247.752V125.544H210.369V128.97Z" fill="#023047"/>
<path d="M247.952 133.55H210.169V137.374H247.952V133.55Z" fill="white"/>
<path d="M248.152 137.573H209.969V133.351H248.152V137.573ZM210.369 137.175H247.752V133.749H210.369V137.175Z" fill="#023047"/>
<path d="M276.02 88.6616C281.386 88.6616 285.736 84.3283 285.736 78.9829C285.736 73.6375 281.386 69.3042 276.02 69.3042C270.654 69.3042 266.304 73.6375 266.304 78.9829C266.304 84.3283 270.654 88.6616 276.02 88.6616Z" fill="white"/>
<path d="M276.02 88.8209C270.582 88.8209 266.104 84.3998 266.104 78.9431C266.104 73.4864 270.542 69.0652 276.02 69.0652C281.498 69.0652 285.936 73.4864 285.936 78.9431C285.936 84.3998 281.458 88.8209 276.02 88.8209ZM276.02 69.5033C270.782 69.5033 266.504 73.7652 266.504 78.9829C266.504 84.2006 270.782 88.4624 276.02 88.4624C281.258 88.4624 285.536 84.2006 285.536 78.9829C285.536 73.7652 281.218 69.5033 276.02 69.5033Z" fill="#023047"/>
<path d="M278.779 74.1236C277.459 74.1236 276.34 74.9999 275.98 76.1948C275.62 74.9999 274.501 74.1236 273.181 74.1236C271.582 74.1236 270.263 75.438 270.263 77.0312C270.263 77.549 270.422 78.027 270.662 78.4651C270.782 78.6642 270.902 78.8236 271.062 78.9829L275.86 85.4752L280.818 79.1024C281.018 78.9032 281.178 78.7041 281.298 78.4651C281.537 78.027 281.697 77.549 281.697 77.0312C281.697 75.438 280.378 74.1236 278.779 74.1236Z" fill="#FB8500"/>
<path d="M275.86 85.7938L270.902 79.1024C270.742 78.9431 270.622 78.7439 270.502 78.5448C270.222 78.0668 270.103 77.549 270.103 76.9914C270.103 75.2787 271.502 73.8846 273.221 73.8846C274.421 73.8846 275.5 74.5617 276.02 75.5973C276.54 74.5617 277.619 73.8846 278.819 73.8846C280.538 73.8846 281.937 75.2787 281.937 76.9914C281.937 77.5092 281.777 78.0668 281.537 78.5448C281.378 78.7837 281.218 79.0227 281.018 79.2219L275.86 85.7938ZM273.221 74.3228C271.742 74.3228 270.502 75.5177 270.502 77.0312C270.502 77.5092 270.622 77.9473 270.862 78.3854C270.982 78.5447 271.102 78.7041 271.222 78.8634L275.86 85.1565L280.658 78.9829C280.858 78.7837 281.018 78.5846 281.138 78.3854C281.378 77.9871 281.497 77.5092 281.497 77.0312C281.497 75.5575 280.298 74.3228 278.779 74.3228C277.579 74.3228 276.54 75.0795 276.18 76.2346L275.98 76.8719L275.78 76.2346C275.46 75.1194 274.421 74.3228 273.221 74.3228Z" fill="#023047"/>
<path d="M142.439 156.93C149.13 156.93 154.554 151.527 154.554 144.862C154.554 138.196 149.13 132.793 142.439 132.793C135.749 132.793 130.325 138.196 130.325 144.862C130.325 151.527 135.749 156.93 142.439 156.93Z" fill="#023047"/>
<path d="M140.68 156.93C147.371 156.93 152.795 151.527 152.795 144.862C152.795 138.196 147.371 132.793 140.68 132.793C133.99 132.793 128.566 138.196 128.566 144.862C128.566 151.527 133.99 156.93 140.68 156.93Z" fill="#FFB703"/>
<path d="M140.68 157.129C133.883 157.129 128.366 151.633 128.366 144.862C128.366 138.091 133.883 132.594 140.68 132.594C147.477 132.594 152.995 138.091 152.995 144.862C152.995 151.633 147.477 157.129 140.68 157.129ZM140.68 132.953C134.123 132.953 128.765 138.29 128.765 144.822C128.765 151.354 134.123 156.691 140.68 156.691C147.237 156.691 152.595 151.354 152.595 144.822C152.595 138.29 147.237 132.953 140.68 132.953Z" fill="#023047"/>
<path d="M135.243 144.424C134.763 143.866 134.523 143.149 134.523 142.273C134.523 141.396 134.763 140.68 135.243 140.122C135.722 139.564 136.322 139.325 137.122 139.325C137.881 139.325 138.521 139.604 139.001 140.122C139.481 140.68 139.721 141.357 139.721 142.273C139.721 143.149 139.481 143.866 139.001 144.424C138.521 144.981 137.881 145.22 137.122 145.22C136.362 145.26 135.722 144.981 135.243 144.424ZM138.121 143.707C138.361 143.388 138.481 142.91 138.481 142.313C138.481 141.715 138.361 141.237 138.121 140.919C137.881 140.6 137.562 140.441 137.122 140.441C136.722 140.441 136.402 140.6 136.162 140.958C135.922 141.277 135.802 141.755 135.802 142.352C135.802 142.95 135.922 143.388 136.162 143.746C136.402 144.065 136.722 144.264 137.122 144.264C137.562 144.185 137.881 144.025 138.121 143.707ZM143.599 139.445H145.118L137.721 150.199H136.202L143.599 139.445ZM142.359 149.522C141.88 148.964 141.64 148.247 141.64 147.371C141.64 146.495 141.88 145.778 142.359 145.22C142.839 144.663 143.439 144.424 144.239 144.424C144.998 144.424 145.638 144.702 146.118 145.22C146.598 145.778 146.837 146.495 146.837 147.371C146.837 148.247 146.598 148.964 146.118 149.522C145.638 150.079 144.998 150.318 144.239 150.318C143.439 150.318 142.839 150.079 142.359 149.522ZM145.198 148.765C145.438 148.446 145.558 147.968 145.558 147.371C145.558 146.774 145.438 146.335 145.198 145.977C144.958 145.658 144.638 145.459 144.239 145.459C143.839 145.459 143.519 145.618 143.279 145.937C143.039 146.256 142.919 146.734 142.919 147.331C142.919 147.929 143.039 148.407 143.279 148.725C143.519 149.044 143.839 149.203 144.239 149.203C144.638 149.243 144.958 149.084 145.198 148.765Z" fill="#023047"/>
<path d="M142.439 121.88C149.13 121.88 154.554 116.477 154.554 109.811C154.554 103.146 149.13 97.7428 142.439 97.7428C135.749 97.7428 130.325 103.146 130.325 109.811C130.325 116.477 135.749 121.88 142.439 121.88Z" fill="#023047"/>
<path d="M140.68 121.84C147.371 121.84 152.795 116.437 152.795 109.771C152.795 103.106 147.371 97.703 140.68 97.703C133.99 97.703 128.566 103.106 128.566 109.771C128.566 116.437 133.99 121.84 140.68 121.84Z" fill="#FFB703"/>
<path d="M140.68 122.039C133.883 122.039 128.366 116.543 128.366 109.771C128.366 103 133.883 97.5038 140.68 97.5038C147.477 97.5038 152.995 103 152.995 109.771C152.995 116.543 147.477 122.039 140.68 122.039ZM140.68 97.9021C134.123 97.9021 128.765 103.239 128.765 109.771C128.765 116.304 134.123 121.641 140.68 121.641C147.237 121.641 152.595 116.304 152.595 109.771C152.595 103.199 147.237 97.9021 140.68 97.9021Z" fill="#023047"/>
<path d="M143.599 113.954C143.039 114.511 142.2 114.83 141.12 114.949V116.543H139.921V114.949C139.201 114.91 138.521 114.79 137.921 114.551C137.282 114.352 136.802 114.073 136.402 113.754L137.042 112.321C137.402 112.599 137.841 112.838 138.321 113.038C138.841 113.237 139.361 113.356 139.921 113.396V110.528C139.241 110.369 138.681 110.17 138.201 109.971C137.761 109.771 137.362 109.493 137.042 109.094C136.722 108.736 136.562 108.218 136.562 107.581C136.562 106.824 136.842 106.147 137.402 105.589C137.961 105.032 138.801 104.713 139.881 104.633V103H141.08V104.594C141.6 104.633 142.16 104.713 142.639 104.872C143.159 105.032 143.599 105.231 143.999 105.47L143.399 106.904C142.679 106.466 141.88 106.227 141.08 106.147V109.055C141.76 109.214 142.359 109.413 142.799 109.572C143.239 109.771 143.639 110.05 143.959 110.409C144.279 110.767 144.439 111.285 144.439 111.922C144.479 112.759 144.199 113.396 143.599 113.954ZM138.881 108.298C139.121 108.497 139.481 108.656 139.961 108.776V106.227C139.481 106.306 139.121 106.466 138.881 106.705C138.641 106.944 138.521 107.222 138.521 107.541C138.481 107.86 138.641 108.099 138.881 108.298ZM142.279 112.918C142.519 112.679 142.639 112.44 142.639 112.082C142.639 111.763 142.519 111.484 142.24 111.285C142 111.086 141.6 110.927 141.12 110.807V113.356C141.64 113.276 142 113.157 142.279 112.918Z" fill="#023047"/>
<path d="M393.088 204.886L390.209 246.189H418.676V204.886H393.088Z" fill="#FB8500"/>
<path d="M418.876 246.388H389.969L392.848 204.686H418.876V246.388ZM390.449 245.99H418.516V205.085H393.248L390.449 245.99Z" fill="#023047"/>
<path d="M417.557 204.886L415.518 246.189H426.833L424.634 204.886H417.557Z" fill="#023047"/>
<path d="M427.073 246.388H415.318V246.189L417.397 204.686H424.834V204.886L427.073 246.388ZM415.718 245.99H426.633L424.434 205.045H417.757L415.718 245.99Z" fill="#023047"/>
<path d="M401.564 216.675C400.804 216.675 399.645 216.516 398.685 215.679C397.806 214.883 397.286 213.648 397.206 212.015C397.086 210.103 397.606 204.846 399.405 203.85C399.965 203.571 400.445 203.491 400.844 203.651C401.524 203.93 401.764 204.766 401.804 204.806L401.404 204.925C401.404 204.925 401.204 204.248 400.685 204.049C400.365 203.93 400.005 203.969 399.565 204.208C398.126 205.005 397.446 209.705 397.566 211.975C397.646 213.489 398.086 214.644 398.885 215.361C399.845 216.237 401.084 216.277 401.764 216.237C407.162 215.958 408.081 211.418 408.201 210.502C408.281 210.024 408.321 209.625 408.401 209.187C409.001 204.886 409.241 203.093 411.16 203.292C412.599 203.452 413.119 204.686 413.159 204.766L412.799 204.925C412.799 204.886 412.359 203.85 411.12 203.73C409.68 203.571 409.441 204.846 408.801 209.267C408.761 209.665 408.681 210.103 408.601 210.581C408.481 211.537 407.482 216.357 401.764 216.635C401.764 216.675 401.684 216.675 401.564 216.675Z" fill="#023047"/>
<path d="M426.833 246.468L420.995 239.458V204.886H421.395V239.338L427.153 246.229L426.833 246.468Z" fill="white"/>
<path d="M421.141 239.265L415.443 245.889L415.746 246.148L421.445 239.525L421.141 239.265Z" fill="white"/>
<path d="M387.45 221.973H408.881L407.281 246.189H381.253L387.45 221.973Z" fill="#219EBC"/>
<path d="M407.441 246.388H380.973L387.29 221.773H409.081L407.441 246.388ZM381.493 245.99H407.082L408.681 222.172H387.61L381.493 245.99Z" fill="#023047"/>
<path d="M411.2 221.933H408.121L402.124 246.189H410.56L411.2 221.933Z" fill="#023047"/>
<path d="M410.76 246.388H401.884L408.001 221.734H411.44L410.76 246.388ZM402.364 245.99H410.36L411 222.132H408.281L402.364 245.99Z" fill="#023047"/>
<path d="M394.567 230.257C390.809 230.257 390.689 227.31 390.649 225.756C390.649 225.637 390.649 225.517 390.649 225.398C390.449 221.694 391.649 220.977 392.168 220.857C393.808 220.459 394.327 221.973 394.327 221.973L393.967 222.092C393.967 222.052 393.528 220.897 392.288 221.216C391.968 221.295 390.849 221.853 391.049 225.358C391.049 225.478 391.049 225.597 391.049 225.717C391.089 227.27 391.209 229.859 394.567 229.859H394.607C395.727 229.859 397.326 229.54 398.525 226.792L400.605 221.893C400.645 221.813 401.364 220.34 402.684 220.618C403.803 220.857 404.043 221.893 404.083 221.933L403.683 222.012C403.683 221.973 403.483 221.176 402.604 220.977C401.604 220.778 401.004 222.012 400.964 222.052L398.885 226.951C397.926 229.142 396.486 230.217 394.567 230.257C394.607 230.257 394.607 230.257 394.567 230.257Z" fill="#023047"/>
<path d="M410.32 246.149L407.122 241.011V240.972L409.321 221.893L409.72 221.933L407.521 240.932L410.64 245.91L410.32 246.149Z" fill="white"/>
<path d="M407.205 240.825L402.116 245.895L402.399 246.176L407.488 241.107L407.205 240.825Z" fill="white"/>
<path d="M442.106 246.388H384.372V291.157H442.106V246.388Z" fill="#023047"/>
<path d="M427.233 246.388H374.456V291.157H427.233V246.388Z" fill="#FFB703"/>
<path d="M427.433 291.356H374.256V246.189H427.433V291.356ZM374.656 290.958H427.033V246.588H374.656V290.958Z" fill="#023047"/>
<path d="M392.528 246.388V257.541L395.807 255.709L398.366 257.421L401.444 255.709L404.243 257.541V246.388H392.528Z" fill="#023047"/>
<path d="M416.437 268.295H404.243V269.091H416.437V268.295Z" fill="#023047"/>
<path d="M416.437 273.035H404.243V273.831H416.437V273.035Z" fill="#023047"/>
<path d="M416.437 277.774H404.243V278.571H416.437V277.774Z" fill="#023047"/>
<path d="M400.724 267.379H380.973V279.646H400.724V267.379Z" fill="white"/>
<path d="M400.884 279.846H380.733V267.18H400.884V279.846ZM381.173 279.447H400.525V267.578H381.173V279.447Z" fill="#023047"/>
<path d="M465.536 217.113L460.338 234.24L360.902 239.02L371.338 291.914H443.106V296.335H382.333V297.61H442.986C453.101 300.836 451.902 310.515 451.462 312.825H373.097V314.099H452.501L452.621 313.621C452.661 313.502 455.62 301.115 444.385 296.773V291.396L466.495 218.428H487.326V217.153H465.536V217.113ZM367.299 264.949L378.694 264.83L380.014 276.301H369.578L367.299 264.949ZM421.755 276.301H408.841V264.591L422.355 264.471L421.755 276.301ZM423.634 264.471L436.549 264.352L435.349 276.341H422.995L423.634 264.471ZM407.561 264.591V276.301H394.687L394.087 264.71L407.561 264.591ZM394.047 263.436L393.368 250.371L407.561 250.252V263.356L394.047 263.436ZM408.841 263.316V250.212L423.114 250.093L422.435 263.197L408.841 263.316ZM408.841 248.977V238.024L423.834 237.307L423.234 248.858L408.841 248.977ZM407.561 248.977L393.288 249.097L392.768 238.741L407.561 238.024V248.977ZM392.048 249.097L378.214 249.216L377.095 239.498L391.529 238.821L392.048 249.097ZM392.088 250.371L392.768 263.436L379.814 263.555L378.334 250.491L392.088 250.371ZM378.534 263.595L367.059 263.714L364.501 250.65L377.055 250.531L378.534 263.595ZM379.974 264.83L392.848 264.71L393.448 276.301H381.293L379.974 264.83ZM393.528 277.575L394.207 290.64H382.932L381.453 277.575H393.528ZM394.767 277.575H407.561V290.64H395.447L394.767 277.575ZM408.841 277.575H421.675L420.995 290.64H408.841V277.575ZM422.955 277.575H435.229L433.91 290.64H422.235L422.955 277.575ZM436.509 277.575H447.224L443.266 290.64H435.229L436.509 277.575ZM436.668 276.301L437.868 264.312L451.302 264.192L447.624 276.301H436.668ZM451.662 262.958L437.948 263.077L439.267 249.973L455.62 249.814L451.662 262.958ZM436.708 263.077L423.754 263.197L424.434 250.093L438.028 249.973L436.708 263.077ZM424.474 248.818L425.074 237.227L439.307 236.55L438.108 248.699L424.474 248.818ZM375.816 239.577L376.935 249.256L364.261 249.376L362.461 240.215L375.816 239.577ZM369.818 277.575H380.174L381.653 290.64H372.377L369.818 277.575ZM456.02 248.539L439.387 248.699L440.587 236.471L459.938 235.555L456.02 248.539Z" fill="#023047"/>
<path d="M384.891 314.259C381.293 314.259 378.374 317.166 378.374 320.751C378.374 324.336 381.293 327.243 384.891 327.243C388.49 327.243 391.409 324.336 391.409 320.751C391.409 317.166 388.49 314.259 384.891 314.259ZM384.891 325.013C382.532 325.013 380.613 323.101 380.613 320.751C380.613 318.401 382.532 316.489 384.891 316.489C387.25 316.489 389.17 318.401 389.17 320.751C389.17 323.101 387.25 325.013 384.891 325.013Z" fill="#023047"/>
<path d="M442.946 314.418C439.347 314.418 436.428 317.326 436.428 320.91C436.428 324.495 439.347 327.403 442.946 327.403C446.544 327.403 449.463 324.495 449.463 320.91C449.463 317.326 446.544 314.418 442.946 314.418ZM442.946 325.172C440.587 325.172 438.667 323.26 438.667 320.91C438.667 318.56 440.587 316.649 442.946 316.649C445.305 316.649 447.224 318.56 447.224 320.91C447.224 323.26 445.305 325.172 442.946 325.172Z" fill="#023047"/>
<path d="M72.5904 244.158H23.0125V327.403H72.5904V244.158Z" fill="#023047"/>
<path d="M162.111 244.357H47.1218V327.203H162.111V244.357Z" fill="white"/>
<path d="M162.311 327.403H46.9218V244.158H162.311V327.403ZM47.3217 327.004H161.911V244.556H47.3217V327.004Z" fill="#023047"/>
<path d="M150.756 287.254C145.198 287.931 140.28 284.386 136.082 281.24C131.284 277.695 126.726 273.752 122.568 269.49C118.29 265.148 114.372 260.448 110.853 255.47C108.295 251.845 105.976 248.061 103.537 244.357H104.976C105.016 244.397 105.056 244.477 105.096 244.516C108.454 249.654 111.693 254.832 115.531 259.692C119.29 264.431 123.408 268.852 127.886 272.955C132.364 277.057 137.242 281.24 142.599 284.147C145.438 285.701 148.717 286.696 151.955 285.86C155.274 284.984 157.233 282.315 157.473 278.969C157.952 273.035 155.114 266.303 152.475 261.125C149.516 255.27 145.438 250.132 142.279 244.397H143.639C146.997 250.292 151.235 255.669 154.114 261.803C157.433 268.892 163.59 285.701 150.756 287.254Z" fill="#219EBC"/>
<path d="M83.4256 279.407C78.5877 278.292 74.1497 274.07 70.7512 270.725C66.9129 266.901 63.3945 262.759 59.2363 259.253C58.1168 258.337 56.9174 257.222 55.598 256.625C52.7992 255.31 52.7592 259.054 52.8392 260.767C52.9991 263.914 54.0387 266.941 55.1182 269.888C56.1577 272.636 57.3172 275.385 58.0769 278.213C58.5966 280.124 59.4363 282.793 58.4367 284.705C56.0778 289.206 49.8805 283.47 47.7215 281.638C47.5216 281.479 47.3216 281.319 47.1617 281.16V279.567C48.0413 280.324 48.9209 281.08 49.8005 281.797C51.04 282.793 52.2794 283.868 53.7188 284.546C54.6384 284.984 56.1577 285.422 57.0373 284.585C57.837 283.829 57.677 282.474 57.5571 281.518C56.7974 275.743 53.6388 270.565 52.2395 264.949C51.6397 262.52 50.0804 254.434 54.7583 255.111C56.9174 255.43 58.9165 257.421 60.5158 258.776C62.5149 260.488 64.3141 262.36 66.1533 264.232C69.9516 268.215 73.6699 272.437 78.2679 275.504C80.7868 277.177 84.665 279.806 87.3438 277.177C90.0626 274.508 88.8232 270.167 87.8636 266.98C86.0644 261.046 83.3056 255.509 80.7468 249.854C79.9071 248.021 79.1075 246.149 78.3478 244.277H79.6273C80.9467 247.543 82.466 250.69 83.9453 253.876C86.4242 259.214 89.183 264.869 90.0626 270.725C90.6224 274.867 88.5833 280.602 83.4256 279.407Z" fill="#219EBC"/>
<path d="M83.5455 327.203H82.0662C81.6664 326.606 81.2666 326.009 80.8667 325.451C79.3474 323.22 78.068 320.87 76.5486 318.68C75.709 317.445 74.6695 316.051 73.2301 315.533C71.5909 314.936 70.3514 315.892 68.8321 316.449C63.7943 318.361 58.3168 316.609 53.6788 314.378C51.4398 313.303 49.2408 312.148 47.1217 310.873V309.559C50.3203 311.471 53.5989 313.183 56.9973 314.498C59.7161 315.533 62.6348 316.29 65.5535 315.971C67.9924 315.732 70.1915 313.781 72.6304 314.099C74.6295 314.338 76.1488 316.011 77.2283 317.565C78.7077 319.636 79.9471 321.906 81.3465 324.057C82.0662 325.092 82.7859 326.168 83.5455 327.203Z" fill="#219EBC"/>
<path d="M162.111 324.973V326.168C153.874 324.455 145.998 320.99 139.281 315.892C133.443 311.471 129.205 305.974 124.927 300.119C122.608 296.972 120.169 293.746 116.931 291.476C115.491 290.44 112.333 288.17 110.813 289.843C109.054 291.715 110.094 295.578 110.733 297.729C112.013 302.31 113.372 306.771 114.012 311.51C114.412 314.378 115.451 318.959 113.292 321.388C111.053 323.898 106.535 322.703 103.896 321.627C100.298 320.154 97.2594 317.565 94.4607 314.936C91.382 311.988 88.5833 308.762 86.1444 305.297C83.6655 301.792 81.8663 297.928 79.3874 294.423C78.1079 292.631 74.8294 288.329 72.7903 291.755C71.7108 293.587 72.2306 295.698 72.4705 297.65C72.7903 300.557 72.0307 303.465 68.912 304.381C65.9534 305.257 62.7548 304.102 60.076 302.987C56.2777 301.394 52.5993 299.442 49.1208 297.172C48.4411 296.733 47.8014 296.295 47.1617 295.817V294.344C49.4007 295.977 51.7597 297.45 54.1986 298.805C57.837 300.796 62.235 303.385 66.5131 303.425C69.4318 303.465 71.3909 301.911 71.351 298.844C71.351 297.012 70.7112 295.22 70.9911 293.388C71.351 290.878 73.1901 288.409 75.9889 289.445C78.9876 290.52 81.0266 294.583 82.506 297.092C86.904 304.62 91.9018 311.71 98.8587 317.126C100.818 318.68 103.017 320.074 105.416 320.831C107.415 321.508 110.454 322.185 112.133 320.592C113.852 318.998 113.292 315.892 113.052 313.781C112.813 311.311 112.413 308.882 111.893 306.492C111.013 302.31 109.054 298.207 108.734 293.945C108.574 291.755 109.134 287.573 112.173 287.812C115.211 288.051 118.37 290.759 120.409 292.79C122.888 295.22 124.927 298.048 126.926 300.836C131.404 307.049 136.242 312.506 142.679 316.768C148.637 320.791 155.234 323.539 162.111 324.973Z" fill="#219EBC"/>
<path d="M162.111 256.027V257.82C158.632 253.398 154.914 249.137 151.995 244.357H153.355C155.873 248.46 159.032 252.204 162.111 256.027Z" fill="#219EBC"/>
<path d="M75.0294 256.027C74.0698 257.182 72.5904 257.222 71.311 256.704C69.072 255.828 67.1928 253.757 65.3537 252.283C62.9547 250.371 60.4758 248.499 57.917 246.747C56.7175 245.91 55.558 245.114 54.3586 244.317H56.4776C59.996 246.667 63.4345 249.216 66.753 251.885C68.0724 252.96 72.4705 257.7 74.2697 255.031C75.3892 253.359 73.55 250.132 72.9903 248.579C72.4705 247.145 71.9107 245.751 71.391 244.317H72.7904C73.67 246.627 74.5096 248.938 75.2693 251.287C75.749 252.801 76.1089 254.713 75.0294 256.027Z" fill="#219EBC"/>
<path d="M132.484 327.203H131.044C130.765 326.765 130.485 326.327 130.205 325.889C129.445 324.734 128.646 323.579 127.726 322.504C126.367 320.95 123.568 318.999 123.008 322.384C122.808 323.579 123.288 324.854 123.448 326.048C123.488 326.447 123.568 326.805 123.568 327.203H122.368C122.368 327.044 122.328 326.925 122.328 326.765C122.088 324.694 121.089 322.265 122.448 320.393C125.607 316.091 130.365 323.977 131.764 326.168C132.004 326.487 132.244 326.845 132.484 327.203Z" fill="#219EBC"/>
<path d="M162.111 303.345C161.071 304.779 159.832 305.974 158.312 306.85C156.553 307.886 154.554 308.404 152.315 308.404C147.597 308.404 141.8 306.133 135.043 301.593L135.722 300.597C145.318 307.01 152.715 308.762 157.753 305.815C159.632 304.699 161.071 303.027 162.151 301.035V303.345H162.111Z" fill="#219EBC"/>
<path d="M214.607 272.238L218.406 327.403H180.423V272.238H214.607Z" fill="#FB8500"/>
<path d="M218.645 327.602H180.223V272.039H214.807V272.238L218.645 327.602ZM180.622 327.203H218.206L214.447 272.437H180.622V327.203Z" fill="#023047"/>
<path d="M181.902 272.238L184.661 327.403H169.507L172.506 272.238H181.902Z" fill="#023047"/>
<path d="M184.861 327.602H169.307L172.306 272.039H182.102V272.238L184.861 327.602ZM169.747 327.203H184.461L181.702 272.437H172.666L169.747 327.203Z" fill="#023047"/>
<path d="M203.252 287.931C203.132 287.931 202.973 287.931 202.893 287.931C195.336 287.533 194.056 281.16 193.857 279.885C193.777 279.288 193.697 278.691 193.617 278.133C192.817 272.557 192.537 270.446 190.458 270.685C188.819 270.844 188.219 272.278 188.179 272.358L187.819 272.198C187.859 272.119 188.539 270.486 190.418 270.286C192.897 270.047 193.217 272.397 194.017 278.093C194.096 278.651 194.176 279.208 194.256 279.846C194.416 281.08 195.696 287.174 202.933 287.573C203.812 287.612 205.531 287.533 206.811 286.378C207.89 285.422 208.49 283.868 208.61 281.837C208.73 279.248 208.01 272.517 205.931 271.402C205.331 271.083 204.812 271.003 204.372 271.163C203.652 271.441 203.372 272.358 203.372 272.397L202.973 272.278C202.973 272.238 203.292 271.163 204.172 270.804C204.732 270.565 205.371 270.645 206.051 271.043C208.37 272.318 209.05 279.368 208.93 281.837C208.81 283.988 208.17 285.621 207.011 286.657C205.811 287.692 204.252 287.931 203.252 287.931Z" fill="#023047"/>
<path d="M169.507 327.721L169.188 327.482L176.904 318.242V272.238H177.304V318.401L169.507 327.721Z" fill="white"/>
<path d="M177.139 318.215L176.835 318.474L184.459 327.335L184.763 327.076L177.139 318.215Z" fill="white"/>
<path d="M222.124 295.061H193.497L195.656 327.403H230.4L222.124 295.061Z" fill="#219EBC"/>
<path d="M230.64 327.602H195.456L193.257 294.861H222.244L222.284 295.021L230.64 327.602ZM195.856 327.203H230.12L221.924 295.26H193.737L195.856 327.203Z" fill="#023047"/>
<path d="M190.418 294.981H194.496L202.533 327.403H191.258L190.418 294.981Z" fill="#023047"/>
<path d="M202.773 327.602H191.058V327.403L190.178 294.782H194.656L202.773 327.602ZM191.458 327.203H202.253L194.336 295.18H190.578L191.458 327.203Z" fill="#023047"/>
<path d="M212.608 306.054H212.568C210.049 306.054 208.17 304.62 206.891 301.712L204.132 295.18C204.132 295.18 203.292 293.428 201.893 293.746C200.653 294.025 200.414 295.14 200.414 295.14L200.014 295.061C200.014 295.021 200.334 293.667 201.813 293.348C203.492 292.99 204.452 294.941 204.492 295.021L207.251 301.553C208.89 305.217 211.049 305.655 212.568 305.655H212.608C217.166 305.655 217.326 302.15 217.406 300.079C217.406 299.92 217.406 299.761 217.446 299.601C217.686 294.862 216.207 294.145 215.767 294.025C214.007 293.587 213.448 295.18 213.408 295.22L213.048 295.101C213.048 295.061 213.728 293.109 215.887 293.627C216.566 293.786 218.166 294.742 217.886 299.641C217.886 299.8 217.886 299.96 217.886 300.119C217.686 302.15 217.566 306.054 212.608 306.054Z" fill="#023047"/>
<path d="M191.538 327.283L191.178 327.084L195.376 320.393L192.417 295.021L192.817 294.981L195.816 320.472L191.538 327.283Z" fill="white"/>
<path d="M195.73 320.298L195.447 320.58L202.232 327.339L202.515 327.057L195.73 320.298Z" fill="white"/>
<path d="M83.5855 322.026L84.6651 327.203H67.5927L103.457 244.357H115.971L83.5855 322.026Z" fill="#023047"/>
<path d="M99.7384 327.203H82.0263L76.1089 322.782L80.0272 315.932L82.2662 311.949L84.6251 307.727L89.8628 298.327L102.177 305.177L95.2204 313.86L93.1813 316.41L90.3825 319.875C96.7397 321.269 99.7384 327.203 99.7384 327.203Z" fill="#FB8500"/>
<path d="M100.058 327.403H81.9463L75.829 322.862L79.8672 315.852L89.8228 298.048L102.497 305.138L90.7424 319.795C96.8997 321.348 99.8983 327.124 99.8983 327.164L100.058 327.403ZM82.1062 327.004H99.3786C98.6589 325.809 95.7002 321.269 90.3426 320.034L90.0227 319.954L101.897 305.177L89.9827 298.526L80.2271 316.011L76.3888 322.742L82.1062 327.004Z" fill="#023047"/>
<path d="M152.755 327.164H129.645L129.045 318.839L128.446 309.997H140.64L141.28 316.688L141.44 318.361C141.4 318.321 151.755 324.216 152.755 327.164Z" fill="#FB8500"/>
<path d="M152.995 327.363H129.405L128.166 309.798H140.76L141.56 318.202C142.639 318.839 151.915 324.216 152.875 327.084L152.995 327.363ZM129.805 326.964H152.435C150.996 324.057 141.4 318.56 141.32 318.52L141.24 318.481L140.44 310.236H128.646L129.805 326.964Z" fill="#023047"/>
<path d="M141.24 316.688L129.045 318.839L128.406 309.997H140.6L141.24 316.688Z" fill="#023047"/>
<path d="M102.177 305.138L95.2204 313.821L93.1813 316.37L82.3062 311.949L84.6651 307.687L89.9028 298.287L102.177 305.138Z" fill="#023047"/>
<path d="M120.169 223.924L81.6664 309.678L100.058 314.458L135.083 247.464L120.169 223.924Z" fill="#8ECAE6"/>
<path d="M100.138 314.697L81.3866 309.798L81.4666 309.599L120.129 223.486L135.323 247.424L100.138 314.697ZM81.9463 309.559L99.9383 314.259L134.843 247.504L120.169 224.362L81.9463 309.559Z" fill="#023047"/>
<path d="M142.559 314.577H121.849L114.372 242.883C114.372 242.883 79.5873 247.105 65.4736 242.366C59.1164 240.255 57.6371 233.802 57.957 227.23C58.3568 218.826 61.7553 210.263 61.7553 210.263L93.6611 213.568L111.373 214.883L134.563 216.596C137.002 216.795 138.961 218.746 139.041 221.216L142.559 314.577Z" fill="#8ECAE6"/>
<path d="M142.759 314.816H121.649V314.657L114.172 243.122C111.293 243.441 78.8277 247.105 65.3937 242.605C59.9161 240.772 57.3173 235.594 57.7571 227.27C58.1569 218.946 61.5154 210.342 61.5554 210.223L61.5954 210.063L93.6611 213.369L134.523 216.357C137.082 216.556 139.081 218.627 139.161 221.176L142.759 314.816ZM122.009 314.418H142.359L138.801 221.216C138.721 218.866 136.882 216.954 134.523 216.795L93.6611 213.807L61.8753 210.502C61.4355 211.657 58.5567 219.583 58.1569 227.27C57.7571 235.435 60.236 240.454 65.5136 242.206C79.4275 246.866 113.972 242.724 114.332 242.684L114.532 242.644L114.572 242.844L122.009 314.418Z" fill="#023047"/>
<path d="M111.333 214.883L57.957 227.27C58.3568 218.866 61.7553 210.302 61.7553 210.302L93.6611 213.608L111.333 214.883Z" fill="#023047"/>
<path d="M96.9796 139.803C96.9796 139.803 96.18 145.778 94.1809 146.973L92.1818 139.803H96.9796Z" fill="#023047"/>
<path d="M84.5851 158.324C84.4252 158.245 84.2253 158.165 84.0653 158.085L82.8659 169.835L68.1524 167.605L73.9098 149.203C73.1502 148.088 71.431 146.535 72.0307 143.946C72.0307 143.946 72.4305 141.556 74.4296 141.556C74.8694 141.556 75.3492 141.755 75.789 142.113L77.5882 135.741L94.4207 139.524C94.4207 139.524 96.3399 163.582 84.5851 158.324Z" fill="#FFB703"/>
<path d="M83.0258 170.074L67.8725 167.804L73.6699 149.283C73.55 149.124 73.4301 148.964 73.3101 148.805C72.4705 147.69 71.311 146.216 71.7908 143.946C71.7908 143.946 72.2306 141.436 74.3496 141.436C74.7495 141.436 75.1493 141.596 75.5891 141.835L77.3883 135.541L94.5407 139.365V139.524C94.5806 140.162 95.7001 154.7 90.3825 158.444C88.7832 159.559 86.8241 159.599 84.4652 158.523C84.3852 158.484 84.2652 158.444 84.1853 158.404L83.0258 170.074ZM68.3923 167.445L82.666 169.596L83.9054 157.767L84.1453 157.886C84.3052 157.966 84.5051 158.045 84.6651 158.125C86.8641 159.121 88.7432 159.081 90.1826 158.045C95.0604 154.62 94.3008 141.197 94.1808 139.644L77.6682 135.94L75.829 142.392L75.5891 142.233C75.1493 141.914 74.7095 141.715 74.3496 141.715C72.5504 141.715 72.1506 143.906 72.1506 143.906C71.6708 146.017 72.7903 147.411 73.59 148.446C73.7499 148.646 73.9098 148.845 74.0298 149.004L74.0698 149.084L74.0298 149.163L68.3923 167.445Z" fill="#023047"/>
<path d="M99.4585 132.315C98.6989 132.156 96.7797 132.315 95.6202 133.271C95.7002 133.152 95.7802 133.032 95.8202 132.873C97.5394 127.735 90.2626 131.558 86.4643 132.315C85.6647 132.475 83.9454 132.714 83.9454 132.714C72.4306 130.125 73.59 141.795 73.59 141.795C76.6287 141.396 77.5083 145.459 77.5083 145.459C80.5869 143.985 81.5465 141.914 81.6665 141.038C84.6651 142.392 92.3017 144.981 98.6189 140.401C102.897 137.294 101.378 132.714 99.4585 132.315Z" fill="#023047"/>
<path d="M57.1973 193.375H41.4043L47.5216 175.053C48.6411 171.747 51.2 169.158 54.4785 167.963L69.152 162.785C69.152 162.785 79.9872 171.827 83.6655 162.785C83.7455 162.586 89.8228 164.976 94.1809 166.609C96.5798 167.525 98.299 169.636 98.6988 172.145L105.576 215.64L57.5571 223.884L57.1973 193.375Z" fill="#219EBC"/>
<path d="M57.3972 224.163L56.9974 193.574H41.1245L47.3217 175.013C48.4412 171.627 51.04 168.999 54.3985 167.804L69.152 162.586L69.2319 162.666C69.2719 162.706 75.1893 167.565 79.5873 166.489C81.3066 166.051 82.586 164.817 83.4256 162.745C83.5456 162.467 83.5456 162.427 90.7024 165.135C91.9019 165.573 93.1013 166.051 94.2208 166.45C96.6997 167.366 98.4589 169.556 98.8588 172.145L105.736 215.839L57.3972 224.163ZM41.6842 193.175H57.3972L57.757 223.685L105.336 215.52L98.4989 172.225C98.0991 169.795 96.4198 167.724 94.1009 166.848C92.9814 166.45 91.7819 165.972 90.5824 165.533C87.7037 164.418 84.4652 163.183 83.7855 163.024C82.9059 165.135 81.5465 166.41 79.7473 166.888C75.3892 167.963 69.9116 163.701 69.112 163.064L54.5585 168.202C51.3199 169.357 48.801 171.866 47.7215 175.133L41.6842 193.175Z" fill="#023047"/>
<path d="M59.8013 184.966L57.0047 193.316L57.384 193.442L60.1806 185.092L59.8013 184.966Z" fill="#023047"/>
<path d="M92.7015 202.376L104.016 201.341C104.736 201.181 105.496 201.261 106.215 201.46L111.413 203.452C112.413 203.77 113.092 204.647 113.212 205.682L114.052 213.091C114.172 214.445 113.172 215.6 111.773 215.6C111.773 216.078 111.413 216.436 110.933 216.436H109.774C109.454 216.436 109.174 216.237 109.014 215.958L108.814 215.6H107.935C106.935 215.6 106.056 215.002 105.656 214.126L104.216 211.019L94.3408 211.457L92.7015 202.376Z" fill="#FFB703"/>
<path d="M110.933 216.675H109.774C109.374 216.675 109.014 216.436 108.854 216.078L108.734 215.799H107.975C106.895 215.799 105.936 215.162 105.536 214.206L104.136 211.218L94.2208 211.696L92.5016 202.217L104.056 201.181C104.816 201.022 105.576 201.062 106.335 201.341L111.533 203.332C112.573 203.691 113.332 204.607 113.452 205.722L114.292 213.13C114.372 213.847 114.132 214.524 113.692 215.042C113.252 215.52 112.693 215.799 112.013 215.839C111.853 216.317 111.453 216.675 110.933 216.675ZM104.376 210.86L105.896 214.086C106.255 214.923 107.055 215.44 107.975 215.44H108.974L109.214 215.918C109.334 216.118 109.534 216.277 109.774 216.277H110.933C111.293 216.277 111.573 215.998 111.573 215.64V215.44H111.773C112.373 215.44 112.932 215.201 113.332 214.763C113.732 214.325 113.892 213.768 113.852 213.17L113.012 205.762C112.933 204.806 112.253 204.009 111.373 203.691L106.176 201.699C105.496 201.46 104.776 201.42 104.096 201.58L92.9814 202.575L94.5807 211.298L104.376 210.86Z" fill="#023047"/>
<path d="M101.258 214.803C99.9783 215.321 98.4989 215.241 98.4989 215.241C98.0991 215.241 96.6597 214.086 96.3799 213.09L95.94 211.497C95.7401 210.78 95.0604 210.302 94.3008 210.422L47.4016 217.073C45.9223 217.312 44.443 217.392 42.9636 217.193C37.7259 216.516 36.4465 213.489 36.2466 211.218C36.1267 210.103 36.3266 208.988 36.6864 207.913L40.3648 196.681L41.0045 194.769L41.4443 193.454H57.2373L56.6375 195.326L56.4776 195.804L54.3585 202.456H81.3066L92.4616 199.11C93.3012 198.871 94.1808 198.831 95.0205 199.07L99.1386 200.265C101.138 200.823 102.577 202.575 102.737 204.647L103.337 211.696C103.497 213.29 102.857 214.166 101.258 214.803Z" fill="#FFB703"/>
<path d="M44.7228 217.472C44.1231 217.472 43.5234 217.432 42.9236 217.352C37.606 216.675 36.2466 213.648 36.0467 211.179C35.9667 210.063 36.0867 208.948 36.4865 207.793L41.2444 193.175H57.4372L54.5585 202.217H81.1866L92.3017 198.871C93.1813 198.632 94.1009 198.592 94.9805 198.831L99.1386 200.026C101.178 200.624 102.697 202.456 102.857 204.567L103.457 211.617C103.657 213.329 103.057 214.325 101.298 215.002C99.9782 215.52 98.4989 215.44 98.4589 215.44C97.8992 215.44 96.4598 214.166 96.1799 213.13L95.7401 211.537C95.5802 210.9 94.9805 210.541 94.3408 210.621L47.4016 217.273C46.522 217.392 45.6024 217.472 44.7228 217.472ZM41.5642 193.574L36.8863 207.952C36.5265 209.068 36.3666 210.143 36.4465 211.179C36.6464 213.489 37.9259 216.357 42.9636 216.994C44.363 217.153 45.8024 217.113 47.3217 216.874L94.2608 210.223C95.1004 210.103 95.9001 210.621 96.1 211.457L96.5398 213.051C96.8197 214.007 98.1791 215.042 98.4589 215.042C98.4989 215.042 99.9383 215.082 101.178 214.604C102.737 214.007 103.257 213.17 103.057 211.657L102.457 204.607C102.297 202.655 100.898 200.942 99.0187 200.425L94.9005 199.23C94.1009 199.031 93.2612 199.03 92.4616 199.269L81.2266 202.615H53.9987L56.8774 193.574H41.5642Z" fill="#023047"/>
<path d="M57.1973 193.375L56.5976 195.247L56.4377 195.725L40.9645 194.689L41.4043 193.375H57.1973Z" fill="#023047"/>
<path d="M98.5753 208.827L98.189 208.93L99.7861 214.895L100.172 214.792L98.5753 208.827Z" fill="#023047"/>
<path d="M101.384 207.699L100.991 207.773L102.192 214.154L102.585 214.08L101.384 207.699Z" fill="#023047"/>
<path d="M107.781 210.443L107.391 210.532L108.587 215.694L108.977 215.604L107.781 210.443Z" fill="#023047"/>
<path d="M110.962 209.279L110.566 209.328L111.364 215.691L111.761 215.642L110.962 209.279Z" fill="#023047"/>
<path d="M129.885 212.772H85.5447V216.914H129.885V212.772Z" fill="#023047"/>
<path d="M127.406 214.843L139.001 181.824H141.48L129.885 214.843H127.406Z" fill="#023047"/>
<path d="M470.174 309.997V327.164H447.064C448.063 324.216 458.379 318.321 458.379 318.321V309.997H470.174Z" fill="#219EBC"/>
<path d="M470.373 327.363H446.784L446.864 327.084C447.823 324.216 457.019 318.879 458.179 318.202V309.798H470.373V327.363ZM447.384 326.964H470.014V310.196H458.619V318.441L458.499 318.481C458.379 318.56 448.823 324.057 447.384 326.964Z" fill="#023047"/>
<path d="M470.174 309.997V316.25L458.379 317.923V309.997H470.174Z" fill="#023047"/>
<path d="M537.584 322.743L531.666 327.164H513.994C513.994 327.164 516.993 321.229 523.35 319.795L518.512 313.781L511.555 305.098L523.87 298.247L529.107 307.647L533.705 315.892L537.584 322.743Z" fill="#219EBC"/>
<path d="M531.746 327.363H513.634L513.794 327.084C513.834 327.044 516.833 321.229 522.95 319.715L511.195 305.058L523.87 297.968L533.825 315.772L537.864 322.782L531.746 327.363ZM514.314 326.964H531.626L537.344 322.703L533.506 316.011L523.75 298.526L511.835 305.177L523.71 319.954L523.39 320.034C517.992 321.189 515.034 325.77 514.314 326.964Z" fill="#023047"/>
<path d="M529.067 307.647L518.512 313.781L511.515 305.098L523.83 298.247L529.067 307.647Z" fill="#023047"/>
<path d="M528.268 304.62L509.556 309.997L481.009 252.642L480.129 240.892L477.171 201.221L475.611 189.392H502.159V248.738L528.268 304.62Z" fill="#FB8500"/>
<path d="M509.436 310.236L480.809 252.682L476.971 201.261L475.371 189.232H502.359V248.738L528.508 304.779L509.436 310.236ZM481.209 252.602L509.636 309.758L527.948 304.461L501.959 248.738V189.591H475.811L477.37 201.181L481.209 252.602Z" fill="#023047"/>
<path d="M490.605 189.392L489.005 200.504L480.129 240.892L479.05 249.216L472.892 314.179H456.18L455.38 249.535L459.858 202.695L461.018 190.467L490.605 189.392Z" fill="#FB8500"/>
<path d="M473.092 314.378H455.98V314.179L455.18 249.575L460.858 190.308L490.844 189.193L489.205 200.544L480.329 240.932L479.25 249.256L473.092 314.378ZM456.38 313.98H472.732L478.85 249.216L479.929 240.852L488.805 200.464L490.365 189.591L461.218 190.666L455.58 249.575L456.38 313.98Z" fill="#023047"/>
<path d="M502.159 187.998V199.11L485.407 200.504L477.17 201.221L459.858 202.695L461.018 190.467L502.159 187.998Z" fill="#023047"/>
<path d="M413.599 141.396L410.64 153.146L404.483 150.239L390.929 143.826C389.449 144.304 386.491 143.348 384.532 142.352C382.652 141.436 384.052 139.405 384.052 139.405C383.052 137.931 384.532 136.458 384.532 136.458C384.052 134.506 385.531 133.51 385.531 133.51L379.454 130.483C378.774 130.164 378.374 129.408 378.534 128.691V128.651C378.774 127.735 379.814 127.257 380.693 127.575L393.368 132.076L399.765 136.497L408.361 139.564L413.599 141.396Z" fill="#FFB703"/>
<path d="M410.8 153.425L390.969 144.025C389.25 144.543 386.091 143.308 384.492 142.512C383.932 142.233 383.572 141.835 383.452 141.357C383.252 140.56 383.652 139.724 383.852 139.405C383.052 138.051 384.052 136.736 384.372 136.418C384.052 134.944 384.812 133.988 385.211 133.59L379.374 130.682C378.614 130.284 378.175 129.447 378.375 128.651V128.611C378.494 128.133 378.814 127.735 379.254 127.496C379.734 127.257 380.294 127.217 380.813 127.376L393.528 131.917L399.885 136.298L413.799 141.237L410.8 153.425ZM390.969 143.627L410.52 152.868L413.359 141.516L399.725 136.657L393.368 132.275L380.693 127.775C380.294 127.615 379.854 127.655 379.454 127.854C379.094 128.053 378.854 128.332 378.774 128.691C378.614 129.328 378.974 130.005 379.574 130.324L385.971 133.51L385.691 133.709C385.651 133.749 384.332 134.625 384.772 136.418L384.812 136.537L384.732 136.617C384.692 136.657 383.372 138.011 384.252 139.325L384.332 139.445L384.252 139.564C384.252 139.564 383.612 140.48 383.852 141.317C383.972 141.715 384.212 141.994 384.692 142.233C386.731 143.268 389.57 144.145 390.929 143.707L390.969 143.627Z" fill="#023047"/>
<path d="M533.945 220.579C533.745 222.331 532.346 221.654 532.346 221.654L532.746 224.641C532.146 226.872 530.707 225.756 530.707 225.756C530.107 227.987 528.188 226.513 528.188 226.513C527.108 228.385 525.509 225.995 525.509 225.995L523.15 221.096L521.431 214.365C521.791 217.352 519.712 218.069 519.712 218.069L518.152 212.613L520.951 207.036L520.511 203.651L519.792 198.035L529.307 197.278C529.587 198.154 530.227 200.265 530.827 202.416C531.626 205.284 532.426 208.191 532.426 208.191L532.346 214.285L533.945 220.579Z" fill="#FFB703"/>
<path d="M527.188 227.429C526.229 227.429 525.349 226.155 525.309 226.075L522.91 221.136L521.551 215.799C521.231 217.671 519.752 218.189 519.712 218.189L519.512 218.268L517.872 212.533L520.671 206.957L519.512 197.836L529.387 197.039L529.427 197.198C529.667 197.955 530.187 199.628 530.947 202.336C531.746 205.204 532.546 208.112 532.546 208.112V208.152L532.466 214.246L534.145 220.579V220.618C534.065 221.256 533.825 221.654 533.465 221.893C533.146 222.052 532.826 222.052 532.586 221.973L532.946 224.681V224.721C532.746 225.557 532.386 226.035 531.866 226.234C531.466 226.354 531.067 226.234 530.827 226.115C530.627 226.673 530.307 227.031 529.907 227.19C529.267 227.389 528.588 227.071 528.268 226.872C527.948 227.23 527.628 227.429 527.188 227.429C527.228 227.429 527.188 227.429 527.188 227.429ZM521.591 214.285L523.31 221.017L525.669 225.876C525.869 226.195 526.589 227.031 527.228 226.991C527.508 226.991 527.788 226.792 527.988 226.394L528.108 226.195L528.308 226.354C528.308 226.354 529.107 226.951 529.747 226.752C530.107 226.633 530.347 226.274 530.507 225.717L530.587 225.438L530.827 225.637C530.827 225.637 531.306 225.995 531.746 225.836C532.106 225.717 532.386 225.318 532.546 224.641L532.106 221.335L532.426 221.495C532.426 221.495 532.906 221.734 533.266 221.534C533.505 221.415 533.665 221.096 533.745 220.618L532.066 214.325L532.146 208.231C532.066 207.913 531.306 205.204 530.547 202.496C529.827 199.986 529.347 198.353 529.067 197.517L519.951 198.234L521.071 207.076L518.272 212.613L519.752 217.79C520.231 217.551 521.431 216.675 521.151 214.405L521.591 214.285Z" fill="#023047"/>
<path d="M527.988 226.593L525.429 220.419L524.349 215.082L524.709 215.002L525.829 220.3L528.348 226.473L527.988 226.593Z" fill="#023047"/>
<path d="M530.507 225.836L527.988 219.662L526.868 214.524L527.268 214.445L528.348 219.543L530.867 225.717L530.507 225.836Z" fill="#023047"/>
<path d="M530.868 213.407L524.088 215.129L524.187 215.515L530.967 213.793L530.868 213.407Z" fill="#023047"/>
<path d="M532.266 222.49L530.866 218.428L529.987 213.807L530.347 213.728L531.266 218.308L532.626 222.371L532.266 222.49Z" fill="#023047"/>
<path d="M472.652 134.506L473.132 124.23C473.132 124.23 461.098 126.46 468.414 106.426C469.174 104.355 470.653 102.602 472.532 101.487L474.612 100.252L483.967 102.204L485.927 136.497L472.652 134.506Z" fill="#FFB703"/>
<path d="M486.166 136.697L472.452 134.665L472.932 124.429C472.093 124.509 469.334 124.668 467.495 122.517C465.096 119.689 465.336 114.232 468.254 106.306C469.014 104.195 470.493 102.403 472.452 101.248L474.612 99.9733L484.167 101.965V102.124L486.166 136.697ZM472.852 134.347L485.727 136.258L483.767 102.323L474.652 100.411L472.652 101.606C470.773 102.722 469.334 104.434 468.614 106.466C465.815 114.153 465.536 119.609 467.815 122.278C469.814 124.628 473.092 124.031 473.132 124.031L473.372 123.991L472.852 134.347Z" fill="#023047"/>
<path d="M471.213 101.328C471.213 101.328 470.014 104.753 473.172 111.882C473.172 111.882 479.849 109.732 476.531 117.578C476.531 117.578 478.81 123.951 485.207 125.425C485.207 125.425 490.604 122.955 492.604 115.626C492.883 114.551 493.283 111.882 493.283 111.882C493.283 111.882 499.201 118.853 507.597 114.87C509.316 114.073 511.075 111.405 511.475 108.417C512.115 103.956 510.196 96.7869 501.959 96.7869C498.481 96.7869 493.723 99.3758 491.924 105.47C491.884 105.47 484.487 94.4767 471.213 101.328Z" fill="#023047"/>
<path d="M413.599 141.396L410.64 153.146L404.523 150.239L408.441 139.524L413.599 141.396Z" fill="#023047"/>
<path d="M530.787 202.416L520.471 203.651L519.752 198.035L529.267 197.278C529.547 198.154 530.147 200.265 530.787 202.416Z" fill="#023047"/>
<path d="M411.16 139.405L407.721 156.572L436.549 166.569C439.827 167.724 443.425 167.645 446.664 166.33L461.338 160.475L458.379 194.769H504.638L500.2 157.528L506.597 169.278L516.713 200.823H530.987L522.15 162.427L507.797 140.162C505.638 136.816 502.279 134.466 498.401 133.55L489.845 131.519H473.212C469.934 131.519 466.695 132.395 463.856 134.028L441.146 147.212L411.16 139.405Z" fill="#8ECAE6"/>
<path d="M531.266 201.102H516.593L516.553 200.982L506.437 169.437L500.56 158.603L504.878 195.048H458.179V194.848L461.098 160.873L446.744 166.609C443.465 167.923 439.827 168.003 436.468 166.848L407.481 156.811L411 139.286L441.146 147.172L463.776 134.028C466.655 132.355 469.934 131.479 473.252 131.479H489.925L498.481 133.51C502.439 134.466 505.798 136.816 507.997 140.241L522.39 162.506L531.266 201.102ZM516.873 200.703H530.747L521.99 162.586L507.637 140.361C505.518 137.055 502.199 134.745 498.361 133.829L489.845 131.797H473.252C470.014 131.797 466.815 132.674 463.976 134.307L441.186 147.53L411.28 139.724L407.921 156.492L436.588 166.41C439.827 167.525 443.385 167.445 446.584 166.171L461.537 160.196L458.579 194.609H504.398L499.88 156.532L506.757 169.198L516.873 200.703Z" fill="#023047"/>
<path d="M583.963 327.203H0.222656V328H583.963V327.203Z" fill="#023047"/>
</svg>
