<svg width="562" height="357" viewBox="0 0 562 357" fill="none" xmlns="http://www.w3.org/2000/svg">
  <path
    d="M150.999 323.186C141.473 310.429 133.691 296.481 127.865 281.725C120.424 262.929 116.214 243.112 115.406 222.786C115.321 220.319 115.236 217.768 115.236 215.302H115.661C115.661 217.768 115.703 220.277 115.831 222.786C116.639 243.07 120.849 262.844 128.248 281.597C134.074 296.31 141.856 310.216 151.339 322.931L150.999 323.186Z"
    fill="#023047" />
  <path
    d="M435.232 101.379C418.69 81.137 397.555 64.4675 374.124 53.1134L374.294 52.7307C397.768 64.0847 418.945 80.8394 435.529 101.081L435.232 101.379Z"
    fill="#023047" />
  <path
    d="M184.253 73.8654L183.998 73.5252C199.604 61.2356 216.954 51.6251 235.58 45.0338C254.886 38.2299 275.127 34.7429 295.752 34.7429C317.949 34.7429 339.637 38.7402 360.219 46.6072L360.049 46.9899C339.552 39.1654 317.907 35.1682 295.752 35.1682C254.843 35.2107 216.274 48.5634 184.253 73.8654Z"
    fill="#023047" />
  <path
    d="M140.835 125.575L140.453 125.362C148.787 110.862 159.121 97.5939 171.155 85.8997L171.453 86.1974C159.503 97.849 149.17 111.074 140.835 125.575Z"
    fill="#023047" />
  <path d="M55.8715 268.67H172.559L196.415 349.551H79.7277L55.8715 268.67Z" fill="white" />
  <path
    d="M196.712 349.764H79.6001L79.5576 349.594L55.6164 268.457H172.729L172.771 268.627L196.712 349.764ZM79.8978 349.338H196.117L172.388 268.882H56.1692L79.8978 349.338Z"
    fill="#023047" />
  <path d="M242.128 349.636H122.933V356.44H242.128V349.636Z" fill="#023047" />
  <path d="M242.341 356.652H122.72V349.423H242.341V356.652ZM123.145 356.227H241.916V349.849H123.145V356.227Z"
    fill="#023047" />
  <path d="M126.164 349.636H79.0899V356.44H126.164V349.636Z" fill="white" />
  <path d="M126.377 356.652H78.8773V349.423H126.377V356.652ZM79.3025 356.227H125.952V349.849H79.3025V356.227Z"
    fill="#023047" />
  <path d="M65.8223 275.984H166.563L185.784 341.599H85.0433L65.8223 275.984Z" fill="#8ECAE6" />
  <path
    d="M186.081 341.812H84.8731L84.8306 341.642L65.5245 275.729H166.733L166.775 275.899L186.081 341.812ZM85.2134 341.386H185.528L166.435 276.196H66.1199L85.2134 341.386Z"
    fill="#023047" />
  <path d="M100.139 295.673H141.813L146.491 312.683H104.817L100.139 295.673Z" fill="white" />
  <path
    d="M146.789 312.895H104.69L99.8843 295.46H141.983L146.789 312.895ZM104.987 312.47H146.236L141.686 295.885H100.437L104.987 312.47Z"
    fill="#023047" />
  <path
    d="M120.721 309.663L113.024 303.795L114.045 302.434L120.806 307.622L135.647 298.564L136.498 300.01L120.721 309.663Z"
    fill="#023047" />
  <path
    d="M180.851 296.693L179.745 314.596C181.701 314.596 183.402 313.32 183.955 311.492L188.42 297.246L180.851 296.693Z"
    fill="#FFB703" />
  <path
    d="M179.788 314.766H179.575L180.681 296.438L188.76 297.033L184.21 311.534C183.615 313.49 181.829 314.766 179.788 314.766ZM181.063 296.906L180 314.341C181.744 314.256 183.275 313.065 183.785 311.407L188.165 297.416L181.063 296.906Z"
    fill="#023047" />
  <path d="M175.45 298.309L170.56 315.106C173.537 315.106 176.301 313.448 177.661 310.769L184.083 298.309H175.45Z"
    fill="#FFB703" />
  <path
    d="M170.56 315.319H170.262L175.28 298.096H184.465L177.874 310.896C176.471 313.618 173.664 315.319 170.56 315.319ZM175.62 298.522L170.858 314.894C173.664 314.809 176.216 313.193 177.491 310.684L183.785 298.522H175.62Z"
    fill="#023047" />
  <path
    d="M217.209 308.047L209.13 306.602H209.087L199.051 313.788L181.829 317.615C180.383 311.875 192.843 307.58 192.843 307.58L195.224 303.285L188.505 298.012L163.671 302.051C163.203 302.137 162.778 302.179 162.31 302.179C159.248 302.179 156.399 300.521 154.868 297.756L197.138 283.213L212.872 288.231L216.741 289.464L217.209 308.047Z"
    fill="#FFB703" />
  <path
    d="M181.659 317.828L181.616 317.615C180.213 311.917 191.524 307.75 192.673 307.367L194.926 303.285L188.463 298.182L163.713 302.179C163.246 302.264 162.778 302.307 162.31 302.307C159.121 302.307 156.229 300.563 154.698 297.799L154.571 297.586L197.138 282.958H197.223L216.954 289.209L217.422 308.26L209.13 306.814L199.136 313.958H199.094L181.659 317.828ZM188.548 297.756L195.479 303.2L192.97 307.75L192.885 307.792C192.758 307.835 180.936 312.002 181.956 317.36L198.924 313.576L209.002 306.389L209.13 306.431L216.954 307.792L216.486 289.549L197.095 283.383L155.166 297.799C156.654 300.308 159.333 301.881 162.268 301.881C162.693 301.881 163.161 301.839 163.586 301.754L188.548 297.756Z"
    fill="#023047" />
  <path
    d="M476.14 197.611L467.508 204.5C467.508 204.5 462.745 209.688 458.45 211.389L451.986 226.528L448.117 235.586L432.127 227.804L437.315 214.834L438.591 211.644C438.591 211.644 433.871 204.5 440.76 197.144L442.503 194.55L444.247 187.661L441.228 179.283C440.59 177.497 441.908 175.626 443.822 175.626L450.285 186.385L448.499 172.522C448.244 170.353 449.818 168.44 451.986 168.27L455.856 186.81L457.217 171.119C457.429 168.525 459.513 166.526 462.107 166.356L461.469 186.81L464.786 178.901C465.892 176.264 468.528 174.606 471.377 174.733L462.32 199.312C462.32 199.312 470.952 192.849 476.14 197.611Z"
    fill="#FFB703" />
  <path
    d="M448.202 235.841L431.872 227.889L438.336 211.687C437.826 210.794 434.084 203.947 440.59 197.016L442.291 194.464L443.992 187.661L441.015 179.326C440.675 178.39 440.802 177.412 441.398 176.647C441.951 175.839 442.844 175.414 443.822 175.414H443.949L449.945 185.407L448.287 172.564C448.159 171.459 448.457 170.396 449.18 169.545C449.903 168.695 450.881 168.184 451.986 168.099H452.156L455.771 185.407L457.004 171.161C457.217 168.482 459.428 166.356 462.107 166.228H462.32L461.724 185.747L464.616 178.901C465.764 176.222 468.486 174.478 471.42 174.606H471.718L462.788 198.845C464.786 197.526 471.845 193.401 476.31 197.526L476.48 197.696L467.678 204.755C467.508 204.925 462.915 209.901 458.663 211.644L448.202 235.841ZM432.383 227.676L447.989 235.245L458.28 211.219L458.365 211.177C462.575 209.476 467.295 204.373 467.338 204.33L475.8 197.569C470.782 193.316 462.532 199.397 462.447 199.482L461.852 199.908L471.08 174.946C468.443 174.946 466.019 176.562 464.999 178.986L461.214 187.958L461.894 166.611C459.556 166.866 457.642 168.78 457.429 171.161L455.941 188.298L451.816 168.567C450.881 168.695 450.073 169.12 449.477 169.843C448.84 170.608 448.584 171.586 448.712 172.564L450.626 187.405L443.694 175.881C442.929 175.924 442.206 176.307 441.738 176.944C441.27 177.625 441.143 178.475 441.44 179.241L444.459 187.703L442.673 194.72L440.93 197.314C434.211 204.5 438.719 211.517 438.761 211.602L438.804 211.687L437.486 214.961L432.383 227.676Z"
    fill="#023047" />
  <path d="M217.209 308.047L209.13 306.601L212.872 288.146L216.741 289.379L217.209 308.047Z" fill="#023047" />
  <path d="M451.944 226.528L448.074 235.543L432.127 227.803L437.273 214.833L451.944 226.528Z" fill="#023047" />
  <path
    d="M373.189 222.488C373.189 222.488 360.346 201.651 358.688 191.02L362.132 167.121C362.132 167.121 361.367 144.498 331.982 151.77C331.982 151.77 331.515 141.096 324.286 139.055C324.286 139.055 328.113 144.839 327.177 150.834C327.177 150.834 320.671 138.035 310.295 145.646C310.295 145.646 302.215 150.749 304.937 158.957C304.937 158.957 305.362 168.44 318.417 167.887C318.417 167.887 318.928 179.751 291.202 197.654C291.202 197.654 267.983 210.581 271.47 235.416C274.957 260.25 298.176 274.666 298.176 274.666L379.993 269.818L373.189 222.488Z"
    fill="#023047" />
  <path
    d="M327.432 236.138L328.028 193.018C328.028 193.018 321.649 189.829 322.755 182.642C322.755 182.642 323.903 176.902 329.814 180.899L330.664 170.948C330.664 170.948 350.906 177.157 361.792 165.292C361.792 165.292 375.57 203.947 354.903 204.713L360.644 237.244L327.432 236.138Z"
    fill="#FFB703" />
  <path
    d="M360.857 237.457H360.601L327.22 236.351L327.815 193.189C326.922 192.678 321.522 189.361 322.585 182.643C322.585 182.558 323.095 180.261 324.923 179.538C326.199 179.028 327.815 179.368 329.644 180.559L330.452 170.693L330.707 170.778C330.919 170.821 350.948 176.817 361.622 165.165L361.877 164.91L362.005 165.25C362.345 166.271 370.765 190.127 363.791 200.418C361.877 203.224 358.985 204.755 355.158 204.925L360.857 237.457ZM327.645 235.926L360.346 236.989L354.605 204.458H354.861C358.645 204.33 361.537 202.842 363.366 200.12C369.787 190.68 362.643 168.652 361.665 165.675C351.416 176.477 333.173 171.884 330.834 171.204L329.984 181.282L329.686 181.069C327.815 179.793 326.242 179.411 325.051 179.878C323.435 180.559 322.967 182.643 322.967 182.685C321.904 189.617 328.028 192.806 328.113 192.848L328.24 192.891V193.019L327.645 235.926Z"
    fill="#023047" />
  <path
    d="M457.43 239.753L432.468 303.199C423.793 318.933 407.506 312.427 407.506 312.427C399.894 310.258 390.156 283.128 390.156 283.128L386.371 356.312L281.761 356.398L286.141 340.323L286.311 339.218L279.38 336.794L211.936 314.341L214.913 287.38L271.64 296.353L289.458 242.942C292.605 233.502 299.792 225.975 309.062 222.361L326.752 215.684C346.526 236.564 357.072 211.517 357.072 211.517L387.817 218.278C396.45 220.192 403.721 225.975 407.506 233.97L416.138 252.213L435.104 216.407L457.43 239.753Z"
    fill="#219EBC" />
  <path
    d="M281.506 356.61L285.971 340.281L286.099 339.388L279.337 337.049L211.723 314.553L214.743 287.21L271.513 296.183L289.245 242.942C292.435 233.417 299.621 225.848 308.977 222.233L326.795 215.514L326.88 215.599C332.875 221.893 338.574 224.614 343.847 223.636C352.267 222.105 356.774 211.559 356.817 211.474L356.902 211.304L357.072 211.347L387.817 218.108C396.449 220.022 403.891 225.933 407.676 233.927L416.138 251.787L435.062 216.109L457.6 239.753L432.595 303.327C423.92 319.061 407.548 312.725 407.378 312.682C400.532 310.726 392.112 289.209 390.283 284.234L386.541 356.61H386.329H281.506ZM212.191 314.256L279.465 336.624L286.566 339.09L286.354 340.366L282.016 356.185L386.159 356.1L389.986 282.022L390.326 283C390.411 283.255 400.149 310.046 407.548 312.13C407.718 312.215 423.75 318.381 432.255 303.029L457.132 239.753L435.189 216.747L416.138 252.638L407.336 234.012C403.594 226.145 396.279 220.319 387.774 218.448L357.199 211.729C356.604 213.09 352.054 222.531 343.974 223.976C338.574 224.955 332.748 222.233 326.709 215.897L309.147 222.531C299.919 226.103 292.818 233.545 289.671 242.985L271.81 296.566L215.125 287.593L212.191 314.256Z"
    fill="#023047" />
  <path d="M286.184 340.323L286.354 339.26L279.422 336.836L300.685 275.814L286.184 340.323Z" fill="#023047" />
  <path
    d="M316.036 285.084C312.464 285.084 306.128 284.489 302.726 280.491C300.174 277.515 299.706 273.177 301.28 267.649C305.32 253.574 311.018 247.025 311.103 246.982L311.401 247.28C311.358 247.365 305.702 253.829 301.705 267.819C300.132 273.22 300.6 277.43 303.023 280.279C307.744 285.85 318.417 284.616 318.545 284.616L318.587 285.042C318.587 284.956 317.567 285.084 316.036 285.084Z"
    fill="#023047" />
  <path
    d="M363.068 294.44C355.924 294.44 350.523 289.847 350.481 289.804L350.778 289.464C350.821 289.507 357.157 294.865 365.109 293.887C370.552 293.206 375.485 289.719 379.78 283.553L380.12 283.808C375.783 290.059 370.722 293.589 365.152 294.312C364.386 294.397 363.706 294.44 363.068 294.44Z"
    fill="#023047" />
  <path
    d="M505.184 288.443C505.184 280.321 498.593 273.772 490.513 273.772C482.391 273.772 475.843 280.363 475.843 288.443C475.843 290.484 476.268 292.398 476.991 294.141C477.203 294.694 477.458 295.205 477.756 295.715L490.386 321.102L503.143 295.97C503.483 295.375 503.781 294.779 504.079 294.184C504.759 292.398 505.184 290.484 505.184 288.443ZM490.641 294.652C487.409 294.652 484.815 292.015 484.815 288.826C484.815 285.636 487.452 283 490.641 283C493.83 283 496.467 285.636 496.467 288.826C496.467 292.015 493.873 294.652 490.641 294.652Z"
    fill="#FB8500" />
  <path
    d="M490.343 321.57L477.543 295.842C477.246 295.332 476.991 294.779 476.778 294.269C476.013 292.441 475.63 290.484 475.63 288.486C475.63 280.279 482.306 273.602 490.513 273.602C498.721 273.602 505.397 280.279 505.397 288.486C505.397 290.484 505.014 292.441 504.249 294.269C503.994 294.907 503.654 295.502 503.313 296.098L490.343 321.57ZM490.513 273.985C482.519 273.985 476.055 280.491 476.055 288.443C476.055 290.399 476.438 292.27 477.203 294.056C477.416 294.567 477.671 295.077 477.969 295.587L490.386 320.592L502.931 295.842C503.271 295.247 503.568 294.652 503.824 294.056C504.589 292.27 504.972 290.399 504.972 288.443C504.972 280.491 498.465 273.985 490.513 273.985ZM490.641 294.864C487.282 294.864 484.603 292.143 484.603 288.826C484.603 285.467 487.324 282.788 490.641 282.788C493.958 282.788 496.679 285.509 496.679 288.826C496.722 292.143 494 294.864 490.641 294.864ZM490.641 283.17C487.537 283.17 485.028 285.679 485.028 288.783C485.028 291.888 487.537 294.397 490.641 294.397C493.745 294.397 496.254 291.888 496.254 288.783C496.254 285.679 493.745 283.17 490.641 283.17Z"
    fill="#023047" />
  <path d="M470.697 80.7542L474.992 143.605H431.83V80.7542H470.697Z" fill="#FB8500" />
  <path
    d="M475.247 143.818H431.617V80.5415H470.867V80.7541L475.247 143.818ZM432.042 143.393H474.779L470.484 80.9667H432.042V143.393Z"
    fill="#023047" />
  <path d="M433.531 80.7542L436.677 143.605H419.498L422.857 80.7542H433.531Z" fill="#023047" />
  <path
    d="M436.89 143.818H419.242V143.605L422.644 80.5415H433.701V80.7541L436.89 143.818ZM419.71 143.393H436.465L433.361 80.9242H423.112L419.71 143.393Z"
    fill="#023047" />
  <path
    d="M457.77 98.6145C457.6 98.6145 457.472 98.6145 457.344 98.6145C448.797 98.1467 447.309 90.9176 447.096 89.4717C447.011 88.7913 446.883 88.111 446.798 87.4731C445.905 81.0944 445.565 78.7131 443.184 78.9682C441.313 79.1808 440.59 80.8393 440.59 80.8818L440.207 80.7117C440.25 80.6267 441.015 78.7556 443.141 78.543C445.905 78.2453 446.288 80.9243 447.224 87.4306C447.309 88.0684 447.394 88.7063 447.521 89.4292C447.734 90.8325 449.137 97.764 457.387 98.2317C458.408 98.2743 460.321 98.1892 461.809 96.871C463.043 95.7653 463.723 94.0219 463.851 91.683C464.021 88.7063 463.17 81.0519 460.789 79.7762C460.109 79.3935 459.513 79.3084 459.045 79.521C458.237 79.8612 457.94 80.9243 457.897 80.9243L457.472 80.7967C457.472 80.7542 457.855 79.5636 458.833 79.1383C459.471 78.8832 460.151 78.9682 460.959 79.3935C463.595 80.8393 464.361 88.8764 464.233 91.683C464.106 94.1494 463.383 95.9779 462.022 97.1686C460.704 98.3593 458.918 98.6145 457.77 98.6145Z"
    fill="#023047" />
  <path d="M479.202 106.779H446.713L449.18 143.605H488.6L479.202 106.779Z" fill="#8ECAE6" />
  <path
    d="M488.855 143.818H448.967L446.501 106.567H479.372L479.415 106.737L488.855 143.818ZM449.35 143.393H488.302L478.989 106.992H446.926L449.35 143.393Z"
    fill="#023047" />
  <path d="M443.184 106.694H447.861L456.962 143.605H444.162L443.184 106.694Z" fill="#023047" />
  <path
    d="M457.217 143.818H443.949V143.605L442.971 106.439H448.032L457.217 143.818ZM444.374 143.393H456.707L447.691 106.864H443.396L444.374 143.393Z"
    fill="#023047" />
  <path
    d="M468.401 119.281C468.358 119.281 468.358 119.281 468.316 119.281C465.467 119.281 463.34 117.623 461.894 114.306L458.748 106.864C458.748 106.864 457.77 104.866 456.196 105.206C454.793 105.503 454.495 106.822 454.495 106.822L454.07 106.737C454.07 106.652 454.453 105.163 456.111 104.781C458.025 104.355 459.088 106.567 459.13 106.694L462.277 114.136C464.106 118.346 466.615 118.814 468.316 118.814C473.589 118.856 473.716 114.816 473.801 112.435C473.801 112.222 473.801 112.052 473.844 111.882C474.142 106.482 472.441 105.631 471.888 105.503C469.847 104.993 469.251 106.822 469.209 106.907L468.826 106.779C468.826 106.737 469.591 104.525 472.015 105.121C472.781 105.333 474.567 106.354 474.269 111.925C474.269 112.095 474.269 112.265 474.227 112.477C474.184 114.859 474.014 119.281 468.401 119.281Z"
    fill="#023047" />
  <path d="M419.455 143.988L419.115 143.733L427.875 133.187V80.7542H428.3V133.357L428.258 133.399L419.455 143.988Z"
    fill="white" />
  <path d="M428.158 133.171L427.835 133.448L436.497 143.554L436.82 143.278L428.158 133.171Z" fill="white" />
  <path
    d="M444.459 143.478L444.119 143.265L448.882 135.653L445.523 106.694L445.948 106.652L449.307 135.738L449.265 135.781L444.459 143.478Z"
    fill="white" />
  <path d="M449.21 135.557L448.909 135.858L456.607 143.556L456.908 143.255L449.21 135.557Z" fill="white" />
  <path
    d="M326.157 4.93328V62.0435C326.157 64.3398 324.285 66.2109 321.989 66.2109H235.962C233.666 66.2109 231.795 64.3398 231.795 62.0435V4.93328C231.795 2.63696 233.666 0.765869 235.962 0.765869H321.989C324.285 0.765869 326.157 2.63696 326.157 4.93328Z"
    fill="#FFB703" />
  <path
    d="M321.989 66.466H235.962C233.538 66.466 231.582 64.5099 231.582 62.086V4.97574C231.582 2.55185 233.538 0.595703 235.962 0.595703H321.989C324.413 0.595703 326.369 2.55185 326.369 4.97574V62.086C326.369 64.5099 324.413 66.466 321.989 66.466ZM235.92 0.978433C233.709 0.978433 231.965 2.76448 231.965 4.93322V62.0435C231.965 64.2547 233.751 65.9983 235.92 65.9983H321.947C324.158 65.9983 325.901 64.2122 325.901 62.0435V4.93322C325.901 2.72195 324.115 0.978433 321.947 0.978433H235.92Z"
    fill="#023047" />
  <path d="M326.157 12.0774H231.752V23.1337H326.157V12.0774Z" fill="#CDCBCC" />
  <path d="M326.369 23.3039H231.54V11.8223H326.369V23.3039ZM231.965 22.8786H325.944V12.2475H231.965V22.8786Z"
    fill="#023047" />
  <path d="M326.157 20.9648H231.752V33.6371H326.157V20.9648Z" fill="#023047" />
  <path
    d="M236.94 27.1734C236.94 28.2365 237.791 29.087 238.854 29.087H257.905C258.968 29.087 259.819 28.2365 259.819 27.1734C259.819 26.1103 258.968 25.2598 257.905 25.2598H238.854C237.791 25.2598 236.94 26.1103 236.94 27.1734Z"
    fill="white" />
  <path
    d="M257.862 29.2996H238.812C237.663 29.2996 236.685 28.364 236.685 27.1733C236.685 25.9827 237.621 25.0471 238.812 25.0471H257.862C259.011 25.0471 259.989 25.9827 259.989 27.1733C259.989 28.364 259.053 29.2996 257.862 29.2996ZM238.854 25.4724C237.918 25.4724 237.153 26.2378 237.153 27.1733C237.153 28.1089 237.918 28.8743 238.854 28.8743H257.905C258.84 28.8743 259.606 28.1089 259.606 27.1733C259.606 26.2378 258.84 25.4724 257.905 25.4724H238.854Z"
    fill="#023047" />
  <path
    d="M267.643 27.1734C267.643 28.2365 268.493 29.087 269.557 29.087H288.607C289.671 29.087 290.521 28.2365 290.521 27.1734C290.521 26.1103 289.671 25.2598 288.607 25.2598H269.557C268.493 25.2598 267.643 26.1103 267.643 27.1734Z"
    fill="white" />
  <path
    d="M288.608 29.2996H269.557C268.408 29.2996 267.43 28.364 267.43 27.1733C267.43 25.9827 268.366 25.0471 269.557 25.0471H288.608C289.756 25.0471 290.734 25.9827 290.734 27.1733C290.734 28.364 289.756 29.2996 288.608 29.2996ZM269.557 25.4724C268.621 25.4724 267.856 26.2378 267.856 27.1733C267.856 28.1089 268.621 28.8743 269.557 28.8743H288.608C289.543 28.8743 290.309 28.1089 290.309 27.1733C290.309 26.2378 289.543 25.4724 288.608 25.4724H269.557Z"
    fill="#023047" />
  <path
    d="M300.259 29.8523C301.316 29.8523 302.173 28.9956 302.173 27.9387C302.173 26.8819 301.316 26.0251 300.259 26.0251C299.202 26.0251 298.346 26.8819 298.346 27.9387C298.346 28.9956 299.202 29.8523 300.259 29.8523Z"
    fill="white" />
  <path
    d="M300.259 30.0225C299.111 30.0225 298.133 29.0869 298.133 27.8962C298.133 26.7056 299.069 25.77 300.259 25.77C301.45 25.77 302.385 26.7056 302.385 27.8962C302.385 29.0869 301.45 30.0225 300.259 30.0225ZM300.259 26.2378C299.324 26.2378 298.558 27.0032 298.558 27.9388C298.558 28.8743 299.324 29.6397 300.259 29.6397C301.195 29.6397 301.96 28.8743 301.96 27.9388C301.96 27.0032 301.195 26.2378 300.259 26.2378Z"
    fill="#023047" />
  <path
    d="M306.34 29.8523C307.397 29.8523 308.254 28.9956 308.254 27.9387C308.254 26.8819 307.397 26.0251 306.34 26.0251C305.283 26.0251 304.427 26.8819 304.427 27.9387C304.427 28.9956 305.283 29.8523 306.34 29.8523Z"
    fill="white" />
  <path
    d="M306.34 30.0225C305.192 30.0225 304.214 29.0869 304.214 27.8962C304.214 26.7056 305.15 25.77 306.34 25.77C307.531 25.77 308.466 26.7056 308.466 27.8962C308.466 29.0869 307.531 30.0225 306.34 30.0225ZM306.34 26.2378C305.405 26.2378 304.639 27.0032 304.639 27.9388C304.639 28.8743 305.405 29.6397 306.34 29.6397C307.276 29.6397 308.041 28.8743 308.041 27.9388C308.041 27.0032 307.276 26.2378 306.34 26.2378Z"
    fill="#023047" />
  <path
    d="M312.464 29.8523C313.521 29.8523 314.377 28.9956 314.377 27.9387C314.377 26.8819 313.521 26.0251 312.464 26.0251C311.407 26.0251 310.55 26.8819 310.55 27.9387C310.55 28.9956 311.407 29.8523 312.464 29.8523Z"
    fill="white" />
  <path
    d="M312.464 30.0225C311.316 30.0225 310.338 29.0869 310.338 27.8962C310.338 26.7056 311.273 25.77 312.464 25.77C313.654 25.77 314.59 26.7056 314.59 27.8962C314.59 29.0869 313.612 30.0225 312.464 30.0225ZM312.464 26.2378C311.528 26.2378 310.763 27.0032 310.763 27.9388C310.763 28.8743 311.528 29.6397 312.464 29.6397C313.399 29.6397 314.165 28.8743 314.165 27.9388C314.165 27.0032 313.399 26.2378 312.464 26.2378Z"
    fill="#023047" />
  <path
    d="M318.545 29.8523C319.602 29.8523 320.458 28.9956 320.458 27.9387C320.458 26.8819 319.602 26.0251 318.545 26.0251C317.488 26.0251 316.631 26.8819 316.631 27.9387C316.631 28.9956 317.488 29.8523 318.545 29.8523Z"
    fill="white" />
  <path
    d="M318.545 30.0225C317.397 30.0225 316.419 29.0869 316.419 27.8962C316.419 26.7056 317.354 25.77 318.545 25.77C319.735 25.77 320.671 26.7056 320.671 27.8962C320.671 29.0869 319.693 30.0225 318.545 30.0225ZM318.545 26.2378C317.609 26.2378 316.844 27.0032 316.844 27.9388C316.844 28.8743 317.609 29.6397 318.545 29.6397C319.48 29.6397 320.246 28.8743 320.246 27.9388C320.246 27.0032 319.48 26.2378 318.545 26.2378Z"
    fill="#023047" />
  <path
    d="M297.963 56.7279C302.378 56.7279 305.958 53.1487 305.958 48.7334C305.958 44.3181 302.378 40.7388 297.963 40.7388C293.548 40.7388 289.968 44.3181 289.968 48.7334C289.968 53.1487 293.548 56.7279 297.963 56.7279Z"
    fill="white" />
  <path
    d="M297.963 56.9405C293.455 56.9405 289.756 53.2409 289.756 48.7334C289.756 44.2258 293.455 40.5261 297.963 40.5261C302.47 40.5261 306.17 44.2258 306.17 48.7334C306.17 53.2835 302.513 56.9405 297.963 56.9405ZM297.963 40.9514C293.668 40.9514 290.181 44.4384 290.181 48.7334C290.181 53.0283 293.668 56.5153 297.963 56.5153C302.258 56.5153 305.745 53.0283 305.745 48.7334C305.745 44.4384 302.258 40.9514 297.963 40.9514Z"
    fill="#023047" />
  <path
    d="M307.106 56.7279C311.521 56.7279 315.1 53.1487 315.1 48.7334C315.1 44.3181 311.521 40.7388 307.106 40.7388C302.69 40.7388 299.111 44.3181 299.111 48.7334C299.111 53.1487 302.69 56.7279 307.106 56.7279Z"
    fill="#CDCBCC" />
  <path
    d="M307.106 56.9405C302.598 56.9405 298.898 53.2409 298.898 48.7334C298.898 44.2258 302.598 40.5261 307.106 40.5261C311.613 40.5261 315.313 44.2258 315.313 48.7334C315.313 53.2835 311.656 56.9405 307.106 56.9405ZM307.106 40.9514C302.811 40.9514 299.324 44.4384 299.324 48.7334C299.324 53.0283 302.811 56.5153 307.106 56.5153C311.401 56.5153 314.888 53.0283 314.888 48.7334C314.888 44.4384 311.401 40.9514 307.106 40.9514Z"
    fill="#023047" />
  <path
    d="M245.573 42.6524C245.573 43.7155 246.423 44.566 247.486 44.566H277.934C278.997 44.566 279.848 43.7155 279.848 42.6524C279.848 41.5893 278.997 40.7388 277.934 40.7388H247.486C246.423 40.7388 245.573 41.5893 245.573 42.6524Z"
    fill="white" />
  <path
    d="M277.934 44.7786H247.486C246.338 44.7786 245.36 43.843 245.36 42.6523C245.36 41.4617 246.296 40.5261 247.486 40.5261H277.934C279.082 40.5261 280.06 41.4617 280.06 42.6523C280.06 43.843 279.082 44.7786 277.934 44.7786ZM247.486 40.9514C246.551 40.9514 245.785 41.7168 245.785 42.6523C245.785 43.5879 246.551 44.3533 247.486 44.3533H277.934C278.869 44.3533 279.635 43.5879 279.635 42.6523C279.635 41.7168 278.869 40.9514 277.934 40.9514H247.486Z"
    fill="#023047" />
  <path
    d="M245.573 48.7334C245.573 49.7965 246.423 50.647 247.486 50.647H277.934C278.997 50.647 279.848 49.7965 279.848 48.7334C279.848 47.6703 278.997 46.8198 277.934 46.8198H247.486C246.423 46.8198 245.573 47.6703 245.573 48.7334Z"
    fill="white" />
  <path
    d="M277.934 50.8596H247.486C246.338 50.8596 245.36 49.9241 245.36 48.7334C245.36 47.5427 246.296 46.6072 247.486 46.6072H277.934C279.082 46.6072 280.06 47.5427 280.06 48.7334C280.06 49.9241 279.082 50.8596 277.934 50.8596ZM247.486 47.0324C246.551 47.0324 245.785 47.7979 245.785 48.7334C245.785 49.6689 246.551 50.4344 247.486 50.4344H277.934C278.869 50.4344 279.635 49.6689 279.635 48.7334C279.635 47.7979 278.869 47.0324 277.934 47.0324H247.486Z"
    fill="#023047" />
  <path
    d="M245.573 54.8145C245.573 55.8776 246.423 56.7281 247.486 56.7281H277.934C278.997 56.7281 279.848 55.8776 279.848 54.8145C279.848 53.7514 278.997 52.9009 277.934 52.9009H247.486C246.423 52.9434 245.573 53.7939 245.573 54.8145Z"
    fill="white" />
  <path
    d="M277.934 56.9407H247.486C246.338 56.9407 245.36 56.0051 245.36 54.8145C245.36 53.6238 246.296 52.6882 247.486 52.6882H277.934C279.082 52.6882 280.06 53.6238 280.06 54.8145C280.06 56.0051 279.082 56.9407 277.934 56.9407ZM247.486 53.156C246.551 53.156 245.785 53.9214 245.785 54.857C245.785 55.7925 246.551 56.5579 247.486 56.5579H277.934C278.869 56.5579 279.635 55.7925 279.635 54.857C279.635 53.9214 278.869 53.156 277.934 53.156H247.486Z"
    fill="#023047" />
  <path d="M171.155 113.668H63.1432V217.853H106.391L116.511 236.138L127.78 217.853H171.155V113.668Z" fill="white" />
  <path
    d="M116.469 236.564L106.22 218.066H62.9306V113.456H171.368V218.066H127.908L116.469 236.564ZM63.3558 217.64H106.518L116.511 235.713L127.653 217.64H170.943V113.881H63.3558V217.64Z"
    fill="#023047" />
  <path d="M96.8225 125.447H137.093V195.57H125.994L116.937 143.52L107.921 195.57H96.8225V125.447Z" fill="#FB8500" />
  <path
    d="M137.306 195.783H125.824L116.979 144.753L108.134 195.783H96.6525V125.235H137.348V195.783H137.306ZM126.164 195.357H136.88V125.66H97.0351V195.357H107.751L116.937 142.244L126.164 195.357Z"
    fill="#023047" />
  <path
    d="M102.904 210.156C104.618 210.156 106.008 208.766 106.008 207.052C106.008 205.337 104.618 203.947 102.904 203.947C101.189 203.947 99.7993 205.337 99.7993 207.052C99.7993 208.766 101.189 210.156 102.904 210.156Z"
    fill="white" />
  <path
    d="M102.904 210.368C101.075 210.368 99.5866 208.88 99.5866 207.051C99.5866 205.223 101.075 203.735 102.904 203.735C104.732 203.735 106.22 205.223 106.22 207.051C106.22 208.88 104.732 210.368 102.904 210.368ZM102.904 204.117C101.288 204.117 100.012 205.436 100.012 207.009C100.012 208.582 101.33 209.901 102.904 209.901C104.519 209.901 105.795 208.582 105.795 207.009C105.795 205.436 104.519 204.117 102.904 204.117Z"
    fill="#023047" />
  <path
    d="M118.17 210.156C119.884 210.156 121.274 208.766 121.274 207.052C121.274 205.337 119.884 203.947 118.17 203.947C116.455 203.947 115.066 205.337 115.066 207.052C115.066 208.766 116.455 210.156 118.17 210.156Z"
    fill="#023047" />
  <path
    d="M131.352 210.156C133.067 210.156 134.457 208.766 134.457 207.052C134.457 205.337 133.067 203.947 131.352 203.947C129.638 203.947 128.248 205.337 128.248 207.052C128.248 208.766 129.638 210.156 131.352 210.156Z"
    fill="white" />
  <path
    d="M131.352 210.368C129.524 210.368 128.036 208.88 128.036 207.051C128.036 205.223 129.524 203.735 131.352 203.735C133.181 203.735 134.669 205.223 134.669 207.051C134.669 208.88 133.223 210.368 131.352 210.368ZM131.352 204.117C129.736 204.117 128.461 205.436 128.461 207.009C128.461 208.582 129.779 209.901 131.352 209.901C132.968 209.901 134.244 208.582 134.244 207.009C134.244 205.436 132.968 204.117 131.352 204.117Z"
    fill="#023047" />
  <path
    d="M64.1638 128.722C72.2663 128.722 78.8347 122.153 78.8347 114.051C78.8347 105.948 72.2663 99.3799 64.1638 99.3799C56.0613 99.3799 49.4929 105.948 49.4929 114.051C49.4929 122.153 56.0613 128.722 64.1638 128.722Z"
    fill="white" />
  <path
    d="M64.1638 128.934C55.9566 128.934 49.2803 122.258 49.2803 114.051C49.2803 105.844 55.9566 99.1672 64.1638 99.1672C72.371 99.1672 79.0474 105.844 79.0474 114.051C79.0474 122.258 72.371 128.934 64.1638 128.934ZM64.1638 99.5925C56.2118 99.5925 49.7055 106.099 49.7055 114.051C49.7055 122.003 56.2118 128.509 64.1638 128.509C72.1159 128.509 78.6221 122.003 78.6221 114.051C78.6221 106.099 72.1159 99.5925 64.1638 99.5925Z"
    fill="#023047" />
  <path
    d="M68.3737 106.694C66.3751 106.694 64.7166 108.012 64.1638 109.798C63.611 108.012 61.9525 106.694 59.9539 106.694C57.53 106.694 55.5739 108.65 55.5739 111.074C55.5739 111.882 55.7865 112.605 56.1692 113.243C56.3393 113.541 56.5519 113.796 56.7646 114.051L63.9937 123.874L71.478 114.178C71.7757 113.881 72.0308 113.583 72.2009 113.2C72.5837 112.562 72.7962 111.797 72.7962 111.032C72.7537 108.693 70.7976 106.694 68.3737 106.694Z"
    fill="#FB8500" />
  <path
    d="M63.9512 124.299L56.5519 114.221C56.3393 113.966 56.1267 113.711 55.9566 113.413C55.5738 112.733 55.3612 111.925 55.3612 111.117C55.3612 108.565 57.4449 106.524 59.9964 106.524C61.8249 106.524 63.4834 107.587 64.2063 109.245C64.9292 107.587 66.5877 106.524 68.4162 106.524C70.9677 106.524 73.0514 108.608 73.0514 111.117C73.0514 111.925 72.8388 112.69 72.456 113.413C72.2434 113.796 71.9883 114.136 71.6906 114.434L63.9512 124.299ZM59.9539 106.907C57.6575 106.907 55.7439 108.778 55.7439 111.074C55.7439 111.797 55.9566 112.52 56.2968 113.158C56.4669 113.413 56.6369 113.668 56.8496 113.923L63.9512 123.534L71.2653 114.093C71.563 113.796 71.7757 113.498 71.9883 113.158C72.371 112.52 72.5411 111.797 72.5411 111.074C72.5411 108.778 70.67 106.907 68.3311 106.907C66.4601 106.907 64.8442 108.097 64.3339 109.883L64.1213 110.564L63.9087 109.883C63.3984 108.097 61.7824 106.907 59.9539 106.907Z"
    fill="#023047" />
  <path d="M561.317 356.057H0.632324V356.908H561.317V356.057Z" fill="#023047" />
</svg>
